SplineFontDB: 3.2
FontName: Planewalker
FullName: Planewalker
FamilyName: Planewalker
Weight: Book
Copyright: Planewalker (c) (Neale Davidson). 2011-2014. All Rights Reserved
Version: 2.00 August 22, 2014
ItalicAngle: 0
UnderlinePosition: -292
UnderlineWidth: 150
Ascent: 1638
Descent: 410
InvalidEm: 0
sfntRevision: 0x00020000
LayerCount: 2
Layer: 0 1 "Back" 1
Layer: 1 1 "Fore" 0
XUID: [1021 608 -1869008187 32264]
StyleMap: 0x0040
FSType: 8
OS2Version: 3
OS2_WeightWidthSlopeOnly: 0
OS2_UseTypoMetrics: 0
CreationTime: 1408696768
ModificationTime: 1638219718
PfmFamily: 17
TTFWeight: 400
TTFWidth: 5
LineGap: 138
VLineGap: 0
Panose: 2 0 5 0 0 0 0 0 0 0
OS2TypoAscent: 1430
OS2TypoAOffset: 0
OS2TypoDescent: -680
OS2TypoDOffset: 0
OS2TypoLinegap: 205
OS2WinAscent: 1578
OS2WinAOffset: 0
OS2WinDescent: 680
OS2WinDOffset: 0
HheadAscent: 1578
HheadAOffset: 0
HheadDescent: -680
HheadDOffset: 0
OS2SubXSize: 1434
OS2SubYSize: 1331
OS2SubXOff: 0
OS2SubYOff: 283
OS2SupXSize: 1434
OS2SupYSize: 1331
OS2SupXOff: 0
OS2SupYOff: 977
OS2StrikeYSize: 102
OS2StrikeYPos: 530
OS2Vendor: 'PXSG'
OS2CodePages: 00000001.00000000
OS2UnicodeRanges: 800000a7.5000004a.00000000.00000000
Lookup: 1 0 0 "'frac' Diagonal Fractions in Latin lookup 0" { "'frac' Diagonal Fractions in Latin lookup 0 subtable"  } ['frac' ('latn' <'dflt' > ) ]
Lookup: 4 0 0 "'frac' Diagonal Fractions in Latin lookup 1" { "'frac' Diagonal Fractions in Latin lookup 1 subtable"  } ['frac' ('latn' <'dflt' > ) ]
Lookup: 258 0 0 "'kern' Horizontal Kerning in Latin lookup 0" { "'kern' Horizontal Kerning in Latin lookup 0 subtable"  } ['kern' ('latn' <'dflt' > ) ]
DEI: 91125
ShortTable: maxp 16
  1
  0
  236
  206
  5
  0
  0
  0
  0
  0
  0
  0
  0
  0
  0
  0
EndShort
LangName: 1033 "Planewalker +AKkA (Neale Davidson). 2011-2014. All Rights Reserved" "" "Regular" "Planewalker:Version 2.00" "" "Version 2.00 August 22, 2014" "" "" "Neale Davidson" "Neale Davidson" "" "http://www.pixelsagas.com" "http://www.pixelsagas.com"

StartChar: .notdef
Encoding: 65536 -1 0
Width: 1650
Flags: W
LayerCount: 2
Fore
SplineSet
0 200 m 2,1,-1
 0 1300 l 2,2,3
 0 1500 0 1500 200 1500 c 2,4,-1
 1300 1500 l 2,5,6
 1500 1500 1500 1500 1500 1300 c 2,7,-1
 1500 200 l 2,8,9
 1500 0 1500 0 1300 0 c 2,10,-1
 200 0 l 2,11,0
 0 0 0 0 0 200 c 2,1,-1
1475 201 m 2,13,-1
 1475 1300 l 2,14,15
 1475 1475 1475 1475 1300 1475 c 2,16,-1
 200 1475 l 2,17,18
 26 1475 26 1475 25 1300 c 2,19,-1
 25 200 l 2,20,21
 26 25 26 25 200 25 c 2,22,-1
 1301 25 l 2,23,12
 1475 25 1475 25 1475 201 c 2,13,-1
EndSplineSet
EndChar

StartChar: exclam
Encoding: 33 33 4
Width: 348
Flags: W
LayerCount: 2
Fore
SplineSet
82 1389 m 2,0,-1
 170 1389 l 2,1,2
 238 1389 238 1389 238 1319 c 2,3,-1
 238 1305 l 1,4,-1
 168 414 l 2,5,6
 164 371 164 371 137 371 c 2,7,-1
 106 371 l 2,8,9
 84 371 84 371 82 410 c 2,10,-1
 12 1315 l 1,11,12
 12 1389 12 1389 82 1389 c 2,0,-1
0 100 m 0,13,14
 0 152 0 152 37 188 c 0,15,16
 72 223 72 223 123 223 c 256,17,18
 174 223 174 223 211 187.5 c 128,-1,19
 248 152 248 152 248 100 c 0,20,21
 248 49 248 49 211 14 c 0,22,23
 174 -23 174 -23 123 -23 c 256,24,25
 72 -23 72 -23 37 14 c 0,26,27
 0 49 0 49 0 100 c 0,13,14
EndSplineSet
EndChar

StartChar: quotedbl
Encoding: 34 34 5
Width: 866
Flags: W
LayerCount: 2
Fore
SplineSet
0 1194 m 1,0,1
 29 1242 29 1242 84 1315.5 c 128,-1,2
 139 1389 139 1389 172 1397 c 1,3,-1
 176 1397 l 2,4,5
 201 1397 201 1397 287 1330 c 1,6,7
 367 1262 367 1262 367 1227 c 0,8,9
 367 1223 367 1223 365 1219 c 0,10,11
 297 1147 297 1147 189 1035 c 0,12,13
 78 922 78 922 51 908 c 0,14,15
 39 904 39 904 29 904 c 0,16,17
 17 904 17 904 10 912 c 0,18,19
 2 920 2 920 2 928 c 0,20,21
 2 934 2 934 6 942 c 2,22,-1
 121 1061 l 1,23,24
 123 1069 123 1069 123 1076 c 0,25,26
 123 1090 123 1090 115 1100 c 0,27,28
 103 1112 103 1112 70 1133 c 0,29,30
 35 1151 35 1151 23 1162 c 0,31,32
 8 1172 8 1172 0 1194 c 1,0,1
399 1194 m 1,33,34
 428 1242 428 1242 483 1315.5 c 128,-1,35
 538 1389 538 1389 571 1397 c 1,36,-1
 575 1397 l 2,37,38
 600 1397 600 1397 686 1330 c 1,39,40
 766 1262 766 1262 766 1227 c 0,41,42
 766 1223 766 1223 764 1219 c 0,43,44
 696 1147 696 1147 588 1035 c 0,45,46
 477 922 477 922 450 908 c 0,47,48
 438 904 438 904 428 904 c 0,49,50
 416 904 416 904 409 912 c 0,51,52
 401 920 401 920 401 928 c 0,53,54
 401 934 401 934 405 942 c 2,55,-1
 520 1061 l 1,56,57
 522 1069 522 1069 522 1076 c 0,58,59
 522 1090 522 1090 514 1100 c 0,60,61
 502 1112 502 1112 469 1133 c 0,62,63
 434 1151 434 1151 422 1162 c 0,64,65
 407 1172 407 1172 399 1194 c 1,33,34
EndSplineSet
EndChar

StartChar: numbersign
Encoding: 35 35 6
Width: 1006
Flags: W
LayerCount: 2
Fore
SplineSet
695 1048 m 1,0,-1
 822 1048 l 1,1,-1
 898 1050 l 1,2,3
 898 1040 898 1040 900 1009 c 2,4,-1
 900 962 l 1,5,6
 890 906 890 906 820 870 c 1,7,-1
 806 880 l 2,8,9
 781 899 781 899 753 899 c 2,10,-1
 694 899 l 1,11,-1
 693 728 l 1,12,-1
 828 728 l 1,13,-1
 904 730 l 1,14,15
 904 720 904 720 906 689 c 2,16,-1
 906 642 l 1,17,18
 896 586 896 586 826 550 c 1,19,-1
 812 560 l 2,20,21
 787 579 787 579 759 579 c 2,22,-1
 692 579 l 1,23,-1
 691 345 l 1,24,25
 785 385 785 385 804 385 c 0,26,27
 837 381 837 381 837 364 c 0,28,29
 837 352 837 352 806 333 c 0,30,31
 681 259 681 259 497 232 c 1,32,33
 490 237 490 237 488 328 c 1,34,35
 365 258 365 258 187 232 c 1,36,37
 176 240 176 240 176 466 c 2,38,-1
 176 573 l 1,39,-1
 27 580 l 1,40,41
 12 607 12 607 0 709 c 1,42,43
 90 709 90 709 177 712 c 1,44,45
 177 796 177 796 178 892 c 1,46,-1
 21 900 l 1,47,48
 6 927 6 927 -6 1029 c 1,49,50
 88 1029 88 1029 179 1032 c 1,51,52
 180 1066 180 1066 180 1101 c 0,53,54
 180 1137 180 1137 82 1208 c 0,55,56
 60 1225 60 1225 60 1236 c 1,57,58
 92 1253 92 1253 203 1281 c 0,59,60
 316 1311 316 1311 354 1311 c 0,61,62
 377 1311 377 1311 377 1300 c 0,63,64
 380 1283 380 1283 382 1242 c 1,65,66
 420 1257 420 1257 513 1281 c 0,67,68
 626 1311 626 1311 664 1311 c 0,69,70
 687 1311 687 1311 687 1300 c 0,71,72
 695 1258 695 1258 695 1076 c 2,73,-1
 695 1048 l 1,0,-1
486 579 m 1,74,75
 453 578 453 578 382 576 c 1,76,-1
 381 345 l 1,77,78
 461 379 461 379 486 384 c 1,79,-1
 486 579 l 1,74,75
385 1045 m 1,80,81
 412 1047 412 1047 439 1050 c 0,82,83
 453 1049 453 1049 489 1049 c 1,84,85
 490 1074 490 1074 490 1101 c 0,86,87
 490 1137 490 1137 392 1208 c 0,88,89
 387 1212 387 1212 383 1215 c 1,90,91
 385 1161 385 1161 385 1076 c 2,92,-1
 385 1045 l 1,80,81
488 899 m 1,93,94
 458 899 458 899 384 896 c 1,95,-1
 383 724 l 1,96,97
 414 727 414 727 445 730 c 0,98,99
 457 730 457 730 487 729 c 1,100,101
 487 809 487 809 488 899 c 1,93,94
EndSplineSet
EndChar

StartChar: dollar
Encoding: 36 36 7
Width: 1126
Flags: W
LayerCount: 2
Fore
SplineSet
533 1372 m 0,0,1
 547 1381 547 1381 547 1403 c 0,2,3
 547 1411 547 1411 545 1419.5 c 128,-1,4
 543 1428 543 1428 543 1436 c 0,5,6
 543 1454 543 1454 555 1458 c 0,7,8
 574 1465 574 1465 584 1465 c 0,9,10
 592 1465 592 1465 594 1460 c 0,11,12
 598 1456 598 1456 598 1442 c 0,13,14
 598 1434 598 1434 596 1421.5 c 128,-1,15
 594 1409 594 1409 594 1399 c 0,16,17
 594 1385 594 1385 598 1374 c 0,18,19
 602 1362 602 1362 629 1352 c 256,20,21
 656 1342 656 1342 703 1333 c 0,22,23
 748 1323 748 1323 799 1311 c 0,24,25
 848 1299 848 1299 871 1284 c 1,26,27
 889 1323 889 1323 920 1364 c 0,28,29
 932 1381 932 1381 942 1381 c 0,30,31
 955 1381 955 1381 959 1348 c 1,32,33
 946 1311 946 1311 930 1258 c 0,34,35
 912 1204 912 1204 908 1184 c 0,36,37
 895 1143 895 1143 891 1110 c 128,-1,38
 887 1077 887 1077 885 1069 c 128,-1,39
 883 1061 883 1061 871 1055 c 1,40,-1
 869 1055 l 2,41,42
 852 1055 852 1055 781 1104 c 0,43,44
 701 1155 701 1155 652 1182 c 0,45,46
 627 1194 627 1194 613 1194 c 0,47,48
 598 1194 598 1194 594 1180 c 0,49,50
 592 1104 592 1104 592 991 c 0,51,52
 592 879 592 879 609 865 c 0,53,54
 627 850 627 850 670 850 c 0,55,56
 693 850 693 850 719 854 c 0,57,58
 787 862 787 862 832 862 c 2,59,-1
 850 862 l 1,60,61
 897 858 897 858 951 813 c 0,62,63
 1014 758 1014 758 1024 666 c 0,64,65
 1026 643 1026 643 1026 615 c 0,66,67
 1026 531 1026 531 1008 404 c 1,68,69
 981 342 981 342 913.5 235.5 c 128,-1,70
 846 129 846 129 764 86 c 0,71,72
 697 49 697 49 647 39 c 0,73,74
 598 27 598 27 590 25 c 0,75,76
 576 17 576 17 576 -157 c 0,77,78
 576 -325 576 -325 547 -325 c 2,79,-1
 543 -325 l 1,80,81
 520 -319 520 -319 518 -260 c 0,82,83
 516 -221 516 -221 516 -164 c 2,84,-1
 516 -100 l 2,85,86
 516 2 516 2 510 15 c 0,87,88
 510 23 510 23 330 86 c 0,89,90
 178 137 178 137 131 137 c 0,91,92
 121 137 121 137 115 135 c 0,93,94
 109 135 109 135 94 105 c 0,95,96
 76 70 76 70 45 -49 c 1,97,98
 2 -43 2 -43 0 -8 c 2,99,-1
 0 2 l 2,100,101
 0 35 0 35 23 86 c 0,102,103
 47 144 47 144 47 146 c 0,104,105
 103 353 103 353 123 361 c 0,106,107
 129 365 129 365 135 365 c 0,108,109
 140 365 140 365 144 363 c 0,110,111
 152 357 152 357 158 348 c 0,112,113
 164 338 164 338 176 326 c 0,114,115
 189 312 189 312 199 303 c 0,116,117
 273 256 273 256 389 193 c 0,118,119
 477 144 477 144 506 144 c 0,120,121
 516 144 516 144 518 148 c 0,122,123
 523 260 523 260 525 436 c 0,124,125
 525 613 525 613 512 625 c 1,126,127
 500 643 500 643 471 643 c 0,128,129
 463 643 463 643 453 641 c 0,130,131
 408 633 408 633 348 627 c 0,132,133
 334 625 334 625 322 625 c 0,134,135
 275 625 275 625 234 647 c 0,136,137
 178 676 178 676 131 764 c 0,138,139
 101 826 101 826 101 918 c 0,140,141
 101 965 101 965 109 1020 c 0,142,143
 133 1182 133 1182 246 1260 c 0,144,145
 318 1309 318 1309 363 1325 c 0,146,147
 406 1340 406 1340 459 1350 c 0,148,149
 512 1358 512 1358 533 1372 c 0,0,1
373 1250 m 0,150,151
 289 1235 289 1235 260 1135 c 0,152,153
 248 1094 248 1094 248 1055 c 0,154,155
 248 998 248 998 275 942 c 0,156,157
 318 850 318 850 418 850 c 1,158,159
 447 844 447 844 467 844 c 0,160,161
 498 844 498 844 512 856 c 0,162,163
 535 875 535 875 535 942 c 0,164,165
 535 1008 535 1008 533 1080 c 0,166,167
 535 1133 535 1133 535 1170 c 256,168,169
 535 1207 535 1207 527 1221 c 0,170,171
 518 1241 518 1241 453 1247 c 0,172,173
 414 1252 414 1252 393 1252 c 0,174,175
 379 1252 379 1252 373 1250 c 0,150,151
649 660 m 0,176,177
 602 649 602 649 592 631 c 0,178,179
 582 615 582 615 582 563 c 2,180,-1
 582 545 l 2,181,182
 584 477 584 477 586 400 c 2,183,-1
 586 150 l 1,184,185
 604 119 604 119 643 119 c 0,186,187
 652 119 652 119 662 121 c 0,188,189
 715 129 715 129 764 166 c 0,190,191
 817 207 817 207 844 340 c 0,192,193
 862 430 862 430 862 479 c 0,194,195
 862 502 862 502 858 516 c 0,196,197
 813 664 813 664 688 664 c 0,198,199
 670 664 670 664 649 660 c 0,176,177
EndSplineSet
EndChar

StartChar: percent
Encoding: 37 37 8
Width: 1251
Flags: W
LayerCount: 2
Fore
SplineSet
224 1147 m 256,0,1
 212 1108 212 1108 212 1062 c 0,2,3
 212 961 212 961 253.5 876 c 128,-1,4
 295 791 295 791 352 791 c 0,5,6
 374 791 374 791 398 807 c 0,7,8
 421 819 421 819 444 832 c 1,9,10
 463 849 463 849 469 883 c 128,-1,11
 475 917 475 917 475 934 c 0,12,13
 475 1027 475 1027 434 1135 c 128,-1,14
 393 1243 393 1243 316 1243 c 0,15,16
 305 1243 305 1243 291 1239 c 1,17,18
 275 1227 275 1227 255.5 1206.5 c 128,-1,19
 236 1186 236 1186 224 1147 c 256,0,1
751 511 m 256,20,21
 739 472 739 472 739 426 c 0,22,23
 739 325 739 325 780.5 240 c 128,-1,24
 822 155 822 155 879 155 c 0,25,26
 901 155 901 155 925 171 c 0,27,28
 948 183 948 183 971 196 c 1,29,30
 990 213 990 213 996 247 c 128,-1,31
 1002 281 1002 281 1002 298 c 0,32,33
 1002 391 1002 391 961 499 c 128,-1,34
 920 607 920 607 843 607 c 0,35,36
 832 607 832 607 818 603 c 1,37,38
 802 591 802 591 782.5 570.5 c 128,-1,39
 763 550 763 550 751 511 c 256,20,21
540 775 m 1,40,41
 473 701 473 701 361 685 c 1,42,43
 176 685 176 685 116 781.5 c 128,-1,44
 56 878 56 878 56 1049 c 0,45,46
 56 1164 56 1164 135 1245.5 c 128,-1,47
 214 1327 214 1327 336 1345 c 0,48,49
 348 1347 348 1347 371 1347 c 0,50,51
 450 1347 450 1347 517 1299 c 128,-1,52
 584 1251 584 1251 604 1180.5 c 128,-1,53
 624 1110 624 1110 624 1022 c 0,54,55
 624 947 624 947 604 886 c 1,56,57
 634 934 634 934 656 976 c 0,58,59
 713 1093 713 1093 746 1158 c 0,60,61
 879 1416 879 1416 978 1416 c 0,62,63
 984 1416 984 1416 999 1413 c 1,64,65
 1016 1403 1016 1403 1021 1397 c 0,66,67
 1041 1371 1041 1371 1089 1341 c 0,68,69
 1128 1315 1128 1315 1129 1314 c 0,70,71
 1144 1302 1144 1302 1144 1285 c 1,72,73
 1139 1271 1139 1271 1119 1271 c 2,74,-1
 1092 1271 l 2,75,76
 1020 1271 1020 1271 975 1200 c 1,77,78
 814 906 814 906 687 664 c 1,79,-1
 657 604 l 1,80,81
 659 607 659 607 662 610 c 0,82,83
 741 691 741 691 863 709 c 0,84,85
 875 711 875 711 898 711 c 0,86,87
 977 711 977 711 1044 663 c 128,-1,88
 1111 615 1111 615 1131 544.5 c 128,-1,89
 1151 474 1151 474 1151 386 c 0,90,91
 1151 247 1151 247 1082.5 157 c 128,-1,92
 1014 67 1014 67 888 49 c 1,93,94
 703 49 703 49 643 145.5 c 128,-1,95
 583 242 583 242 583 413 c 0,96,97
 583 467 583 467 601 514 c 1,98,99
 585 492 585 492 568 460 c 0,100,101
 546 409 546 409 523 361 c 0,102,103
 444 194 444 194 353 100 c 0,104,105
 314 59 314 59 237 22 c 0,106,107
 206 6 206 6 171 -7 c 1,108,109
 113 -7 113 -7 0 134 c 1,110,111
 0 146 0 146 17 146 c 0,112,113
 28 146 28 146 55 142 c 128,-1,114
 82 138 82 138 93 138 c 0,115,116
 138 148 138 148 215 228 c 0,117,118
 281 297 281 297 415 531 c 0,119,120
 520 716 520 716 540 775 c 1,40,41
EndSplineSet
EndChar

StartChar: ampersand
Encoding: 38 38 9
Width: 1626
Flags: W
LayerCount: 2
Fore
SplineSet
205 1131 m 2,0,1
 207 1211 207 1211 262 1274 c 0,2,3
 316 1338 316 1338 404 1377 c 0,4,5
 490 1415 490 1415 582 1426 c 0,6,7
 598 1428 598 1428 617 1428 c 0,8,9
 670 1428 670 1428 729 1413 c 0,10,11
 809 1395 809 1395 854 1352 c 0,12,13
 881 1323 881 1323 881 1288 c 0,14,15
 881 1268 881 1268 871 1245 c 0,16,17
 866 1231 866 1231 828 1186 c 0,18,19
 795 1145 795 1145 776 1145 c 0,20,21
 772 1145 772 1145 770 1147 c 0,22,23
 762 1166 762 1166 737 1204 c 0,24,25
 713 1243 713 1243 674 1286 c 0,26,27
 633 1329 633 1329 588 1340 c 0,28,29
 561 1346 561 1346 537 1346 c 0,30,31
 457 1346 457 1346 408 1272 c 0,32,33
 369 1213 369 1213 369 1149 c 0,34,35
 369 1110 369 1110 383 1071 c 0,36,37
 418 983 418 983 475 953 c 0,38,39
 533 920 533 920 647 891 c 0,40,41
 760 860 760 860 821 828 c 0,42,43
 832 824 832 824 899 711 c 0,44,45
 967 596 967 596 1014 533 c 0,46,47
 1055 475 1055 475 1077 475 c 0,48,49
 1082 475 1082 475 1084 477 c 0,50,51
 1118 494 1118 494 1147 551 c 0,52,53
 1174 606 1174 606 1256 797 c 0,54,55
 1303 908 1303 908 1383 922 c 0,56,57
 1393 924 1393 924 1403 924 c 0,58,59
 1469 924 1469 924 1522 848 c 0,60,61
 1526 844 1526 844 1526 834 c 0,62,63
 1526 813 1526 813 1512 764 c 0,64,65
 1489 690 1489 690 1467 688 c 2,66,-1
 1462 688 l 2,67,68
 1446 688 1446 688 1415 715 c 0,69,70
 1381 742 1381 742 1360 752 c 0,71,72
 1354 754 1354 754 1346 754 c 0,73,74
 1329 754 1329 754 1311 744 c 0,75,76
 1307 744 1307 744 1288 711 c 0,77,78
 1268 674 1268 674 1211 543 c 0,79,80
 1206 533 1206 533 1188 502 c 0,81,82
 1170 469 1170 469 1149 430 c 0,83,84
 1129 389 1129 389 1125 357 c 0,85,86
 1122 342 1122 342 1122 328 c 0,87,88
 1122 307 1122 307 1127 287 c 0,89,90
 1149 213 1149 213 1208 166 c 0,91,92
 1254 129 1254 129 1299 129 c 0,93,94
 1313 129 1313 129 1327 133 c 0,95,96
 1350 137 1350 137 1397 189 c 0,97,98
 1442 240 1442 240 1467 256 c 0,99,100
 1473 260 1473 260 1477 260 c 0,101,102
 1491 260 1491 260 1499 232 c 1,103,104
 1454 168 1454 168 1368 72 c 0,105,106
 1280 -24 1280 -24 1206 -24 c 0,107,108
 1129 -24 1129 -24 1077 19 c 0,109,110
 1026 60 1026 60 989 119 c 0,111,112
 952 176 952 176 948 176 c 2,113,-1
 944 176 l 2,114,115
 916 176 916 176 856 111 c 0,116,117
 793 41 793 41 705 -8 c 0,118,119
 610 -59 610 -59 514 -59 c 0,120,121
 494 -59 494 -59 473 -57 c 0,122,123
 352 -45 352 -45 270 -4 c 1,124,125
 0 148 0 148 0 494 c 0,126,127
 0 518 0 518 2 543 c 0,128,129
 6 606 6 606 45 674 c 128,-1,130
 84 742 84 742 154 793 c 0,131,132
 221 842 221 842 303 854 c 0,133,134
 309 856 309 856 309 860 c 0,135,136
 309 862 309 862 305 869 c 0,137,138
 293 879 293 879 264 914 c 0,139,140
 236 948 236 948 219 1000 c 0,141,142
 205 1043 205 1043 205 1114 c 2,143,-1
 205 1131 l 2,0,1
371 809 m 0,144,145
 338 803 338 803 276.5 737.5 c 128,-1,146
 215 672 215 672 195 561 c 0,147,148
 189 535 189 535 189 508 c 0,149,150
 189 418 189 418 248 314 c 0,151,152
 309 209 309 209 371 160 c 0,153,154
 432 109 432 109 494 94 c 0,155,156
 535 84 535 84 576 84 c 0,157,158
 594 84 594 84 613 86 c 0,159,160
 670 90 670 90 715 97 c 0,161,162
 776 105 776 105 832 162 c 0,163,164
 887 217 887 217 912 252 c 1,165,166
 912 273 912 273 877 332 c 0,167,168
 842 389 842 389 832 422 c 0,169,170
 799 531 799 531 719 625 c 0,171,172
 639 717 639 717 543 768 c 0,173,174
 461 811 461 811 395 811 c 0,175,176
 383 811 383 811 371 809 c 0,144,145
EndSplineSet
EndChar

StartChar: quotesingle
Encoding: 39 39 10
Width: 467
Flags: W
LayerCount: 2
Fore
SplineSet
0 1194 m 1,0,1
 29 1242 29 1242 84 1315.5 c 128,-1,2
 139 1389 139 1389 172 1397 c 1,3,-1
 176 1397 l 2,4,5
 201 1397 201 1397 287 1330 c 1,6,7
 367 1262 367 1262 367 1227 c 0,8,9
 367 1223 367 1223 365 1219 c 0,10,11
 297 1147 297 1147 189 1035 c 0,12,13
 78 922 78 922 51 908 c 0,14,15
 39 904 39 904 29 904 c 0,16,17
 17 904 17 904 10 912 c 0,18,19
 2 920 2 920 2 928 c 0,20,21
 2 934 2 934 6 942 c 2,22,-1
 121 1061 l 1,23,24
 123 1069 123 1069 123 1076 c 0,25,26
 123 1090 123 1090 115 1100 c 0,27,28
 103 1112 103 1112 70 1133 c 0,29,30
 35 1151 35 1151 23 1162 c 0,31,32
 8 1172 8 1172 0 1194 c 1,0,1
EndSplineSet
EndChar

StartChar: parenleft
Encoding: 40 40 11
Width: 641
Flags: W
LayerCount: 2
Fore
SplineSet
473 1545 m 0,0,1
 489 1550 489 1550 496 1550 c 0,2,3
 532 1550 532 1550 532 1506 c 0,4,5
 532 1495 532 1495 530 1482 c 1,6,7
 408 1357 408 1357 314.5 1142 c 128,-1,8
 221 927 221 927 221 665 c 0,9,10
 221 469 221 469 325.5 287 c 128,-1,11
 430 105 430 105 541 -77 c 1,12,13
 541 -109 541 -109 508 -109 c 0,14,15
 442 -109 442 -109 318.5 3.5 c 128,-1,16
 195 116 195 116 97.5 295 c 128,-1,17
 0 474 0 474 0 671 c 0,18,19
 0 1007 0 1007 142.5 1244.5 c 128,-1,20
 285 1482 285 1482 473 1545 c 0,0,1
EndSplineSet
EndChar

StartChar: parenright
Encoding: 41 41 12
Width: 641
Flags: W
LayerCount: 2
Fore
SplineSet
398.5 1244.5 m 128,-1,1
 541 1007 541 1007 541 671 c 0,2,3
 541 474 541 474 443.5 295 c 128,-1,4
 346 116 346 116 222.5 3.5 c 128,-1,5
 99 -109 99 -109 33 -109 c 0,6,7
 0 -109 0 -109 0 -77 c 1,8,9
 111 105 111 105 215.5 287 c 128,-1,10
 320 469 320 469 320 665 c 0,11,12
 320 927 320 927 226.5 1142 c 128,-1,13
 133 1357 133 1357 11 1482 c 1,14,15
 9 1495 9 1495 9 1506 c 0,16,17
 9 1550 9 1550 45 1550 c 0,18,19
 52 1550 52 1550 68 1545 c 0,20,0
 256 1482 256 1482 398.5 1244.5 c 128,-1,1
EndSplineSet
EndChar

StartChar: asterisk
Encoding: 42 42 13
Width: 1153
Flags: W
LayerCount: 2
Fore
SplineSet
414 1136 m 1,0,1
 409 1221 409 1221 394 1254 c 0,2,3
 373 1300 373 1300 289 1346 c 0,4,5
 250 1368 250 1368 250 1399 c 0,6,7
 250 1414 250 1414 261 1434 c 1,8,9
 386 1474 386 1474 572 1525 c 1,10,11
 627 1525 627 1525 627 1447 c 0,12,13
 627 1431 627 1431 625 1401 c 128,-1,14
 623 1371 623 1371 623 1358 c 2,15,-1
 623 1117 l 1,16,17
 710 1150 710 1150 737 1176 c 0,18,19
 774 1210 774 1210 792 1304 c 0,20,21
 801 1348 801 1348 831 1357 c 0,22,23
 839 1360 839 1360 849 1360 c 0,24,25
 857 1360 857 1360 867 1358 c 1,26,27
 944 1251 944 1251 1050 1090 c 0,28,29
 1053 1080 1053 1080 1053 1071 c 0,30,31
 1053 1034 1053 1034 993 1014 c 0,32,33
 978 1009 978 1009 948.5 1001.5 c 128,-1,34
 919 994 919 994 907 990 c 2,35,-1
 673 914 l 1,36,37
 728 848 728 848 759 830 c 0,38,39
 789 813 789 813 842 813 c 0,40,41
 867 813 867 813 898 817 c 0,42,43
 905 818 905 818 912 818 c 0,44,45
 945 818 945 818 960 797 c 0,46,47
 969 785 969 785 972 762 c 1,48,49
 895 657 895 657 774 506 c 1,50,51
 759 495 759 495 744 495 c 0,52,53
 715 495 715 495 684 537 c 0,54,55
 674 550 674 550 658 575.5 c 128,-1,56
 642 601 642 601 635 611 c 2,57,-1
 498 800 l 1,58,59
 450 725 450 725 442 689 c 0,60,61
 440 679 440 679 440 668 c 0,62,63
 440 622 440 622 473 552 c 0,64,65
 483 531 483 531 483 515 c 256,66,67
 483 499 483 499 474 487 c 0,68,69
 465 474 465 474 444 465 c 1,70,71
 319 506 319 506 139 574 c 1,72,73
 117 590 117 590 117 613 c 0,74,75
 117 637 117 637 140 669 c 0,76,77
 150 682 150 682 169 705.5 c 128,-1,78
 188 729 188 729 196 739 c 2,79,-1
 341 940 l 1,80,81
 263 962 263 962 224 962 c 0,82,83
 217 962 217 962 212 961 c 0,84,85
 162 955 162 955 92 890 c 0,86,87
 67 867 67 867 44 867 c 0,88,89
 37 867 37 867 30 869 c 0,90,91
 16 873 16 873 0 890 c 1,92,93
 1 1021 1 1021 10 1214 c 1,94,95
 22 1250 22 1250 60 1250 c 0,96,97
 78 1250 78 1250 101 1242 c 0,98,99
 116 1237 116 1237 144 1226 c 128,-1,100
 172 1215 172 1215 184 1211 c 2,101,-1
 414 1136 l 1,0,1
EndSplineSet
EndChar

StartChar: plus
Encoding: 43 43 14
Width: 1011
Flags: W
LayerCount: 2
Fore
SplineSet
566 900 m 1,0,1
 662 899 662 899 833 899 c 1,2,-1
 909 901 l 1,3,4
 909 891 909 891 911 860 c 2,5,-1
 911 813 l 1,6,7
 901 757 901 757 831 721 c 1,8,-1
 817 731 l 2,9,10
 792 750 792 750 764 750 c 2,11,-1
 566 750 l 1,12,-1
 566 443 l 1,13,14
 589 448 589 448 632 482 c 0,15,16
 673 511 673 511 687 511 c 0,17,18
 697 511 697 511 703 504 c 0,19,20
 720 492 720 492 720 471 c 0,21,22
 720 443 720 443 679 410 c 0,23,24
 658 395 658 395 630 376 c 1,25,26
 570 320 570 320 441 226 c 0,27,28
 408 200 408 200 398 200 c 0,29,30
 380 200 380 200 365 226 c 0,31,32
 359 241 359 241 359 746 c 1,33,34
 305 744 305 744 233 741 c 1,35,-1
 32 751 l 1,36,37
 17 778 17 778 5 880 c 1,38,39
 188 880 188 880 359 893 c 1,40,41
 357 1032 357 1032 337 1076 c 0,42,43
 316 1122 316 1122 232 1168 c 0,44,45
 193 1190 193 1190 193 1221 c 0,46,47
 193 1236 193 1236 204 1256 c 1,48,49
 329 1296 329 1296 515 1347 c 1,50,51
 570 1347 570 1347 570 1269 c 0,52,53
 570 1253 570 1253 568 1223 c 128,-1,54
 566 1193 566 1193 566 1180 c 2,55,-1
 566 900 l 1,0,1
EndSplineSet
EndChar

StartChar: comma
Encoding: 44 44 15
Width: 467
Flags: W
LayerCount: 2
Fore
SplineSet
0 49 m 1,0,1
 29 97 29 97 84 170.5 c 128,-1,2
 139 244 139 244 172 252 c 1,3,-1
 176 252 l 2,4,5
 201 252 201 252 287 185 c 1,6,7
 367 117 367 117 367 82 c 0,8,9
 367 78 367 78 365 74 c 0,10,11
 297 2 297 2 189 -110 c 0,12,13
 78 -223 78 -223 51 -237 c 0,14,15
 39 -241 39 -241 29 -241 c 0,16,17
 17 -241 17 -241 10 -233 c 0,18,19
 2 -225 2 -225 2 -217 c 0,20,21
 2 -211 2 -211 6 -203 c 2,22,-1
 121 -84 l 1,23,24
 123 -76 123 -76 123 -69 c 0,25,26
 123 -55 123 -55 115 -45 c 0,27,28
 103 -33 103 -33 70 -12 c 0,29,30
 35 6 35 6 23 17 c 0,31,32
 8 27 8 27 0 49 c 1,0,1
EndSplineSet
EndChar

StartChar: hyphen
Encoding: 45 45 16
AltUni2: 0000ad.ffffffff.0
Width: 1011
Flags: W
LayerCount: 2
Fore
SplineSet
909 901 m 1,0,1
 909 891 909 891 911 860 c 2,2,-1
 911 813 l 1,3,4
 901 757 901 757 831 721 c 1,5,-1
 817 731 l 2,6,7
 792 750 792 750 764 750 c 2,8,-1
 508 750 l 2,9,10
 461 750 461 750 233 741 c 1,11,-1
 32 751 l 1,12,13
 17 778 17 778 5 880 c 1,14,15
 237 880 237 880 450 901 c 1,16,17
 498 899 498 899 833 899 c 1,18,-1
 909 901 l 1,0,1
EndSplineSet
EndChar

StartChar: period
Encoding: 46 46 17
Width: 463
Flags: W
LayerCount: 2
Fore
SplineSet
0 121 m 1,0,-1
 168 271 l 1,1,2
 219 242 219 242 295 193 c 0,3,4
 363 146 363 146 363 115 c 2,5,-1
 363 111 l 2,6,7
 363 107 363 107 201 -28 c 1,8,9
 174 -28 174 -28 88 41 c 0,10,11
 0 111 0 111 0 121 c 1,0,-1
EndSplineSet
EndChar

StartChar: slash
Encoding: 47 47 18
Width: 1244
Flags: W
LayerCount: 2
Fore
SplineSet
0 134 m 1,1,2
 0 146 0 146 17 146 c 0,3,4
 28 146 28 146 55 142 c 128,-1,5
 82 138 82 138 93 138 c 0,6,7
 138 148 138 148 215 228 c 0,8,9
 281 297 281 297 415 531 c 0,10,11
 545 761 545 761 545 795 c 1,12,13
 614 897 614 897 656 976 c 0,14,15
 713 1093 713 1093 746 1158 c 0,16,17
 879 1416 879 1416 978 1416 c 0,18,19
 984 1416 984 1416 999 1413 c 1,20,21
 1016 1403 1016 1403 1021 1397 c 0,22,23
 1041 1371 1041 1371 1089 1341 c 0,24,25
 1128 1315 1128 1315 1129 1314 c 0,26,27
 1144 1302 1144 1302 1144 1285 c 1,28,29
 1139 1271 1139 1271 1119 1271 c 2,30,-1
 1092 1271 l 2,31,32
 1020 1271 1020 1271 975 1200 c 1,33,34
 814 906 814 906 687 664 c 1,35,-1
 630 551 l 1,36,37
 603 524 603 524 568 460 c 1,38,39
 546 409 546 409 523 361 c 0,40,41
 444 194 444 194 353 100 c 0,42,43
 314 59 314 59 237 22 c 0,44,45
 206 6 206 6 171 -7 c 1,46,0
 113 -7 113 -7 0 134 c 1,1,2
EndSplineSet
Substitution2: "'frac' Diagonal Fractions in Latin lookup 0 subtable" fraction
EndChar

StartChar: zero
Encoding: 48 48 19
Width: 921
Flags: W
LayerCount: 2
Fore
SplineSet
172 618 m 2,0,1
 172 324 172 324 260 160 c 0,2,3
 322 45 322 45 418 45 c 0,4,5
 649 45 649 45 649 524 c 0,6,7
 649 735 649 735 612 881 c 0,8,9
 549 1120 549 1120 397 1120 c 0,10,11
 172 1120 172 1120 172 657 c 2,12,-1
 172 618 l 2,0,1
0 551 m 0,13,14
 0 774 0 774 94 963 c 0,15,16
 211 1196 211 1196 414 1196 c 0,17,18
 614 1196 614 1196 727 997 c 0,19,20
 821 834 821 834 821 616 c 0,21,22
 821 391 821 391 727 209 c 0,23,24
 612 -20 612 -20 408 -20 c 0,25,26
 213 -20 213 -20 98 176 c 0,27,28
 0 344 0 344 0 551 c 0,13,14
EndSplineSet
EndChar

StartChar: one
Encoding: 49 49 20
Width: 610
Flags: W
LayerCount: 2
Fore
SplineSet
344 1196 m 1,0,-1
 344 238 l 2,1,2
 344 66 344 66 485 66 c 2,3,-1
 510 66 l 1,4,-1
 510 0 l 1,5,-1
 0 0 l 1,6,-1
 0 66 l 1,7,-1
 33 66 l 2,8,9
 176 66 176 66 176 238 c 2,10,-1
 176 866 l 2,11,12
 176 1040 176 1040 55 1040 c 2,13,-1
 4 1040 l 1,14,-1
 4 1104 l 1,15,-1
 22 1104 l 2,16,17
 172 1104 172 1104 293 1196 c 1,18,-1
 344 1196 l 1,0,-1
EndSplineSet
EndChar

StartChar: two
Encoding: 50 50 21
Width: 919
Flags: W
LayerCount: 2
Fore
SplineSet
819 303 m 1,0,-1
 731 6 l 1,1,-1
 0 6 l 1,2,-1
 0 70 l 1,3,4
 53 129 53 129 233 309 c 0,5,6
 342 418 342 418 448 539 c 0,7,8
 502 598 502 598 530 641 c 0,9,10
 594 733 594 733 594 829 c 0,11,12
 594 924 594 924 536 995 c 0,13,14
 477 1067 477 1067 385 1067 c 0,15,16
 186 1067 186 1067 74 799 c 1,17,-1
 8 823 l 1,18,19
 141 1200 141 1200 428 1200 c 0,20,21
 569 1200 569 1200 670 1104 c 0,22,23
 768 1008 768 1008 768 866 c 0,24,25
 768 686 768 686 561 514 c 2,26,-1
 418 395 l 2,27,28
 280 281 280 281 190 180 c 0,29,30
 184 174 184 174 166 152 c 1,31,-1
 547 152 l 2,32,33
 635 152 635 152 680 186 c 0,34,35
 719 217 719 217 756 303 c 1,36,-1
 819 303 l 1,0,-1
EndSplineSet
EndChar

StartChar: three
Encoding: 51 51 22
Width: 901
Flags: W
LayerCount: 2
Fore
SplineSet
242 549 m 1,0,-1
 211 606 l 1,1,-1
 232 618 l 2,2,3
 351 690 351 690 449 764 c 128,-1,4
 547 838 547 838 547 932 c 0,5,6
 547 995 547 995 500 1038 c 128,-1,7
 453 1081 453 1081 389 1081 c 0,8,9
 242 1081 242 1081 78 899 c 1,10,-1
 27 938 l 1,11,12
 197 1196 197 1196 443 1196 c 0,13,14
 551 1196 551 1196 627 1143 c 0,15,16
 713 1083 713 1083 713 981 c 0,17,18
 713 907 713 907 652 838 c 0,19,20
 617 797 617 797 529 731 c 2,21,-1
 504 713 l 1,22,23
 521 715 521 715 543 715 c 0,24,25
 656 715 656 715 728.5 629 c 128,-1,26
 801 543 801 543 801 428 c 0,27,28
 801 233 801 233 637 102 c 0,29,30
 486 -20 486 -20 287 -20 c 0,31,32
 105 -20 105 -20 0 59 c 1,33,-1
 37 111 l 1,34,35
 160 51 160 51 260 51 c 0,36,37
 406 51 406 51 521 147 c 0,38,39
 633 244 633 244 633 387 c 0,40,41
 633 481 633 481 576 549 c 0,42,43
 519 614 519 614 426 614 c 0,44,45
 342 614 342 614 242 549 c 1,0,-1
EndSplineSet
EndChar

StartChar: four
Encoding: 52 52 23
Width: 948
Flags: W
LayerCount: 2
Fore
SplineSet
490 424 m 1,0,-1
 490 1040 l 1,1,-1
 74 424 l 1,2,-1
 490 424 l 1,0,-1
664 338 m 1,3,-1
 664 238 l 2,4,5
 664 66 664 66 784 66 c 2,6,-1
 819 66 l 1,7,-1
 819 0 l 1,8,-1
 332 0 l 1,9,-1
 332 66 l 1,10,-1
 371 66 l 2,11,12
 490 66 490 66 490 236 c 2,13,-1
 490 338 l 1,14,-1
 0 338 l 1,15,-1
 0 440 l 1,16,-1
 516 1194 l 1,17,-1
 664 1194 l 1,18,-1
 664 424 l 1,19,-1
 676 424 l 2,20,21
 752 424 752 424 787 541 c 1,22,-1
 848 541 l 1,23,-1
 819 338 l 1,24,-1
 664 338 l 1,3,-1
EndSplineSet
EndChar

StartChar: five
Encoding: 53 53 24
Width: 856
Flags: W
LayerCount: 2
Fore
SplineSet
147 1174 m 1,0,-1
 590 1174 l 2,1,2
 676 1174 676 1174 692 1194 c 1,3,-1
 756 1194 l 1,4,-1
 719 1028 l 1,5,-1
 180 1028 l 1,6,-1
 127 788 l 1,7,8
 244 836 244 836 334 836 c 0,9,10
 510 836 510 836 631 719 c 0,11,12
 752 600 752 600 752 424 c 0,13,14
 752 219 752 219 594 94 c 0,15,16
 449 -20 449 -20 240 -20 c 0,17,18
 117 -20 117 -20 0 16 c 1,19,-1
 25 78 l 1,20,21
 123 51 123 51 199 51 c 0,22,23
 350 51 350 51 465 152 c 0,24,25
 578 250 578 250 578 399 c 0,26,27
 578 528 578 528 494 612 c 0,28,29
 410 694 410 694 281 694 c 0,30,31
 162 694 162 694 59 612 c 1,32,-1
 18 621 l 1,33,-1
 147 1174 l 1,0,-1
EndSplineSet
EndChar

StartChar: six
Encoding: 54 54 25
Width: 884
Flags: W
LayerCount: 2
Fore
SplineSet
176 539 m 1,0,1
 174 502 174 502 174 465 c 0,2,3
 174 324 174 324 223 203 c 0,4,5
 287 45 287 45 410 45 c 0,6,7
 516 45 516 45 569 154 c 0,8,9
 610 238 610 238 610 356 c 0,10,11
 610 483 610 483 571 573 c 0,12,13
 518 696 518 696 408 696 c 0,14,15
 272 696 272 696 176 539 c 1,0,1
188 662 m 1,16,17
 324 788 324 788 461 788 c 0,18,19
 610 788 610 788 700 670 c 0,20,21
 784 561 784 561 784 408 c 0,22,23
 784 240 784 240 686 113 c 0,24,25
 578 -27 578 -27 416 -27 c 0,26,27
 221 -27 221 -27 104 141 c 0,28,29
 0 289 0 289 0 492 c 0,30,31
 0 707 0 707 119 889 c 0,32,33
 238 1069 238 1069 436 1145 c 0,34,35
 549 1188 549 1188 674 1188 c 1,36,-1
 674 1124 l 1,37,38
 408 1110 408 1110 276 911 c 0,39,40
 209 809 209 809 188 662 c 1,16,17
EndSplineSet
EndChar

StartChar: seven
Encoding: 55 55 26
Width: 884
Flags: W
LayerCount: 2
Fore
SplineSet
444 0 m 1,0,-1
 270 0 l 1,1,-1
 270 18 l 2,2,3
 270 184 270 184 375 434 c 0,4,5
 532 811 532 811 666 1012 c 2,6,-1
 678 1030 l 1,7,-1
 270 1030 l 2,8,9
 182 1030 182 1030 137 993 c 0,10,11
 90 956 90 956 68 870 c 1,12,-1
 0 870 l 1,13,-1
 74 1196 l 1,14,-1
 117 1196 l 1,15,16
 156 1176 156 1176 252 1176 c 2,17,-1
 784 1176 l 1,18,-1
 784 1083 l 1,19,20
 756 1042 756 1042 711 952 c 0,21,22
 625 784 625 784 553 561 c 0,23,24
 446 231 446 231 444 0 c 1,0,-1
EndSplineSet
EndChar

StartChar: eight
Encoding: 56 56 27
Width: 885
Flags: W
LayerCount: 2
Fore
SplineSet
324 567 m 1,0,1
 140 483 140 483 140 303 c 0,2,3
 140 186 140 186 215 117 c 0,4,5
 289 45 289 45 406 45 c 0,6,7
 510 45 510 45 584 102 c 0,8,9
 656 158 656 158 656 258 c 0,10,11
 656 410 656 410 457 504 c 2,12,-1
 324 567 l 1,0,1
461 688 m 1,13,14
 623 760 623 760 623 903 c 0,15,16
 623 1001 623 1001 554.5 1060.5 c 128,-1,17
 486 1120 486 1120 385 1120 c 0,18,19
 301 1120 301 1120 240 1075 c 0,20,21
 172 1026 172 1026 172 944 c 0,22,23
 172 844 172 844 267 782 c 0,24,25
 285 770 285 770 430 702 c 2,26,-1
 461 688 l 1,13,14
254 596 m 1,27,-1
 228 614 l 2,28,29
 111 694 111 694 74 743 c 0,30,31
 27 805 27 805 27 887 c 0,32,33
 27 1026 27 1026 144 1114 c 0,34,35
 252 1196 252 1196 396 1196 c 0,36,37
 531 1196 531 1196 635 1124 c 0,38,39
 754 1044 754 1044 754 913 c 0,40,41
 754 754 754 754 531 655 c 1,42,43
 785 532 785 532 785 313 c 0,44,45
 785 156 785 156 664 63 c 0,46,47
 555 -20 555 -20 392 -20 c 0,48,49
 238 -20 238 -20 127 57 c 0,50,51
 0 145 0 145 0 291 c 0,52,53
 0 436 0 436 136 530 c 0,54,55
 172 555 172 555 254 596 c 1,27,-1
EndSplineSet
EndChar

StartChar: nine
Encoding: 57 57 28
Width: 884
Flags: W
LayerCount: 2
Fore
SplineSet
608 627 m 1,0,1
 610 666 610 666 610 700 c 0,2,3
 610 844 610 844 561 963 c 0,4,5
 496 1120 496 1120 373 1120 c 0,6,7
 266 1120 266 1120 215 1012 c 0,8,9
 174 928 174 928 174 809 c 0,10,11
 174 682 174 682 213 592 c 0,12,13
 266 469 266 469 377 469 c 0,14,15
 512 469 512 469 608 627 c 1,0,1
596 504 m 1,16,17
 461 377 461 377 324 377 c 0,18,19
 174 377 174 377 84 496 c 0,20,21
 0 604 0 604 0 758 c 0,22,23
 0 924 0 924 98 1055 c 0,24,25
 205 1196 205 1196 367 1196 c 0,26,27
 563 1196 563 1196 680 1026 c 0,28,29
 784 877 784 877 784 672 c 0,30,31
 784 381 784 381 591.5 181.5 c 128,-1,32
 399 -18 399 -18 111 -20 c 1,33,-1
 111 43 l 1,34,35
 199 47 199 47 252 63 c 0,36,37
 547 154 547 154 596 504 c 1,16,17
EndSplineSet
EndChar

StartChar: colon
Encoding: 58 58 29
Width: 446
Flags: W
LayerCount: 2
Fore
SplineSet
0 658 m 1,0,1
 31 695 31 695 86 752 c 0,2,3
 139 807 139 807 160 809 c 1,4,5
 207 781 207 781 279 729 c 0,6,7
 346 680 346 680 346 652 c 0,8,9
 346 643 346 643 293 590 c 0,10,11
 238 535 238 535 201 504 c 1,12,13
 180 504 180 504 94 574 c 0,14,15
 4 643 4 643 0 658 c 1,0,1
0 154 m 0,16,17
 0 170 0 170 78 246 c 0,18,19
 160 326 160 326 170 326 c 0,20,21
 176 326 176 326 225 285 c 0,22,23
 275 242 275 242 311 199 c 0,24,25
 346 156 346 156 346 144 c 1,26,27
 336 125 336 125 191 2 c 1,28,29
 180 2 180 2 135 33 c 0,30,31
 88 62 88 62 47 101 c 0,32,33
 4 137 4 137 0 154 c 0,16,17
EndSplineSet
EndChar

StartChar: semicolon
Encoding: 59 59 30
AltUni2: 00037e.ffffffff.0
Width: 461
Flags: W
LayerCount: 2
Fore
SplineSet
1 656 m 1,0,1
 1 672 1 672 72 740 c 0,2,3
 144 809 144 809 156 809 c 0,4,5
 177 809 177 809 259 738 c 0,6,7
 343 664 343 664 343 656 c 0,8,9
 343 649 343 649 277 592 c 0,10,11
 212 533 212 533 187 510 c 1,12,13
 173 510 173 510 93 568 c 0,14,15
 11 625 11 625 1 656 c 1,0,1
19 109 m 1,16,17
 42 150 42 150 89 215 c 0,18,19
 134 279 134 279 181 291 c 0,20,21
 191 291 191 291 242 256 c 0,22,23
 291 219 291 219 330 185 c 0,24,25
 361 154 361 154 361 135 c 2,26,-1
 361 129 l 1,27,28
 298 66 298 66 199 -33 c 0,29,30
 99 -131 99 -131 66 -147 c 0,31,32
 54 -151 54 -151 46 -151 c 0,33,34
 27 -151 27 -151 27 -137 c 0,35,36
 25 -119 25 -119 25 -116 c 2,37,-1
 134 -8 l 1,38,-1
 134 -4 l 2,39,40
 134 10 134 10 83 47 c 0,41,42
 25 88 25 88 19 109 c 1,16,17
EndSplineSet
EndChar

StartChar: less
Encoding: 60 60 31
Width: 982
Flags: W
LayerCount: 2
Fore
SplineSet
748 1160 m 1,1,2
 882 1160 882 1160 882 1109 c 1,3,4
 842 1004 842 1004 811 1000 c 0,5,6
 797 1000 797 1000 729 1053 c 1,7,-1
 655 1033 l 1,8,9
 622 1033 622 1033 579 995 c 1,10,11
 485 977 485 977 348 891 c 1,12,13
 215 837 215 837 209 802 c 1,14,15
 227 777 227 777 481 657 c 0,16,17
 594 603 594 603 676 560 c 0,18,19
 766 513 766 513 794 487 c 0,20,21
 856 435 856 435 856 368 c 0,22,23
 856 317 856 317 819 265 c 0,24,25
 786 222 786 222 766 222 c 0,26,27
 751 224 751 224 741 239 c 0,28,29
 733 253 733 253 725 265 c 0,30,31
 665 355 665 355 448 448 c 0,32,33
 174 564 174 564 61 659 c 0,34,35
 0 708 0 708 0 734 c 0,36,37
 0 773 0 773 149 902 c 1,38,39
 307 998 307 998 459 1059 c 1,40,0
 650 1150 650 1150 748 1160 c 1,1,2
EndSplineSet
EndChar

StartChar: equal
Encoding: 61 61 32
Width: 1006
Flags: W
LayerCount: 2
Fore
SplineSet
898 1050 m 1,0,1
 898 1040 898 1040 900 1009 c 2,2,-1
 900 962 l 1,3,4
 890 906 890 906 820 870 c 1,5,-1
 806 880 l 2,6,7
 781 899 781 899 753 899 c 2,8,-1
 497 899 l 2,9,10
 450 899 450 899 222 890 c 1,11,-1
 21 900 l 1,12,13
 6 927 6 927 -6 1029 c 1,14,15
 226 1029 226 1029 439 1050 c 1,16,17
 487 1048 487 1048 822 1048 c 1,18,-1
 898 1050 l 1,0,1
904 730 m 1,19,20
 904 720 904 720 906 689 c 2,21,-1
 906 642 l 1,22,23
 896 586 896 586 826 550 c 1,24,-1
 812 560 l 2,25,26
 787 579 787 579 759 579 c 2,27,-1
 503 579 l 2,28,29
 456 579 456 579 228 570 c 1,30,-1
 27 580 l 1,31,32
 12 607 12 607 0 709 c 1,33,34
 232 709 232 709 445 730 c 1,35,36
 493 728 493 728 828 728 c 1,37,-1
 904 730 l 1,19,20
EndSplineSet
EndChar

StartChar: greater
Encoding: 62 62 33
Width: 982
Flags: W
LayerCount: 2
Fore
SplineSet
134 222 m 1,1,2
 0 222 0 222 0 273 c 1,3,4
 40 378 40 378 71 382 c 0,5,6
 85 382 85 382 153 329 c 1,7,-1
 227 349 l 1,8,9
 260 349 260 349 303 387 c 1,10,11
 397 405 397 405 534 491 c 1,12,13
 667 545 667 545 673 580 c 1,14,15
 655 605 655 605 401 725 c 0,16,17
 288 779 288 779 206 822 c 0,18,19
 116 869 116 869 88 895 c 0,20,21
 26 947 26 947 26 1014 c 0,22,23
 26 1065 26 1065 63 1117 c 0,24,25
 96 1160 96 1160 116 1160 c 0,26,27
 131 1158 131 1158 141 1143 c 0,28,29
 149 1129 149 1129 157 1117 c 0,30,31
 217 1027 217 1027 434 934 c 0,32,33
 708 818 708 818 821 723 c 0,34,35
 882 674 882 674 882 648 c 0,36,37
 882 609 882 609 733 480 c 1,38,39
 575 384 575 384 423 323 c 1,40,0
 232 232 232 232 134 222 c 1,1,2
EndSplineSet
EndChar

StartChar: question
Encoding: 63 63 34
Width: 739
Flags: W
LayerCount: 2
Fore
SplineSet
223 340 m 1,0,-1
 151 340 l 1,1,-1
 151 389 l 2,2,3
 151 459 151 459 135 553 c 2,4,-1
 120 637 l 1,5,6
 120 670 120 670 153 684 c 0,7,8
 163 688 163 688 213 698 c 0,9,10
 514 758 514 758 514 934 c 0,11,12
 514 1034 514 1034 430 1128 c 0,13,14
 344 1223 344 1223 245 1223 c 0,15,16
 217 1223 217 1223 182 1212 c 2,17,-1
 133 1192 l 2,18,19
 112 1184 112 1184 88 1184 c 0,20,21
 0 1184 0 1184 0 1268 c 0,22,23
 0 1329 0 1329 61 1362 c 0,24,25
 110 1389 110 1389 178 1389 c 0,26,27
 338 1389 338 1389 479 1212 c 0,28,29
 540 1135 540 1135 585 1038 c 0,30,31
 639 924 639 924 639 842 c 0,32,33
 639 719 639 719 553 643 c 0,34,35
 491 586 491 586 354 537 c 0,36,37
 274 508 274 508 249 465 c 0,38,39
 227 430 227 430 223 340 c 1,0,-1
69 100 m 0,40,41
 69 152 69 152 106 187.5 c 128,-1,42
 143 223 143 223 194 223 c 256,43,44
 245 223 245 223 282 188 c 0,45,46
 317 152 317 152 317 100 c 0,47,48
 317 49 317 49 282 14 c 0,49,50
 245 -23 245 -23 194 -23 c 0,51,52
 141 -23 141 -23 106 12 c 0,53,54
 69 47 69 47 69 100 c 0,40,41
EndSplineSet
EndChar

StartChar: at
Encoding: 64 64 35
Width: 1332
Flags: W
LayerCount: 2
Fore
SplineSet
802 866 m 1,0,1
 697 825 697 825 619 776 c 0,2,3
 529 716 529 716 529 681 c 0,4,5
 529 587 529 587 615 587 c 0,6,7
 662 587 662 587 714 624 c 0,8,9
 806 690 806 690 806 819 c 0,10,11
 806 841 806 841 802 866 c 1,0,1
219 187 m 0,13,14
 111 275 111 275 49 396 c 1,15,16
 0 518 0 518 0 686 c 0,17,18
 0 916 0 916 139 1082 c 0,19,20
 244 1207 244 1207 418 1278 c 1,21,22
 547 1324 547 1324 631 1324 c 2,23,-1
 710 1322 l 2,24,25
 794 1322 794 1322 906 1271 c 0,26,27
 1043 1210 1043 1210 1043 1130 c 2,28,-1
 1043 735 l 2,29,30
 1043 710 1043 710 1058 679 c 0,31,32
 1074 647 1074 647 1095 636 c 0,33,34
 1154 608 1154 608 1203 595 c 0,35,36
 1232 587 1232 587 1232 560 c 0,37,38
 1232 536 1232 536 1181 505 c 0,39,40
 1131 474 1131 474 1099 474 c 0,41,42
 968 474 968 474 888 532 c 0,43,44
 871 546 871 546 841 573 c 0,45,46
 820 587 820 587 808 587 c 0,47,48
 794 587 794 587 769 571 c 0,49,50
 748 556 748 556 718 530 c 1,51,52
 630 470 630 470 519 470 c 0,53,54
 402 470 402 470 351 501 c 128,-1,55
 300 532 300 532 300 608 c 0,56,57
 300 696 300 696 402 776 c 0,58,59
 472 827 472 827 556 857 c 0,60,61
 619 878 619 878 730 923 c 1,62,63
 812 964 812 964 812 1007 c 0,64,65
 812 1097 812 1097 742 1152 c 0,66,67
 675 1209 675 1209 541 1209 c 1,68,-1
 512 1203 l 1,69,70
 354 1193 354 1193 257 994 c 1,71,72
 197 901 197 901 197 625 c 1,73,74
 206 407 206 407 372 300 c 1,75,76
 490 202 490 202 834 200 c 1,77,-1
 862 204 l 1,78,79
 980 209 980 209 1043.5 274.5 c 128,-1,80
 1107 340 1107 340 1116 340 c 0,81,82
 1128 340 1128 340 1152 334 c 1,83,84
 1159 306 1159 306 1159 297 c 0,85,86
 1159 271 1159 271 1072 187 c 1,87,88
 947 77 947 77 810 67 c 1,89,12
 370 68 370 68 219 187 c 0,13,14
EndSplineSet
EndChar

StartChar: A
Encoding: 65 65 36
Width: 1527
Flags: W
LayerCount: 2
Fore
SplineSet
248 598 m 1,0,1
 291 784 291 784 428 1292 c 1,2,3
 426 1311 426 1311 372 1319 c 0,4,5
 268 1327 268 1327 161 1333 c 1,6,7
 18 1356 18 1356 18 1427 c 1,8,9
 260 1413 260 1413 628 1399 c 1,10,11
 753 1399 753 1399 913 1417 c 0,12,13
 1073 1436 1073 1436 1102 1436 c 0,14,15
 1175 1436 1175 1436 1196 1384 c 1,16,17
 1159 1358 1159 1358 1085 1348 c 0,18,19
 1044 1341 1044 1341 1040 1339 c 0,20,21
 1026 1331 1026 1331 1026 1296 c 0,22,23
 1026 1202 1026 1202 1075 944 c 0,24,25
 1122 709 1122 709 1136 676 c 1,26,-1
 1138 666 l 2,27,28
 1167 508 1167 508 1196 350 c 0,29,30
 1243 121 1243 121 1284 92 c 0,31,32
 1296 84 1296 84 1339 82 c 0,33,34
 1380 82 1380 82 1398 70 c 0,35,36
 1427 51 1427 51 1427 -4 c 1,37,38
 1378 -14 1378 -14 1353 -14 c 2,39,-1
 1282 -4 l 2,40,41
 1208 4 1208 4 1077 4 c 0,42,43
 983 4 983 4 923 -4 c 2,44,-1
 870 -12 l 1,45,46
 846 12 846 12 846 33 c 0,47,48
 846 61 846 61 919 78 c 0,49,50
 1001 98 1001 98 1018 119 c 1,51,52
 950 639 950 639 923 668 c 1,53,54
 835 666 835 666 616 635 c 0,55,56
 360 600 360 600 336 573 c 1,57,58
 317 516 317 516 291 397 c 0,59,60
 252 217 252 217 252 100 c 1,61,62
 256 59 256 59 286 59 c 0,63,64
 295 59 295 59 327 63 c 0,65,66
 358 68 358 68 385 68 c 1,67,68
 413 59 413 59 413 -10 c 1,69,70
 389 -14 389 -14 2 -39 c 1,71,72
 0 -4 0 -4 0 23 c 0,73,74
 0 53 0 53 14 53 c 2,75,-1
 24 51 l 1,76,-1
 30 47 l 2,77,78
 39 43 39 43 47 43 c 0,79,80
 63 43 63 43 86 59 c 0,81,82
 104 72 104 72 233 575 c 0,83,84
 239 598 239 598 248 598 c 1,0,1
780 1313 m 1,85,-1
 735 1313 l 2,86,87
 704 1313 704 1313 630 1311 c 0,88,89
 555 1309 555 1309 528 1309 c 1,90,91
 407 852 407 852 389 776 c 1,92,93
 397 774 397 774 440 774 c 0,94,95
 630 774 630 774 905 803 c 1,96,97
 903 907 903 907 848 1112 c 0,98,99
 796 1300 796 1300 780 1313 c 1,85,-1
EndSplineSet
EndChar

StartChar: B
Encoding: 66 66 37
Width: 1470
Flags: W
LayerCount: 2
Fore
SplineSet
1168 25 m 0,0,1
 1032 -29 1032 -29 887 -29 c 0,2,3
 752 -29 752 -29 512 35 c 0,4,5
 443 53 443 53 355 53 c 0,6,7
 330 53 330 53 281 49 c 1,8,-1
 94 16 l 2,9,10
 86 16 86 16 76 33 c 0,11,12
 64 47 64 47 64 61 c 0,13,14
 64 78 64 78 82 92 c 1,15,-1
 322 160 l 1,16,17
 332 180 332 180 332 350 c 0,18,19
 332 539 332 539 317.5 790.5 c 128,-1,20
 303 1042 303 1042 287 1122 c 0,21,22
 275 1186 275 1186 201 1208 c 0,23,24
 193 1210 193 1210 68 1229 c 0,25,26
 0 1239 0 1239 0 1272 c 0,27,28
 0 1294 0 1294 17 1313 c 0,29,30
 29 1331 29 1331 58 1331 c 0,31,32
 72 1331 72 1331 158 1309 c 0,33,34
 236 1288 236 1288 309 1288 c 0,35,36
 436 1288 436 1288 518 1333 c 0,37,38
 545 1350 545 1350 617 1384 c 1,39,40
 789 1454 789 1454 897 1454 c 0,41,42
 1026 1454 1026 1454 1127 1386 c 0,43,44
 1241 1307 1241 1307 1266 1161 c 0,45,46
 1270 1137 1270 1137 1270 1098 c 0,47,48
 1270 922 1270 922 1084 801 c 0,49,50
 1069 793 1069 793 1041 774 c 1,51,52
 1186 737 1186 737 1282 612 c 0,53,54
 1370 500 1370 500 1370 383 c 2,55,-1
 1370 379 l 2,56,57
 1368 102 1368 102 1168 25 c 0,0,1
948 672 m 0,58,59
 899 692 899 692 809 723 c 0,60,61
 733 748 733 748 719 774 c 1,62,63
 719 791 719 791 768 805 c 0,64,65
 797 813 797 813 858 838 c 1,66,67
 991 903 991 903 1004 1044 c 1,68,69
 1004 1165 1004 1165 934 1239 c 0,70,71
 867 1311 867 1311 754 1311 c 0,72,73
 740 1311 740 1311 709 1307 c 0,74,75
 611 1294 611 1294 572 1206 c 0,76,77
 541 1139 541 1139 541 1001 c 0,78,79
 541 963 541 963 545 885 c 0,80,81
 547 807 547 807 547 770 c 0,82,83
 547 653 547 653 545 510 c 0,84,85
 541 365 541 365 541 332 c 0,86,87
 541 182 541 182 584 129 c 0,88,89
 637 61 637 61 801 61 c 0,90,91
 930 61 930 61 1010 100 c 0,92,93
 1145 166 1145 166 1145 410 c 2,94,-1
 1145 440 l 1,95,96
 1135 592 1135 592 948 672 c 0,58,59
EndSplineSet
EndChar

StartChar: C
Encoding: 67 67 38
Width: 1327
Flags: WO
LayerCount: 2
Fore
SplineSet
1206 92 m 2,47,-1
 1152 56 l 1,1,-1
 1114 39 l 1,2,-1
 985 12 l 2,3,4
 861 -14 861 -14 678 -14 c 0,5,6
 393 -14 393 -14 219 127 c 0,7,8
 110 216 110 216 49 436 c 0,9,10
 0 614 0 614 0 786 c 0,11,12
 0 1016 0 1016 139 1182 c 0,13,14
 241 1304 241 1304 418 1378 c 0,15,16
 552 1434 552 1434 631 1434 c 0,17,18
 777 1434 777 1434 899 1333 c 0,19,20
 928 1309 928 1309 979 1268 c 0,21,22
 1016 1239 1016 1239 1038 1239 c 0,23,24
 1043 1239 1043 1239 1104 1282 c 128,-1,25
 1165 1325 1165 1325 1170 1329 c 1,26,27
 1208 1329 1208 1329 1227 1274 c 1,28,-1
 934 1026 l 1,29,30
 920 1032 920 1032 877 1077 c 0,31,32
 660 1303 660 1303 512 1303 c 0,33,34
 404 1303 404 1303 307 1094 c 0,35,36
 217 901 217 901 217 735 c 1,37,38
 256 457 256 457 422 270 c 0,39,40
 590 82 590 82 809 82 c 0,41,42
 832 82 832 82 997 170 c 0,43,44
 1172 262 1172 262 1206 262 c 1,45,-1
 1206 92 l 2,46,-1
 1206 92 l 2,47,-1
EndSplineSet
EndChar

StartChar: D
Encoding: 68 68 39
Width: 1394
Flags: W
LayerCount: 2
Fore
SplineSet
829 -20 m 0,0,1
 811 -20 811 -20 598 5.5 c 128,-1,2
 385 31 385 31 323 31 c 0,3,4
 223 31 223 31 170 -8 c 0,5,6
 88 -68 88 -68 49 -233 c 1,7,8
 34 -233 34 -233 16 -174 c 0,9,10
 0 -123 0 -123 0 -106 c 0,11,12
 0 -55 0 -55 32 12 c 0,13,14
 69 88 69 88 125 123 c 0,15,16
 161 145 161 145 268 160 c 0,17,18
 274 160 274 160 290 166 c 1,19,-1
 290 164 l 1,20,-1
 293 313 l 1,21,-1
 293 625 l 2,22,23
 293 1153 293 1153 280 1180 c 0,24,25
 268 1204 268 1204 149 1229 c 0,26,27
 118 1235 118 1235 63 1247 c 1,28,29
 20 1264 20 1264 20 1286 c 0,30,31
 20 1333 20 1333 57 1333 c 1,32,33
 329 1266 329 1266 397 1266 c 2,34,-1
 409 1266 l 1,35,36
 546 1419 546 1419 733 1423 c 1,37,-1
 745 1423 l 2,38,39
 979 1423 979 1423 1126 1255 c 0,40,41
 1294 1065 1294 1065 1294 709 c 0,42,43
 1294 420 1294 420 1173 209 c 0,44,45
 1040 -20 1040 -20 829 -20 c 0,0,1
651 1286 m 0,46,47
 460 1286 460 1286 460 1122 c 0,48,49
 460 973 460 973 477 551 c 0,50,51
 491 145 491 145 495 145 c 2,52,-1
 944 104 l 1,53,54
 997 104 997 104 1048 211 c 0,55,56
 1130 383 1130 383 1130 612 c 0,57,58
 1130 885 1130 885 993 1083 c 0,59,60
 854 1286 854 1286 651 1286 c 0,46,47
EndSplineSet
EndChar

StartChar: E
Encoding: 69 69 40
Width: 1325
Flags: W
LayerCount: 2
Fore
SplineSet
1174 205 m 2,0,-1
 1174 -195 l 1,1,2
 1159 -199 1159 -199 1153 -203 c 2,3,-1
 1139 -211 l 2,4,5
 1129 -217 1129 -217 1090 -225 c 1,6,-1
 1090 104 l 1,7,8
 787 -27 787 -27 612 -27 c 0,9,10
 578 -27 578 -27 563 -25 c 0,11,12
 295 12 295 12 164 176 c 0,13,14
 64 301 64 301 10 565 c 0,15,16
 0 616 0 616 0 672 c 0,17,18
 0 834 0 834 76 1028 c 0,19,20
 141 1190 141 1190 193 1241 c 0,21,22
 248 1296 248 1296 379 1352 c 0,23,24
 533 1415 533 1415 658 1415 c 0,25,26
 741 1415 741 1415 967 1237 c 0,27,28
 1002 1210 1002 1210 1014 1202 c 1,29,30
 1112 1368 1112 1368 1137 1368 c 0,31,32
 1145 1368 1145 1368 1165 1356 c 0,33,34
 1167 1356 1167 1356 1180 1350 c 1,35,36
 1174 1325 1174 1325 1141 1260 c 0,37,38
 991 954 991 954 991 891 c 0,39,40
 991 885 991 885 1043 885 c 0,41,42
 1106 885 1106 885 1225 903 c 1,43,44
 1225 887 1225 887 1200 551 c 0,45,46
 1174 213 1174 213 1174 205 c 2,0,-1
504 1270 m 2,47,48
 420 1268 420 1268 328 1149 c 0,49,50
 232 1026 232 1026 232 905 c 1,51,52
 238 866 238 866 256 856 c 0,53,54
 270 848 270 848 315 848 c 0,55,56
 793 848 793 848 922 877 c 1,57,58
 881 983 881 983 752 1118 c 0,59,60
 610 1270 610 1270 508 1270 c 2,61,-1
 504 1270 l 2,47,48
914 698 m 2,62,63
 236 698 236 698 232 631 c 1,64,65
 281 403 281 403 440 270 c 0,66,67
 598 141 598 141 815 141 c 0,68,69
 959 141 959 141 1083 197 c 1,70,71
 1090 221 1090 221 1098 430 c 0,72,73
 1100 541 1100 541 1106 696 c 1,74,75
 1100 696 1100 696 1034 698 c 2,76,-1
 914 698 l 2,62,63
EndSplineSet
EndChar

StartChar: F
Encoding: 70 70 41
Width: 1091
Flags: W
LayerCount: 2
Fore
SplineSet
909 901 m 2,0,1
 909 891 909 891 911 860 c 2,2,-1
 911 813 l 2,3,4
 911 707 911 707 895 631 c 0,5,6
 878 543 878 543 848 543 c 0,7,8
 844 545 844 545 831 721 c 1,9,-1
 817 731 l 2,10,11
 792 750 792 750 764 750 c 2,12,-1
 508 750 l 2,13,14
 461 750 461 750 448 737 c 0,15,16
 440 729 440 729 440 692 c 2,17,-1
 440 322 l 2,18,19
 438 305 438 305 438 289 c 0,20,21
 438 141 438 141 481 96 c 0,22,23
 516 57 516 57 686 57 c 0,24,25
 739 57 739 57 788 61 c 1,26,27
 835 57 835 57 835 14 c 0,28,29
 835 -25 835 -25 768 -25 c 2,30,-1
 342 -25 l 2,31,32
 266 -25 266 -25 180 -33 c 0,33,34
 96 -41 96 -41 88 -41 c 2,35,-1
 51 -41 l 1,36,-1
 51 27 l 1,37,38
 164 43 164 43 194 59 c 0,39,40
 233 82 233 82 233 141 c 2,41,-1
 233 731 l 1,42,-1
 72 731 l 1,43,44
 57 758 57 758 45 860 c 1,45,-1
 127 860 l 2,46,47
 219 860 219 860 237 870 c 1,48,-1
 237 1016 l 2,49,50
 237 1087 237 1087 201 1180 c 0,51,52
 158 1282 158 1282 108 1282 c 0,53,54
 98 1282 98 1282 77.5 1274 c 128,-1,55
 57 1266 57 1266 41 1266 c 0,56,57
 0 1266 0 1266 0 1315 c 1,58,59
 219 1427 219 1427 237 1427 c 0,60,61
 276 1427 276 1427 336 1364 c 0,62,63
 397 1303 397 1303 416 1303 c 1,64,65
 422 1307 422 1307 430 1311 c 0,66,67
 438 1317 438 1317 444 1321 c 0,68,69
 604 1434 604 1434 741 1434 c 1,70,71
 991 1391 991 1391 991 1350 c 1,72,73
 909 1024 909 1024 909 905 c 2,74,-1
 909 901 l 2,0,1
627 1282 m 0,75,76
 575 1282 575 1282 543 1264 c 0,77,78
 450 1210 450 1210 450 1169 c 2,79,-1
 450 901 l 1,80,81
 498 899 498 899 833 899 c 1,82,-1
 872 1169 l 1,83,84
 870 1196 870 1196 792 1237 c 0,85,86
 706 1282 706 1282 627 1282 c 0,75,76
EndSplineSet
EndChar

StartChar: G
Encoding: 71 71 42
Width: 1482
Flags: W
LayerCount: 2
Fore
SplineSet
1175 850 m 1,0,-1
 1179 852 l 1,1,2
 1230 903 1230 903 1257 903 c 0,3,4
 1271 903 1271 903 1288 891 c 0,5,6
 1306 877 1306 877 1306 860 c 0,7,8
 1306 844 1306 844 1263 817 c 0,9,10
 1218 793 1218 793 1218 772 c 0,11,12
 1218 766 1218 766 1241 743 c 0,13,14
 1382 602 1382 602 1382 459 c 0,15,16
 1382 322 1382 322 1343 276 c 0,17,18
 1257 176 1257 176 1136 119 c 0,19,20
 991 49 991 49 907 27 c 0,21,22
 802 -2 802 -2 649 -2 c 0,23,24
 378 -2 378 -2 188 184 c 0,25,26
 0 369 0 369 0 629 c 2,27,-1
 0 815 l 2,28,29
 0 1010 0 1010 166 1190 c 0,30,31
 381 1423 381 1423 761 1423 c 0,32,33
 868 1423 868 1423 1011 1323 c 0,34,35
 1149 1227 1149 1227 1181 1227 c 0,36,37
 1204 1227 1204 1227 1253 1250.5 c 128,-1,38
 1302 1274 1302 1274 1316 1274 c 0,39,40
 1345 1274 1345 1274 1357 1221 c 1,41,-1
 1007 1049 l 1,42,43
 979 1061 979 1061 934 1104 c 0,44,45
 905 1130 905 1130 843 1188 c 0,46,47
 712 1300 712 1300 567 1300 c 0,48,49
 491 1300 491 1300 424 1255 c 0,50,51
 368 1221 368 1221 340 1176 c 0,52,53
 297 1108 297 1108 252 1042 c 1,54,55
 211 967 211 967 211 887 c 2,56,-1
 211 752 l 2,57,58
 211 545 211 545 358 373 c 0,59,60
 514 188 514 188 731 174 c 0,61,62
 759 172 759 172 796 172 c 0,63,64
 1020 172 1020 172 1183 254 c 1,65,-1
 1187 258 l 2,66,67
 1196 266 1196 266 1202 279 c 0,68,69
 1210 303 1210 303 1210 360 c 1,70,71
 1198 485 1198 485 1112 573 c 0,72,73
 1040 643 1040 643 964 655 c 1,74,-1
 661 539 l 1,75,76
 624 565 624 565 624 606 c 1,77,78
 647 610 647 610 835 680 c 0,79,80
 1032 754 1032 754 1054 770 c 0,81,82
 1087 791 1087 791 1175 850 c 1,0,-1
EndSplineSet
EndChar

StartChar: H
Encoding: 72 72 43
Width: 1564
Flags: W
LayerCount: 2
Fore
SplineSet
1351 41 m 0,0,1
 1294 10 1294 10 1235 -23 c 1,2,3
 1155 -61 1155 -61 1114 -61 c 0,4,5
 1099 -61 1099 -61 1083 -49 c 0,6,7
 1065 -37 1065 -37 1065 -23 c 1,8,9
 1067 -25 1067 -25 1089 109 c 0,10,11
 1114 256 1114 256 1114 391 c 2,12,-1
 1114 494 l 2,13,14
 1114 696 1114 696 1017.5 813 c 128,-1,15
 921 930 921 930 755 930 c 0,16,17
 684 930 684 930 592 879 c 0,18,19
 483 817 483 817 483 739 c 2,20,-1
 483 131 l 2,21,22
 483 86 483 86 520 74 c 0,23,24
 540 66 540 66 600 66 c 2,25,-1
 856 66 l 1,26,27
 868 53 868 53 868 37 c 0,28,29
 868 23 868 23 860 2 c 1,30,31
 843 -12 843 -12 825 -14 c 2,32,-1
 817 -14 l 1,33,34
 796 -18 796 -18 764 -18 c 0,35,36
 725 -18 725 -18 594 -10 c 0,37,38
 469 -2 469 -2 417 -2 c 0,39,40
 368 -2 368 -2 63 -18 c 1,41,-1
 63 45 l 1,42,43
 270 45 270 45 270 135 c 2,44,-1
 258 1028 l 2,45,46
 258 1077 258 1077 243 1190 c 0,47,48
 231 1290 231 1290 198 1315 c 0,49,50
 184 1325 184 1325 84 1341 c 0,51,52
 0 1356 0 1356 0 1384 c 0,53,54
 0 1425 0 1425 49 1425 c 1,55,-1
 225 1395 l 1,56,-1
 428 1417 l 1,57,58
 485 1417 485 1417 485 1354 c 0,59,60
 485 1341 485 1341 483 1321 c 0,61,62
 479 1303 479 1303 479 1298 c 2,63,-1
 479 887 l 1,64,65
 485 891 485 891 501 903 c 0,66,67
 518 918 518 918 561 946 c 0,68,69
 663 1010 663 1010 807 1010 c 0,70,71
 964 1010 964 1010 1114 920 c 0,72,73
 1333 786 1333 786 1333 522 c 0,74,75
 1333 432 1333 432 1284 252 c 2,76,-1
 1251 133 l 2,77,78
 1237 84 1237 84 1237 74 c 0,79,80
 1237 68 1237 68 1243 66 c 0,81,82
 1255 66 1255 66 1335 117 c 0,83,84
 1413 166 1413 166 1427 166 c 0,85,86
 1437 166 1437 166 1452 150 c 0,87,88
 1464 133 1464 133 1464 123 c 0,89,90
 1464 94 1464 94 1351 41 c 0,0,1
EndSplineSet
EndChar

StartChar: I
Encoding: 73 73 44
Width: 1046
Flags: W
LayerCount: 2
Fore
SplineSet
912 -8 m 1,0,1
 740 23 740 23 701 23 c 2,2,-1
 580 23 l 1,3,-1
 74 -27 l 1,4,-1
 74 43 l 1,5,6
 180 49 180 49 244 57 c 0,7,8
 340 70 340 70 371 109 c 0,9,10
 404 147 404 147 404 254 c 2,11,-1
 404 1008 l 1,12,-1
 379 1204 l 1,13,14
 365 1255 365 1255 340 1282 c 1,15,16
 326 1288 326 1288 160 1296 c 0,17,18
 0 1305 0 1305 0 1343 c 0,19,20
 0 1358 0 1358 17 1378 c 0,21,22
 35 1397 35 1397 49 1399 c 1,23,24
 137 1386 137 1386 365 1362 c 0,25,26
 418 1358 418 1358 477 1358 c 0,27,28
 635 1358 635 1358 649 1409 c 0,29,30
 651 1423 651 1423 656 1450 c 0,31,32
 658 1479 658 1479 697 1485 c 1,33,34
 729 1485 729 1485 729 1423 c 0,35,36
 729 1376 729 1376 752 1376 c 0,37,38
 774 1376 774 1376 840 1393 c 1,39,-1
 891 1393 l 1,40,-1
 891 1350 l 2,41,42
 891 1309 891 1309 821 1309 c 2,43,-1
 789 1309 l 2,44,45
 725 1309 725 1309 725 1274 c 2,46,-1
 725 127 l 2,47,48
 725 90 725 90 826 80 c 0,49,50
 946 68 946 68 946 27 c 0,51,52
 946 -8 946 -8 912 -8 c 1,0,1
645 1284 m 1,53,54
 611 1266 611 1266 588 1243 c 1,55,-1
 588 123 l 2,56,57
 588 109 588 109 645 104 c 1,58,-1
 645 1284 l 1,53,54
EndSplineSet
EndChar

StartChar: J
Encoding: 74 74 45
Width: 778
Flags: W
LayerCount: 2
Fore
SplineSet
213 -332 m 0,0,1
 150 -332 150 -332 98 -287 c 0,2,3
 55 -248 55 -248 55 -205 c 0,4,5
 55 -188 55 -188 76 -147 c 0,6,7
 100 -98 100 -98 121 -98 c 0,8,9
 131 -98 131 -98 199 -143 c 0,10,11
 268 -190 268 -190 330 -190 c 0,12,13
 379 -190 379 -190 416 -127 c 0,14,15
 449 -74 449 -74 449 -37 c 2,16,-1
 449 993 l 2,17,18
 449 1042 449 1042 434 1145 c 0,19,20
 414 1284 414 1284 385 1286 c 0,21,22
 375 1284 375 1284 332 1284 c 0,23,24
 213 1284 213 1284 123 1311 c 0,25,26
 0 1348 0 1348 0 1421 c 0,27,28
 0 1434 0 1434 19 1444 c 0,29,30
 39 1454 39 1454 53 1454 c 0,31,32
 66 1454 66 1454 100 1425 c 1,33,34
 178 1372 178 1372 367 1372 c 0,35,36
 459 1372 459 1372 529 1409 c 0,37,38
 606 1450 606 1450 625 1450 c 0,39,40
 678 1450 678 1450 678 1411 c 2,41,-1
 678 164 l 2,42,43
 678 45 678 45 553 -127 c 0,44,45
 404 -332 404 -332 213 -332 c 0,0,1
EndSplineSet
EndChar

StartChar: K
Encoding: 75 75 46
Width: 1530
Flags: W
LayerCount: 2
Fore
SplineSet
1209 8 m 0,0,1
 1129 8 1129 8 1106 16 c 0,2,3
 1069 31 1069 31 1008 117 c 1,4,5
 912 266 912 266 707 559 c 1,6,7
 608 690 608 690 576 692 c 1,8,9
 475 668 475 668 475 516 c 0,10,11
 475 184 475 184 496 127 c 0,12,13
 502 119 502 119 510 100 c 1,14,15
 529 72 529 72 617 72 c 0,16,17
 631 72 631 72 656 74 c 2,18,-1
 688 74 l 2,19,20
 711 74 711 74 721 68 c 0,21,22
 764 43 764 43 764 23 c 0,23,24
 764 -12 764 -12 629 -12 c 0,25,26
 592 -12 592 -12 520 -8 c 0,27,28
 451 -6 451 -6 430 -6 c 0,29,30
 312 -6 312 -6 197 -23 c 0,31,32
 82 -37 82 -37 74 -37 c 0,33,34
 37 -37 37 -37 27 -16 c 0,35,36
 15 2 15 2 15 14 c 0,37,38
 15 70 15 70 162 70 c 0,39,40
 215 70 215 70 244 66 c 1,41,42
 256 119 256 119 256 426 c 0,43,44
 256 965 256 965 252 1096 c 0,45,46
 248 1206 248 1206 234 1272 c 0,47,48
 219 1331 219 1331 199 1352 c 1,49,50
 96 1372 96 1372 13 1372 c 1,51,52
 0 1384 0 1384 0 1399 c 0,53,54
 0 1448 0 1448 62 1448 c 0,55,56
 82 1448 82 1448 160 1430 c 0,57,58
 230 1413 230 1413 305 1413 c 0,59,60
 338 1413 338 1413 402 1421 c 0,61,62
 467 1427 467 1427 498 1427 c 2,63,-1
 522 1427 l 2,64,65
 537 1425 537 1425 541 1425 c 0,66,67
 551 1425 551 1425 580 1432 c 0,68,69
 619 1440 619 1440 631 1440 c 0,70,71
 664 1440 664 1440 674 1421 c 0,72,73
 690 1393 690 1393 690 1378 c 0,74,75
 690 1343 690 1343 631 1343 c 0,76,77
 617 1343 617 1343 582 1348 c 0,78,79
 545 1350 545 1350 529 1350 c 0,80,81
 492 1350 492 1350 484 1337 c 0,82,83
 465 1309 465 1309 465 1241 c 0,84,85
 465 1227 465 1227 467 1147 c 2,86,-1
 467 940 l 2,87,88
 467 762 467 762 496 758 c 1,89,90
 533 758 533 758 604 834 c 0,91,92
 631 860 631 860 654 879 c 0,93,94
 748 950 748 950 959 1137 c 0,95,96
 1049 1214 1049 1214 1194 1333 c 0,97,98
 1198 1337 1198 1337 1202 1339 c 2,99,-1
 1213 1348 l 2,100,101
 1274 1397 1274 1397 1303 1397 c 0,102,103
 1338 1397 1338 1397 1354 1358 c 0,104,105
 1362 1337 1362 1337 1362 1323 c 0,106,107
 1362 1296 1362 1296 1327 1280 c 0,108,109
 1307 1272 1307 1272 1249 1249 c 0,110,111
 1168 1214 1168 1214 1045 1096 c 0,112,113
 1006 1057 1006 1057 971 1030 c 0,114,115
 938 1004 938 1004 830 911 c 1,116,117
 797 891 797 891 760 852 c 1,118,119
 760 817 760 817 801 762 c 0,120,121
 832 725 832 725 893 641 c 0,122,123
 938 573 938 573 1045 414 c 0,124,125
 1108 322 1108 322 1143 276 c 0,126,127
 1202 199 1202 199 1256 152 c 0,128,129
 1305 111 1305 111 1366 88 c 0,130,131
 1401 76 1401 76 1411 66 c 0,132,133
 1426 51 1426 51 1430 16 c 1,134,135
 1295 8 1295 8 1209 8 c 0,0,1
EndSplineSet
EndChar

StartChar: L
Encoding: 76 76 47
Width: 1470
Flags: W
LayerCount: 2
Fore
SplineSet
1292 -305 m 1,0,1
 1292 -233 1292 -233 1295 -160 c 2,2,-1
 1295 -74 l 2,3,4
 1295 -18 1295 -18 1278 -4 c 1,5,6
 1266 0 1266 0 1215 0 c 2,7,-1
 1147 0 l 2,8,9
 1102 -2 1102 -2 1079 -2 c 2,10,-1
 580 -2 l 1,11,-1
 397 -16 l 2,12,13
 359 -20 359 -20 213 -29 c 0,14,15
 135 -33 135 -33 129 -33 c 0,16,17
 64 -33 64 -33 55 -12 c 0,18,19
 51 4 51 4 51 10 c 0,20,21
 51 43 51 43 98 51 c 0,22,23
 115 53 115 53 187 57 c 0,24,25
 246 59 246 59 268 66 c 0,26,27
 309 76 309 76 316 104 c 1,28,-1
 316 1294 l 1,29,30
 303 1311 303 1311 264 1319 c 0,31,32
 223 1327 223 1327 113 1350 c 0,33,34
 86 1356 86 1356 39 1364 c 1,35,36
 0 1376 0 1376 0 1397 c 0,37,38
 0 1407 0 1407 19 1427 c 0,39,40
 31 1438 31 1438 55 1438 c 0,41,42
 60 1438 60 1438 189 1417 c 0,43,44
 314 1397 314 1397 449 1397 c 0,45,46
 578 1397 578 1397 682 1411 c 0,47,48
 787 1427 787 1427 791 1427 c 0,49,50
 819 1427 819 1427 846 1407 c 0,51,52
 864 1393 864 1393 864 1376 c 0,53,54
 864 1333 864 1333 770 1327 c 1,55,-1
 737 1327 l 2,56,57
 680 1327 680 1327 592 1323 c 0,58,59
 567 1319 567 1319 563 1298 c 2,60,-1
 561 279 l 2,61,62
 561 154 561 154 582 106 c 0,63,64
 592 84 592 84 639 84 c 0,65,66
 653 84 653 84 733 92 c 0,67,68
 1137 133 1137 133 1227 197 c 0,69,70
 1233 201 1233 201 1251 219 c 2,71,-1
 1260 229 l 2,72,73
 1286 262 1286 262 1370 270 c 1,74,-1
 1370 -305 l 1,75,-1
 1292 -305 l 1,0,1
EndSplineSet
EndChar

StartChar: M
Encoding: 77 77 48
Width: 1931
Flags: W
LayerCount: 2
Fore
SplineSet
1829 -10 m 2,0,-1
 1827 -20 l 2,1,2
 1822 -37 1822 -37 1788 -37 c 0,3,4
 1726 -37 1726 -37 1513 16 c 1,5,6
 1478 16 1478 16 1411 -8 c 0,7,8
 1341 -31 1341 -31 1310 -31 c 0,9,10
 1259 -31 1259 -31 1247 31 c 1,11,12
 1347 47 1347 47 1384 78 c 0,13,14
 1415 102 1415 102 1415 154 c 0,15,16
 1415 178 1415 178 1405 254 c 0,17,18
 1396 330 1396 330 1396 385 c 0,19,20
 1396 973 1396 973 1345 1075 c 1,21,22
 1284 983 1284 983 1085 498 c 0,23,24
 991 266 991 266 946 166 c 0,25,26
 878 14 878 14 850 14 c 1,27,28
 827 18 827 18 815 70 c 0,29,30
 800 121 800 121 776 223 c 0,31,32
 751 319 751 319 614 659 c 0,33,34
 456 1055 456 1055 395 1100 c 1,35,36
 354 965 354 965 266 96 c 1,37,38
 383 72 383 72 489 43 c 1,39,40
 489 -29 489 -29 415 -29 c 0,41,42
 385 -29 385 -29 331 -18 c 0,43,44
 270 -4 270 -4 250 -2 c 0,45,46
 215 2 215 2 200 2 c 0,47,48
 143 2 143 2 98 -18 c 1,49,50
 55 -43 55 -43 45 -43 c 256,51,52
 35 -43 35 -43 22 -35 c 0,53,54
 0 -16 0 -16 0 2 c 0,55,56
 0 27 0 27 53 47 c 0,57,58
 90 57 90 57 127 69.5 c 128,-1,59
 164 82 164 82 178 88 c 0,60,61
 196 98 196 98 254 586 c 0,62,63
 286 881 286 881 319 1174 c 1,64,65
 319 1280 319 1280 217 1280 c 0,66,67
 194 1280 194 1280 155 1276 c 0,68,69
 114 1272 114 1272 98 1272 c 0,70,71
 47 1272 47 1272 47 1317 c 1,72,73
 78 1348 78 1348 207 1348 c 0,74,75
 387 1348 387 1348 415 1360 c 1,76,77
 438 1376 438 1376 606 1432 c 1,78,79
 639 1376 639 1376 639 1368 c 0,80,81
 639 1350 639 1350 596 1343 c 0,82,83
 571 1337 571 1337 506 1309 c 1,84,85
 587 1198 587 1198 772 764 c 0,86,87
 852 575 852 575 895 463 c 0,88,89
 911 426 911 426 936 354 c 1,90,91
 983 477 983 477 1140 844 c 0,92,93
 1300 1217 1300 1217 1331 1270 c 0,94,95
 1343 1292 1343 1292 1343 1300 c 0,96,97
 1343 1313 1343 1313 1315 1313 c 0,98,99
 1302 1313 1302 1313 1278 1311 c 0,100,101
 1251 1309 1251 1309 1239 1309 c 0,102,103
 1175 1309 1175 1309 1175 1354 c 0,104,105
 1175 1362 1175 1362 1179 1376 c 0,106,107
 1185 1399 1185 1399 1212 1399 c 2,108,-1
 1233 1399 l 2,109,110
 1249 1397 1249 1397 1263 1397 c 0,111,112
 1310 1397 1310 1397 1351 1403 c 0,113,114
 1466 1419 1466 1419 1495 1425 c 0,115,116
 1581 1440 1581 1440 1638 1460 c 0,117,118
 1654 1464 1654 1464 1659 1464 c 0,119,120
 1669 1464 1669 1464 1683 1460 c 0,121,122
 1706 1454 1706 1454 1706 1417 c 0,123,124
 1706 1397 1706 1397 1689 1386 c 0,125,126
 1683 1386 1683 1386 1618 1370 c 0,127,128
 1550 1354 1550 1354 1542 1348 c 0,129,130
 1540 1348 1540 1348 1540 1276 c 0,131,132
 1540 1077 1540 1077 1577 567 c 0,133,134
 1609 76 1609 76 1620 74 c 0,135,136
 1654 61 1654 61 1753 51 c 0,137,138
 1831 43 1831 43 1831 2 c 0,139,140
 1831 -6 1831 -6 1829 -10 c 2,0,-1
EndSplineSet
EndChar

StartChar: N
Encoding: 78 78 49
Width: 1780
Flags: W
LayerCount: 2
Fore
SplineSet
1661 1341 m 0,0,1
 1657 1339 1657 1339 1622 1333 c 0,2,3
 1507 1313 1507 1313 1507 1268 c 2,4,-1
 1507 -57 l 1,5,6
 1421 -57 1421 -57 1395 57 c 1,7,8
 1161 291 1161 291 936 483 c 0,9,10
 926 492 926 492 830 590 c 0,11,12
 672 750 672 750 619 801 c 0,13,14
 459 954 459 954 412 971 c 1,15,16
 397 713 397 713 397 645 c 2,17,-1
 397 406 l 2,18,19
 395 281 395 281 395 260 c 0,20,21
 395 154 395 154 416 123 c 0,22,23
 445 78 445 78 547 78 c 0,24,25
 570 78 570 78 608 80 c 0,26,27
 647 82 647 82 662 82 c 0,28,29
 711 82 711 82 721 66 c 0,30,31
 729 51 729 51 729 45 c 0,32,33
 729 0 729 0 565 0 c 0,34,35
 543 0 543 0 500 2 c 2,36,-1
 445 2 l 1,37,-1
 393 0 l 2,38,39
 371 0 371 0 295 -10 c 0,40,41
 223 -18 223 -18 187 -18 c 0,42,43
 96 -18 96 -18 96 20 c 0,44,45
 96 27 96 27 98 31 c 2,46,-1
 101 39 l 1,47,48
 121 80 121 80 150 80 c 0,49,50
 162 80 162 80 187 74 c 0,51,52
 209 66 209 66 221 66 c 0,53,54
 236 66 236 66 262 76 c 1,55,56
 301 98 301 98 301 623 c 0,57,58
 301 995 301 995 293 1047 c 0,59,60
 287 1114 287 1114 258 1268 c 0,61,62
 252 1294 252 1294 244 1333 c 0,63,64
 240 1364 240 1364 203 1364 c 0,65,66
 176 1364 176 1364 121 1352 c 0,67,68
 66 1337 66 1337 41 1337 c 0,69,70
 0 1337 0 1337 0 1368 c 0,71,72
 0 1386 0 1386 10 1401 c 0,73,74
 19 1419 19 1419 197 1444 c 0,75,76
 320 1460 320 1460 344 1460 c 0,77,78
 383 1460 383 1460 383 1434 c 0,79,80
 383 1430 383 1430 381 1413 c 0,81,82
 377 1397 377 1397 377 1384 c 0,83,84
 377 1307 377 1307 488 1206 c 0,85,86
 619 1083 619 1083 967 764 c 0,87,88
 1338 426 1338 426 1393 385 c 1,89,90
 1407 442 1407 442 1407 854 c 0,91,92
 1407 1284 1407 1284 1393 1313 c 1,93,94
 1374 1337 1374 1337 1299 1337 c 2,95,-1
 1256 1337 l 2,96,97
 1190 1337 1190 1337 1190 1386 c 1,98,99
 1198 1413 1198 1413 1256 1413 c 2,100,-1
 1297 1413 l 2,101,102
 1327 1411 1327 1411 1350 1411 c 0,103,104
 1471 1411 1471 1411 1555 1419 c 2,105,-1
 1630 1425 l 2,106,107
 1680 1425 1680 1425 1680 1380 c 0,108,109
 1680 1352 1680 1352 1661 1341 c 0,0,1
EndSplineSet
EndChar

StartChar: O
Encoding: 79 79 50
Width: 1466
Flags: W
LayerCount: 2
Fore
SplineSet
756 -29 m 2,0,-1
 611 -29 l 2,1,2
 361 -29 361 -29 181 164 c 0,3,4
 0 358 0 358 0 633 c 2,5,-1
 0 801 l 2,6,7
 0 924 0 924 70 1067 c 0,8,9
 156 1247 156 1247 310 1327 c 0,10,11
 363 1358 363 1358 453 1401 c 0,12,13
 508 1423 508 1423 576 1423 c 2,14,-1
 760 1423 l 2,15,16
 1012 1423 1012 1423 1192 1221 c 0,17,18
 1366 1026 1366 1026 1366 768 c 2,19,-1
 1366 606 l 2,20,21
 1366 326 1366 326 1145 135 c 0,22,23
 957 -29 957 -29 756 -29 c 2,0,-1
590 1313 m 0,24,25
 383 1313 383 1313 285 1122 c 0,26,27
 226 1006 226 1006 226 895 c 2,28,-1
 226 725 l 2,29,30
 226 582 226 582 320 408 c 1,31,32
 353 299 353 299 488 197 c 0,33,34
 623 96 623 96 732 96 c 2,35,-1
 850 96 l 2,36,37
 975 96 975 96 1055 250 c 0,38,39
 1127 391 1127 391 1127 586 c 0,40,41
 1127 913 1127 913 983 1110 c 0,42,43
 838 1313 838 1313 590 1313 c 0,24,25
EndSplineSet
EndChar

StartChar: P
Encoding: 80 80 51
Width: 1476
Flags: W
LayerCount: 2
Fore
SplineSet
854 281 m 2,0,-1
 745 281 l 1,1,-1
 555 319 l 1,2,3
 534 311 534 311 534 287 c 2,4,-1
 534 111 l 2,5,6
 534 61 534 61 559 61 c 2,7,-1
 811 61 l 2,8,9
 942 61 942 61 1083 37 c 0,10,11
 1220 12 1220 12 1220 -8 c 0,12,13
 1220 -43 1220 -43 1184 -47 c 1,14,-1
 924 -18 l 1,15,-1
 405 -18 l 2,16,17
 364 -18 364 -18 262 -33 c 0,18,19
 160 -47 160 -47 108 -47 c 0,20,21
 74 -47 74 -47 65 -41 c 0,22,23
 53 -33 53 -33 53 -2 c 0,24,25
 53 33 53 33 127 37 c 0,26,27
 172 37 172 37 274 45 c 0,28,29
 332 53 332 53 332 238 c 2,30,-1
 332 674 l 2,31,32
 332 711 332 711 307 913 c 0,33,34
 280 1147 280 1147 262 1196 c 0,35,36
 254 1217 254 1217 133 1239 c 0,37,38
 74 1249 74 1249 45 1257 c 0,39,40
 0 1270 0 1270 0 1290 c 0,41,42
 0 1329 0 1329 45 1329 c 1,43,44
 340 1270 340 1270 432 1270 c 0,45,46
 452 1270 452 1270 487 1294 c 0,47,48
 510 1311 510 1311 559 1350 c 0,49,50
 672 1436 672 1436 790 1436 c 2,51,-1
 915 1436 l 2,52,53
 1073 1436 1073 1436 1218 1300 c 0,54,55
 1376 1153 1376 1153 1376 958 c 2,56,-1
 1376 819 l 2,57,58
 1376 659 1376 659 1214 477 c 0,59,60
 1040 281 1040 281 854 281 c 2,0,-1
727 1313 m 0,61,62
 629 1313 629 1313 569 1247 c 0,63,64
 524 1198 524 1198 524 1157 c 2,65,-1
 524 760 l 2,66,67
 524 586 524 586 557 528 c 1,68,69
 592 487 592 487 745 436 c 0,70,71
 885 389 885 389 930 389 c 0,72,73
 1036 389 1036 389 1106 571 c 0,74,75
 1157 711 1157 711 1157 825 c 0,76,77
 1157 1036 1157 1036 1044 1171 c 0,78,79
 926 1313 926 1313 727 1313 c 0,61,62
EndSplineSet
EndChar

StartChar: Q
Encoding: 81 81 52
Width: 1550
Flags: W
LayerCount: 2
Fore
SplineSet
1481 -616 m 0,0,1
 1348 -616 1348 -616 1282 -547 c 0,2,3
 1233 -492 1233 -492 1213 -379 c 0,4,5
 1198 -281 1198 -281 1186 -180 c 1,6,7
 1170 -86 1170 -86 1135 -45 c 0,8,9
 1088 8 1088 8 996 8 c 0,10,11
 977 8 977 8 907 -4 c 0,12,13
 840 -16 840 -16 783 -16 c 0,14,15
 0 -16 0 -16 0 725 c 0,16,17
 0 766 0 766 21 879 c 0,18,19
 45 1001 45 1001 66 1042 c 0,20,21
 170 1255 170 1255 326 1343 c 0,22,23
 475 1430 475 1430 725 1430 c 0,24,25
 1063 1430 1063 1430 1254 1212 c 0,26,27
 1424 1016 1424 1016 1436 698 c 1,28,-1
 1436 674 l 2,29,30
 1436 567 1436 567 1407 455 c 0,31,32
 1372 324 1372 324 1313 248 c 0,33,34
 1262 180 1262 180 1202 137 c 2,35,-1
 1186 125 l 2,36,37
 1170 113 1170 113 1170 104 c 0,38,39
 1170 102 1170 102 1190 96 c 0,40,41
 1340 23 1340 23 1372 -76 c 0,42,43
 1391 -127 1391 -127 1399 -217 c 0,44,45
 1413 -324 1413 -324 1421 -360 c 0,46,47
 1456 -508 1456 -508 1591 -508 c 0,48,49
 1647 -508 1647 -508 1684 -438 c 0,50,51
 1718 -371 1718 -371 1741 -371 c 0,52,53
 1747 -371 1747 -371 1792 -397 c 1,54,55
 1698 -616 1698 -616 1481 -616 c 0,0,1
631 1348 m 0,56,57
 436 1348 436 1348 320 1225 c 0,58,59
 199 1094 199 1094 199 862 c 0,60,61
 199 547 199 547 367 315 c 0,62,63
 547 63 547 63 830 63 c 0,64,65
 1024 63 1024 63 1131 252 c 0,66,67
 1225 416 1225 416 1225 655 c 2,68,-1
 1225 668 l 2,69,70
 1223 926 1223 926 1065 1128 c 0,71,72
 891 1348 891 1348 631 1348 c 0,56,57
EndSplineSet
EndChar

StartChar: R
Encoding: 82 82 53
Width: 1687
Flags: W
LayerCount: 2
Fore
SplineSet
1581 8 m 2,0,-1
 1569 -12 l 1,1,-1
 1257 -12 l 2,2,3
 1200 -12 1200 -12 1083 170 c 0,4,5
 911 440 911 440 834 518 c 0,6,7
 725 627 725 627 586 627 c 1,8,9
 584 401 584 401 580 164 c 1,10,-1
 580 156 l 2,11,12
 580 90 580 90 618 70 c 0,13,14
 643 55 643 55 721 55 c 2,15,-1
 879 55 l 2,16,17
 920 55 920 55 920 18 c 0,18,19
 920 -35 920 -35 852 -35 c 1,20,-1
 674 -18 l 1,21,-1
 367 -18 l 1,22,-1
 125 -41 l 1,23,24
 78 -41 78 -41 78 8 c 0,25,26
 78 49 78 49 258 55 c 0,27,28
 299 57 299 57 305 61 c 0,29,30
 346 76 346 76 346 319 c 2,31,-1
 346 858 l 2,32,33
 346 905 346 905 334 1022 c 0,34,35
 315 1184 315 1184 291 1210 c 0,36,37
 276 1227 276 1227 131 1241 c 0,38,39
 0 1253 0 1253 0 1292 c 0,40,41
 0 1339 0 1339 41 1339 c 0,42,43
 45 1339 45 1339 55 1337 c 0,44,45
 117 1325 117 1325 180 1315 c 0,46,47
 334 1290 334 1290 403 1290 c 2,48,-1
 522 1290 l 2,49,50
 534 1290 534 1290 559 1311 c 0,51,52
 578 1327 578 1327 625 1362 c 0,53,54
 733 1436 733 1436 895 1436 c 0,55,56
 1085 1436 1085 1436 1212 1323 c 0,57,58
 1341 1208 1341 1208 1341 1028 c 0,59,60
 1341 909 1341 909 1296 831 c 0,61,62
 1253 762 1253 762 1155 696 c 0,63,64
 1122 676 1122 676 1059 633 c 1,65,66
 1128 506 1128 506 1247 344 c 0,67,68
 1305 270 1305 270 1395 143 c 0,69,70
 1438 78 1438 78 1513 70 c 0,71,72
 1561 66 1561 66 1563 66 c 0,73,74
 1587 57 1587 57 1587 29 c 0,75,76
 1587 14 1587 14 1581 8 c 2,0,-1
776 1288 m 0,77,78
 573 1288 573 1288 573 1087 c 2,79,-1
 573 928 l 2,80,81
 573 707 573 707 821 707 c 0,82,83
 932 707 932 707 1003 774 c 0,84,85
 1081 844 1081 844 1081 963 c 0,86,87
 1081 1104 1081 1104 1008 1192 c 0,88,89
 926 1288 926 1288 776 1288 c 0,77,78
EndSplineSet
EndChar

StartChar: S
Encoding: 83 83 54
Width: 1349
Flags: W
LayerCount: 2
Fore
SplineSet
690 -98 m 1,0,-1
 670 -98 l 2,1,2
 514 -98 514 -98 242 -37 c 0,3,4
 186 -25 186 -25 178 -25 c 0,5,6
 158 -25 158 -25 117 -162 c 0,7,8
 107 -199 107 -199 86 -262 c 0,9,10
 66 -315 66 -315 49 -315 c 0,11,12
 39 -315 39 -315 21 -299 c 0,13,14
 0 -283 0 -283 0 -268 c 1,15,16
 39 -176 39 -176 119 80 c 1,17,18
 143 276 143 276 182 276 c 1,19,20
 219 240 219 240 397 141 c 0,21,22
 641 8 641 8 782 8 c 0,23,24
 836 8 836 8 868 25 c 0,25,26
 965 72 965 72 1018 229 c 0,27,28
 1055 336 1055 336 1055 418 c 0,29,30
 1055 530 1055 530 1010 596 c 128,-1,31
 965 662 965 662 883 662 c 0,32,33
 836 662 836 662 600 596 c 0,34,35
 356 528 356 528 285 528 c 0,36,37
 180 528 180 528 121 614 c 0,38,39
 70 690 70 690 70 807 c 0,40,41
 70 1067 70 1067 199 1245 c 0,42,43
 332 1430 332 1430 545 1430 c 2,44,-1
 553 1430 l 2,45,46
 641 1427 641 1427 793 1311 c 0,47,48
 944 1196 944 1196 946 1196 c 0,49,50
 950 1196 950 1196 1001 1280 c 0,51,52
 1055 1364 1055 1364 1081 1364 c 0,53,54
 1098 1364 1098 1364 1114 1348 c 0,55,56
 1131 1331 1131 1331 1131 1309 c 1,57,58
 1106 1284 1106 1284 1026 1153 c 0,59,60
 926 985 926 985 926 913 c 0,61,62
 926 903 926 903 965 903 c 1,63,64
 1120 862 1120 862 1186 784 c 0,65,66
 1249 705 1249 705 1249 553 c 0,67,68
 1249 299 1249 299 1112 117 c 0,69,70
 956 -92 956 -92 690 -98 c 1,0,-1
446 1298 m 0,71,72
 354 1298 354 1298 305 1196 c 0,73,74
 262 1104 262 1104 262 965 c 0,75,76
 262 883 262 883 299 829 c 0,77,78
 340 770 340 770 414 770 c 0,79,80
 473 770 473 770 635 817 c 0,81,82
 805 866 805 866 848 899 c 1,83,84
 553 1298 553 1298 446 1298 c 0,71,72
EndSplineSet
EndChar

StartChar: T
Encoding: 84 84 55
Width: 1534
Flags: W
LayerCount: 2
Fore
SplineSet
1327 1292 m 0,0,1
 1280 1255 1280 1255 1233 1237 c 0,2,3
 1137 1202 1137 1202 988 1202 c 0,4,5
 834 1202 834 1202 826 1178 c 1,6,-1
 826 150 l 2,7,8
 826 92 826 92 973 90 c 0,9,10
 1014 90 1014 90 1084 88 c 1,11,12
 1141 82 1141 82 1141 49 c 0,13,14
 1141 33 1141 33 1129 14 c 1,15,16
 873 20 873 20 672 20 c 0,17,18
 574 20 574 20 463 -4 c 0,19,20
 353 -29 353 -29 332 -29 c 0,21,22
 277 -29 277 -29 277 43 c 1,23,-1
 588 96 l 1,24,25
 621 119 621 119 621 383 c 2,26,-1
 619 979 l 2,27,28
 617 1120 617 1120 602 1169 c 0,29,30
 590 1212 590 1212 541 1212 c 2,31,-1
 467 1212 l 2,32,33
 465 1212 465 1212 426 1214 c 2,34,-1
 353 1214 l 2,35,36
 162 1214 162 1214 119 1188 c 0,37,38
 74 1159 74 1159 74 1094 c 2,39,-1
 74 1038 l 1,40,41
 0 1038 0 1038 0 1122 c 0,42,43
 0 1196 0 1196 41 1268 c 0,44,45
 97 1366 97 1366 289 1366 c 0,46,47
 351 1366 351 1366 615 1356 c 0,48,49
 879 1343 879 1343 1014 1343 c 0,50,51
 1295 1343 1295 1343 1295 1380 c 0,52,53
 1295 1389 1295 1389 1278 1411 c 0,54,55
 1262 1436 1262 1436 1262 1448 c 256,56,57
 1262 1460 1262 1460 1272 1470 c 0,58,59
 1346 1528 1346 1528 1375 1528 c 0,60,61
 1401 1528 1401 1528 1418 1501 c 0,62,63
 1434 1477 1434 1477 1434 1450 c 0,64,65
 1434 1380 1434 1380 1327 1292 c 0,0,1
EndSplineSet
EndChar

StartChar: U
Encoding: 85 85 56
Width: 1602
Flags: W
LayerCount: 2
Fore
SplineSet
1360 6 m 0,0,1
 1305 6 1305 6 1254 41 c 0,2,3
 1192 84 1192 84 1156 156 c 0,4,5
 1145 178 1145 178 1141 182 c 0,6,7
 1129 199 1129 199 1115 201 c 1,8,9
 1049 141 1049 141 990 96 c 0,10,11
 873 10 873 10 801 2 c 0,12,13
 777 0 777 0 687 -18 c 0,14,15
 613 -31 613 -31 568 -31 c 0,16,17
 418 -31 418 -31 281 102 c 0,18,19
 222 162 222 162 193 279 c 0,20,21
 158 426 158 426 158 715 c 0,22,23
 158 1133 158 1133 146 1182 c 0,24,25
 130 1247 130 1247 66 1282 c 0,26,27
 27 1303 27 1303 17 1315 c 0,28,29
 0 1335 0 1335 0 1376 c 1,30,31
 134 1376 134 1376 224 1394.5 c 128,-1,32
 314 1413 314 1413 316 1413 c 0,33,34
 377 1413 377 1413 377 1329 c 0,35,36
 377 1311 377 1311 375 1231 c 0,37,38
 371 1149 371 1149 371 1081 c 2,39,-1
 371 940 l 2,40,41
 369 846 369 846 369 803 c 0,42,43
 369 510 369 510 410 385 c 0,44,45
 488 147 488 147 736 147 c 0,46,47
 830 147 830 147 914 180 c 0,48,49
 1018 223 1018 223 1065 305 c 1,50,51
 1113 406 1113 406 1113 621 c 0,52,53
 1113 721 1113 721 1100 842 c 0,54,55
 1096 881 1096 881 1092 1044 c 0,56,57
 1088 1171 1088 1171 1072 1245 c 0,58,59
 1068 1264 1068 1264 1022 1309 c 2,60,-1
 1008 1323 l 2,61,62
 977 1350 977 1350 977 1368 c 0,63,64
 977 1384 977 1384 1000 1397 c 1,65,66
 1123 1427 1123 1427 1244 1427 c 0,67,68
 1266 1427 1266 1427 1278 1421 c 0,69,70
 1301 1401 1301 1401 1301 1157 c 2,71,-1
 1301 537 l 2,72,73
 1301 334 1301 334 1332 250 c 0,74,75
 1373 139 1373 139 1502 98 c 1,76,77
 1493 63 1493 63 1455 37 c 0,78,79
 1412 6 1412 6 1360 6 c 0,0,1
EndSplineSet
EndChar

StartChar: V
Encoding: 86 86 57
Width: 1382
Flags: W
LayerCount: 2
Fore
SplineSet
1127 911 m 2,0,-1
 795 68 l 2,1,2
 752 -43 752 -43 719 -55 c 1,3,4
 648 -55 648 -55 615 74 c 0,5,6
 598 137 598 137 424 580 c 0,7,8
 234 1059 234 1059 170 1163 c 0,9,10
 121 1243 121 1243 52 1305 c 0,11,12
 37 1315 37 1315 17 1335 c 0,13,14
 0 1352 0 1352 0 1364 c 256,15,16
 0 1376 0 1376 9 1391 c 1,17,18
 29 1405 29 1405 265 1446 c 1,19,20
 302 1446 302 1446 328 1386 c 1,21,22
 342 1343 342 1343 383 1229 c 0,23,24
 691 451 691 451 770 309 c 1,25,26
 1104 1065 1104 1065 1104 1120 c 0,27,28
 1104 1130 1104 1130 1096 1161 c 0,29,30
 1070 1262 1070 1262 1070 1315 c 0,31,32
 1070 1327 1070 1327 1090 1393 c 1,33,-1
 1090 1389 l 1,34,35
 1090 1395 1090 1395 1127 1407 c 0,36,37
 1170 1421 1170 1421 1207 1421 c 0,38,39
 1250 1421 1250 1421 1266 1415 c 0,40,41
 1282 1407 1282 1407 1282 1389 c 0,42,43
 1282 1307 1282 1307 1127 911 c 2,0,-1
EndSplineSet
EndChar

StartChar: W
Encoding: 87 87 58
Width: 2199
Flags: W
LayerCount: 2
Fore
SplineSet
1808 410 m 0,0,1
 1767 295 1767 295 1726 180 c 0,2,3
 1656 0 1656 0 1615 -8 c 0,4,5
 1595 -8 1595 -8 1570 47 c 0,6,7
 1554 88 1554 88 1503 197 c 1,8,9
 1316 561 1316 561 1259 745 c 0,10,11
 1202 926 1202 926 1138 1016 c 1,12,13
 1110 985 1110 985 976 618 c 0,14,15
 903 408 903 408 827 197 c 0,16,17
 802 129 802 129 768 31 c 0,18,19
 751 -10 751 -10 718 -20 c 1,20,21
 686 -20 686 -20 331 752 c 0,22,23
 301 819 301 819 235 995 c 0,24,25
 186 1130 186 1130 161 1171 c 1,26,27
 0 1311 0 1311 0 1364 c 0,28,29
 0 1368 0 1368 6 1380 c 1,30,31
 16 1389 16 1389 122 1415 c 0,32,33
 229 1442 229 1442 256 1442 c 1,34,35
 278 1438 278 1438 423 1104 c 0,36,37
 557 797 557 797 591 694 c 0,38,39
 608 647 608 647 669 514 c 0,40,41
 741 358 741 358 780 309 c 1,42,43
 800 330 800 330 819 385 c 0,44,45
 833 436 833 436 878 571 c 1,46,47
 921 686 921 686 964 797 c 0,48,49
 1007 909 1007 909 1013 926 c 0,50,51
 1052 1028 1052 1028 1075 1112 c 0,52,53
 1091 1169 1091 1169 1130 1262 c 0,54,55
 1171 1362 1171 1362 1185 1366 c 1,56,57
 1212 1366 1212 1366 1374 999 c 0,58,59
 1501 709 1501 709 1550 578 c 0,60,61
 1558 553 1558 553 1603 461 c 0,62,63
 1658 348 1658 348 1681 317 c 1,64,65
 1714 399 1714 399 1814 725 c 0,66,67
 1912 1042 1912 1042 1921 1087 c 0,68,69
 1927 1120 1927 1120 1927 1153 c 0,70,71
 1927 1192 1927 1192 1916 1266 c 0,72,73
 1908 1341 1908 1341 1908 1382 c 1,74,75
 2021 1415 2021 1415 2099 1415 c 1,76,77
 2099 1364 2099 1364 1974 940 c 0,78,79
 1857 547 1857 547 1808 410 c 0,0,1
EndSplineSet
EndChar

StartChar: X
Encoding: 88 88 59
Width: 1327
Flags: W
LayerCount: 2
Fore
SplineSet
1032 -27 m 1,0,1
 993 -12 993 -12 961 4 c 0,2,3
 881 43 881 43 840 86 c 0,4,5
 746 182 746 182 666 352 c 0,6,7
 643 401 643 401 621 451 c 1,8,9
 588 512 588 512 561 539 c 1,10,11
 537 516 537 516 475 389 c 0,12,13
 399 238 399 238 391 223 c 0,14,15
 307 86 307 86 266 37 c 0,16,17
 199 -39 199 -39 137 -39 c 0,18,19
 102 -39 102 -39 53 -4 c 0,20,21
 0 33 0 33 0 66 c 0,22,23
 0 94 0 94 109 115 c 0,24,25
 135 121 135 121 150 125 c 0,26,27
 176 135 176 135 252 219 c 0,28,29
 324 301 324 301 344 338 c 0,30,31
 383 403 383 403 451 524 c 0,32,33
 500 610 500 610 502 655 c 1,34,35
 375 897 375 897 215 1190 c 1,36,37
 176 1251 176 1251 115 1251 c 2,38,-1
 88 1251 l 2,39,40
 53 1251 53 1251 43 1282 c 1,41,42
 43 1311 43 1311 64 1329 c 0,43,44
 66 1331 66 1331 107 1358 c 0,45,46
 152 1386 152 1386 170 1409 c 0,47,48
 178 1419 178 1419 201 1432 c 1,49,50
 221 1436 221 1436 229 1436 c 0,51,52
 340 1436 340 1436 479 1167 c 0,53,54
 512 1102 512 1102 569 985 c 0,55,56
 610 907 610 907 625 905 c 0,57,58
 635 907 635 907 725 1065 c 0,59,60
 752 1110 752 1110 807 1202 c 0,61,62
 848 1274 848 1274 883 1317 c 0,63,64
 956 1413 956 1413 1004 1413 c 0,65,66
 1028 1413 1028 1413 1057 1395 c 0,67,68
 1088 1374 1088 1374 1088 1352 c 0,69,70
 1088 1321 1088 1321 981 1249 c 1,71,72
 682 885 682 885 682 801 c 0,73,74
 682 766 682 766 809 541 c 0,75,76
 942 309 942 309 1006 242 c 0,77,78
 1079 166 1079 166 1116 158 c 0,79,80
 1124 158 1124 158 1151 162 c 128,-1,81
 1178 166 1178 166 1190 166 c 0,82,83
 1227 166 1227 166 1227 127 c 1,84,85
 1104 -27 1104 -27 1032 -27 c 1,0,1
EndSplineSet
EndChar

StartChar: Y
Encoding: 89 89 60
Width: 1156
Flags: W
LayerCount: 2
Fore
SplineSet
1034 1303 m 0,0,1
 1022 1274 1022 1274 993 1208 c 0,2,3
 897 971 897 971 764 752 c 0,4,5
 692 635 692 635 692 520 c 0,6,7
 692 418 692 418 690 311 c 0,8,9
 688 205 688 205 688 190 c 0,10,11
 688 129 688 129 706 109 c 0,12,13
 723 90 723 90 766 90 c 0,14,15
 776 90 776 90 802 92 c 0,16,17
 831 94 831 94 847 94 c 0,18,19
 895 94 895 94 925 86 c 0,20,21
 950 80 950 80 950 47 c 256,22,23
 950 14 950 14 925 6 c 1,24,25
 897 6 897 6 835 10 c 0,26,27
 776 12 776 12 745 12 c 0,28,29
 655 12 655 12 544 -4 c 0,30,31
 454 -18 454 -18 338 -43 c 0,32,33
 262 -59 262 -59 256 -59 c 0,34,35
 239 -59 239 -59 225 -45 c 0,36,37
 211 -27 211 -27 211 -12 c 0,38,39
 211 31 211 31 356 66 c 1,40,-1
 395 74 l 2,41,42
 436 84 436 84 442 88 c 0,43,44
 483 115 483 115 483 410 c 0,45,46
 483 571 483 571 479 586 c 0,47,48
 460 655 460 655 370 791 c 0,49,50
 243 983 243 983 133 1198 c 0,51,52
 102 1260 102 1260 36 1278 c 0,53,54
 4 1288 4 1288 0 1317 c 0,55,56
 0 1339 0 1339 92 1389 c 0,57,58
 186 1436 186 1436 229 1436 c 1,59,60
 252 1432 252 1432 313 1317 c 0,61,62
 358 1233 358 1233 438 1073 c 0,63,64
 612 729 612 729 641 717 c 1,65,66
 655 729 655 729 743 893 c 0,67,68
 837 1069 837 1069 856 1139 c 0,69,70
 870 1188 870 1188 888 1354 c 0,71,72
 897 1421 897 1421 960 1421 c 0,73,74
 979 1421 979 1421 1056 1411 c 1,75,76
 1056 1354 1056 1354 1034 1303 c 0,0,1
EndSplineSet
EndChar

StartChar: Z
Encoding: 90 90 61
Width: 1288
Flags: W
LayerCount: 2
Fore
SplineSet
1120 -330 m 0,0,1
 1094 -330 1094 -330 1094 -283 c 0,2,3
 1094 -262 1094 -262 1102 -195.5 c 128,-1,4
 1110 -129 1110 -129 1110 -94 c 0,5,6
 1110 -66 1110 -66 1104 -41 c 0,7,8
 1104 -31 1104 -31 1063 -20 c 0,9,10
 1002 -4 1002 -4 844 -2 c 0,11,12
 725 0 725 0 279 0 c 0,13,14
 166 0 166 0 90 -8 c 2,15,-1
 16 -16 l 1,16,17
 0 -12 0 -12 0 8 c 0,18,19
 0 45 0 45 68 143 c 0,20,21
 111 201 111 201 191 311 c 0,22,23
 240 381 240 381 395 575 c 0,24,25
 541 758 541 758 565 799 c 0,26,27
 582 825 582 825 629 885 c 0,28,29
 651 915 651 915 717 999 c 0,30,31
 838 1157 838 1157 872 1231 c 1,32,33
 815 1235 815 1235 698 1235 c 0,34,35
 586 1235 586 1235 410 1233 c 2,36,-1
 244 1229 l 1,37,38
 178 1219 178 1219 102 1206 c 1,39,40
 86 1192 86 1192 80 1180 c 0,41,42
 55 1147 55 1147 35 1147 c 0,43,44
 16 1147 16 1147 8 1176 c 0,45,46
 8 1190 8 1190 23 1284 c 0,47,48
 37 1393 37 1393 47 1401 c 0,49,50
 76 1427 76 1427 442 1427 c 0,51,52
 614 1427 614 1427 897 1423 c 0,53,54
 950 1423 950 1423 999 1425 c 2,55,-1
 1049 1427 l 2,56,57
 1075 1427 1075 1427 1083 1397 c 0,58,59
 1088 1389 1088 1389 1088 1382 c 0,60,61
 1088 1366 1088 1366 1047 1315 c 0,62,63
 979 1231 979 1231 920 1137 c 1,64,65
 729 885 729 885 447 498 c 0,66,67
 430 475 430 475 322 346 c 0,68,69
 254 266 254 266 238 207 c 1,70,71
 432 207 432 207 590 211 c 0,72,73
 750 215 750 215 758 215 c 0,74,75
 819 215 819 215 872 207 c 1,76,77
 948 203 948 203 1079 186 c 1,78,79
 1178 166 1178 166 1188 59 c 1,80,81
 1184 -45 1184 -45 1180 -121 c 0,82,83
 1167 -305 1167 -305 1151 -317 c 0,84,85
 1133 -330 1133 -330 1120 -330 c 0,0,1
EndSplineSet
EndChar

StartChar: bracketleft
Encoding: 91 91 62
Width: 1020
Flags: W
LayerCount: 2
Fore
SplineSet
532 6 m 0,1,2
 542 -16 542 -16 589 -16 c 0,3,4
 603 -16 603 -16 683 -8 c 1,5,6
 687 3 687 3 777 47 c 0,7,8
 783 51 783 51 801 69 c 2,9,-1
 810 79 l 2,10,11
 836 112 836 112 920 120 c 1,12,-1
 915 -104 l 1,13,-1
 828 -104 l 1,14,15
 816 -100 816 -100 765 -100 c 2,16,-1
 697 -100 l 2,17,18
 652 -102 652 -102 629 -102 c 2,19,-1
 530 -102 l 1,20,-1
 347 -116 l 2,21,22
 309 -120 309 -120 163 -129 c 0,23,24
 85 -133 85 -133 79 -133 c 0,25,26
 14 -133 14 -133 5 -112 c 0,27,28
 1 -96 1 -96 1 -90 c 0,29,30
 1 -57 1 -57 48 -49 c 0,31,32
 65 -47 65 -47 137 -43 c 0,33,34
 196 -41 196 -41 218 -34 c 0,35,36
 259 -24 259 -24 266 4 c 1,37,-1
 266 1411 l 1,38,39
 259 1439 259 1439 218 1449 c 0,40,41
 196 1456 196 1456 137 1458 c 0,42,43
 65 1462 65 1462 48 1464 c 0,44,45
 1 1472 1 1472 1 1505 c 0,46,47
 1 1511 1 1511 5 1527 c 0,48,49
 14 1548 14 1548 79 1548 c 0,50,51
 85 1548 85 1548 163 1544 c 0,52,53
 309 1535 309 1535 347 1531 c 2,54,-1
 530 1517 l 1,55,-1
 629 1517 l 2,56,57
 652 1517 652 1517 697 1515 c 2,58,-1
 765 1515 l 2,59,60
 816 1515 816 1515 828 1519 c 1,61,-1
 915 1519 l 1,62,-1
 920 1295 l 1,63,64
 836 1303 836 1303 810 1336 c 2,65,-1
 801 1346 l 2,66,67
 783 1364 783 1364 777 1368 c 0,68,69
 687 1412 687 1412 683 1423 c 1,70,71
 603 1431 603 1431 589 1431 c 0,72,73
 542 1431 542 1431 532 1409 c 0,74,75
 517 1374 517 1374 513 1298 c 2,76,-1
 512 708 l 1,77,-1
 513 117 l 2,78,0
 517 41 517 41 532 6 c 0,1,2
EndSplineSet
EndChar

StartChar: backslash
Encoding: 92 92 63
Width: 1244
Flags: W
LayerCount: 2
Fore
SplineSet
973 -7 m 1,0,1
 938 6 938 6 907 22 c 0,2,3
 830 59 830 59 791 100 c 0,4,5
 700 194 700 194 621 361 c 0,6,7
 598 409 598 409 576 460 c 1,8,9
 541 524 541 524 514 551 c 1,10,-1
 457 664 l 1,11,12
 330 906 330 906 169 1200 c 1,13,14
 124 1271 124 1271 52 1271 c 2,15,-1
 25 1271 l 2,16,17
 5 1271 5 1271 0 1285 c 1,18,19
 0 1302 0 1302 15 1314 c 0,20,21
 16 1315 16 1315 55 1341 c 0,22,23
 103 1371 103 1371 123 1397 c 0,24,25
 128 1403 128 1403 145 1413 c 1,26,27
 160 1416 160 1416 166 1416 c 0,28,29
 265 1416 265 1416 398 1158 c 0,30,31
 431 1093 431 1093 488 976 c 0,32,33
 530 897 530 897 599 795 c 1,34,35
 599 761 599 761 729 531 c 0,36,37
 863 297 863 297 929 228 c 0,38,39
 1006 148 1006 148 1051 138 c 0,40,41
 1062 138 1062 138 1089 142 c 128,-1,42
 1116 146 1116 146 1127 146 c 0,43,44
 1144 146 1144 146 1144 134 c 1,45,46
 1031 -7 1031 -7 973 -7 c 1,0,1
EndSplineSet
EndChar

StartChar: bracketright
Encoding: 93 93 64
Width: 1020
Flags: W
LayerCount: 2
Fore
SplineSet
408 117 m 2,0,-1
 409 708 l 1,1,-1
 408 1298 l 2,2,3
 404 1374 404 1374 389 1409 c 0,4,5
 379 1431 379 1431 332 1431 c 0,6,7
 318 1431 318 1431 238 1423 c 1,8,9
 234 1412 234 1412 144 1368 c 0,10,11
 138 1364 138 1364 120 1346 c 2,12,-1
 111 1336 l 2,13,14
 85 1303 85 1303 1 1295 c 1,15,-1
 6 1519 l 1,16,-1
 93 1519 l 1,17,18
 105 1515 105 1515 156 1515 c 2,19,-1
 224 1515 l 2,20,21
 269 1517 269 1517 292 1517 c 2,22,-1
 391 1517 l 1,23,-1
 574 1531 l 2,24,25
 612 1535 612 1535 758 1544 c 0,26,27
 836 1548 836 1548 842 1548 c 0,28,29
 907 1548 907 1548 916 1527 c 0,30,31
 920 1511 920 1511 920 1505 c 0,32,33
 920 1472 920 1472 873 1464 c 0,34,35
 856 1462 856 1462 784 1458 c 0,36,37
 725 1456 725 1456 703 1449 c 0,38,39
 662 1439 662 1439 655 1411 c 1,40,-1
 655 4 l 1,41,42
 662 -24 662 -24 703 -34 c 0,43,44
 725 -41 725 -41 784 -43 c 0,45,46
 856 -47 856 -47 873 -49 c 0,47,48
 920 -57 920 -57 920 -90 c 0,49,50
 920 -96 920 -96 916 -112 c 0,51,52
 907 -133 907 -133 842 -133 c 0,53,54
 836 -133 836 -133 758 -129 c 0,55,56
 612 -120 612 -120 574 -116 c 2,57,-1
 391 -102 l 1,58,-1
 292 -102 l 2,59,60
 269 -102 269 -102 224 -100 c 2,61,-1
 156 -100 l 2,62,63
 105 -100 105 -100 93 -104 c 1,64,-1
 6 -104 l 1,65,-1
 1 120 l 1,66,67
 85 112 85 112 111 79 c 2,68,-1
 120 69 l 2,69,70
 138 51 138 51 144 47 c 0,71,72
 234 3 234 3 238 -8 c 1,73,74
 318 -16 318 -16 332 -16 c 0,75,76
 379 -16 379 -16 389 6 c 0,77,78
 404 41 404 41 408 117 c 2,0,-1
EndSplineSet
EndChar

StartChar: asciicircum
Encoding: 94 94 65
Width: 680
Flags: W
LayerCount: 2
Fore
SplineSet
448 1539 m 0,0,1
 304 1702 304 1702 273 1702 c 0,2,3
 252 1702 252 1702 204 1646 c 0,4,5
 172 1609 172 1609 90 1521 c 1,6,7
 63 1500 63 1500 43 1500 c 0,8,9
 6 1500 6 1500 0 1560 c 1,10,11
 51 1677 51 1677 174 1795 c 0,12,13
 287 1903 287 1903 335 1903 c 0,14,15
 341 1903 341 1903 345 1900 c 0,16,17
 403 1851 403 1851 463 1785 c 0,18,19
 495 1748 495 1748 566 1670 c 0,20,21
 569 1661 569 1661 571 1651 c 2,22,-1
 580 1601 l 1,23,24
 528 1523 528 1523 490 1523 c 0,25,26
 467 1523 467 1523 448 1539 c 0,0,1
EndSplineSet
EndChar

StartChar: underscore
Encoding: 95 95 66
Width: 1490
Flags: W
LayerCount: 2
Fore
SplineSet
559 -29 m 2,1,-1
 981 -29 l 2,2,3
 1112 -29 1112 -29 1253 -43 c 1,4,5
 1390 -68 1390 -68 1390 -98 c 0,6,7
 1390 -153 1390 -153 1354 -157 c 1,8,-1
 1094 -148 l 1,9,-1
 405 -148 l 2,10,11
 314 -148 314 -148 212 -163 c 0,12,13
 110 -177 110 -177 58 -177 c 0,14,15
 24 -177 24 -177 15 -171 c 0,16,17
 3 -163 3 -163 3 -92 c 0,18,19
 3 -57 3 -57 77 -53 c 0,20,21
 122 -53 122 -53 224 -45 c 0,22,23
 282 -37 282 -37 408 -33 c 128,-1,0
 534 -29 534 -29 559 -29 c 2,1,-1
EndSplineSet
EndChar

StartChar: grave
Encoding: 96 96 67
Width: 750
Flags: W
LayerCount: 2
Fore
SplineSet
527 1499 m 0,0,1
 352 1499 352 1499 252 1567 c 1,2,3
 195 1590 195 1590 0 1780 c 1,4,5
 39 1801 39 1801 80 1801 c 0,6,7
 161 1801 161 1801 412 1716 c 0,8,9
 435 1707 435 1707 470 1697 c 128,-1,10
 505 1687 505 1687 575 1625 c 0,11,12
 650 1555 650 1555 650 1513 c 1,13,14
 586 1499 586 1499 527 1499 c 0,0,1
EndSplineSet
EndChar

StartChar: a
Encoding: 97 97 68
Width: 1032
Flags: W
LayerCount: 2
Fore
SplineSet
799 -23 m 0,0,1
 668 -23 668 -23 588 35 c 0,2,3
 571 49 571 49 541 76 c 0,4,5
 520 90 520 90 508 90 c 0,6,7
 494 90 494 90 469 74 c 0,8,9
 448 59 448 59 418 33 c 1,10,11
 330 -27 330 -27 219 -27 c 0,12,13
 102 -27 102 -27 51 4 c 128,-1,14
 0 35 0 35 0 111 c 0,15,16
 0 199 0 199 102 279 c 0,17,18
 172 330 172 330 256 360 c 0,19,20
 319 381 319 381 430 426 c 1,21,22
 512 467 512 467 512 510 c 0,23,24
 512 600 512 600 442 655 c 0,25,26
 385 702 385 702 311 702 c 0,27,28
 297 702 297 702 256 690 c 0,29,30
 211 674 211 674 211 662 c 0,31,32
 211 655 211 655 240 643 c 0,33,34
 270 631 270 631 270 608 c 0,35,36
 270 592 270 592 225 569 c 0,37,38
 178 547 178 547 135 547 c 0,39,40
 61 547 61 547 22 614 c 0,41,42
 12 627 12 627 12 649 c 0,43,44
 12 721 12 721 166 778 c 0,45,46
 297 825 297 825 410 825 c 0,47,48
 494 825 494 825 606 774 c 0,49,50
 743 713 743 713 743 633 c 2,51,-1
 743 238 l 2,52,53
 743 213 743 213 758 182 c 0,54,55
 774 150 774 150 795 139 c 0,56,57
 854 111 854 111 903 98 c 0,58,59
 932 90 932 90 932 63 c 0,60,61
 932 39 932 39 881 8 c 0,62,63
 831 -23 831 -23 799 -23 c 0,0,1
502 369 m 1,64,65
 397 328 397 328 319 279 c 0,66,67
 229 219 229 219 229 184 c 0,68,69
 229 90 229 90 315 90 c 0,70,71
 362 90 362 90 414 127 c 0,72,73
 506 193 506 193 506 322 c 0,74,75
 506 344 506 344 502 369 c 1,64,65
EndSplineSet
EndChar

StartChar: b
Encoding: 98 98 69
Width: 1005
Flags: W
LayerCount: 2
Fore
SplineSet
733 59 m 0,0,1
 630 -2 630 -2 624 -4 c 0,2,3
 569 -31 569 -31 497 -31 c 0,4,5
 340 -31 340 -31 239 57 c 0,6,7
 135 145 135 145 135 287 c 2,8,-1
 135 1120 l 2,9,10
 135 1165 135 1165 67 1217 c 0,11,12
 0 1266 0 1266 0 1288 c 0,13,14
 0 1315 0 1315 69 1321 c 0,15,16
 104 1323 104 1323 163 1327 c 1,17,18
 299 1395 299 1395 319 1395 c 1,19,-1
 319 686 l 1,20,21
 350 692 350 692 442 754 c 0,22,23
 546 825 546 825 618 825 c 0,24,25
 761 825 761 825 839 684 c 0,26,27
 905 565 905 565 905 397 c 0,28,29
 903 162 903 162 733 59 c 0,0,1
522 694 m 0,30,31
 465 694 465 694 393 631 c 0,32,33
 323 565 323 565 323 512 c 2,34,-1
 323 309 l 2,35,36
 323 205 323 205 415 131 c 0,37,38
 493 72 493 72 561 72 c 0,39,40
 639 72 639 72 690 170 c 0,41,42
 733 256 733 256 733 358 c 0,43,44
 733 530 733 530 634 629 c 0,45,46
 567 694 567 694 522 694 c 0,30,31
EndSplineSet
EndChar

StartChar: c
Encoding: 99 99 70
Width: 813
Flags: W
LayerCount: 2
Fore
SplineSet
364 -20 m 0,0,1
 172 -20 172 -20 78 90 c 0,2,3
 0 180 0 180 0 330 c 0,4,5
 0 524 0 524 94 662 c 0,6,7
 205 821 205 821 403 821 c 0,8,9
 467 821 467 821 565 782 c 0,10,11
 686 735 686 735 686 672 c 0,12,13
 686 641 686 641 579 563 c 1,14,15
 571 563 571 563 559 575 c 0,16,17
 551 584 551 584 543 592 c 0,18,19
 410 731 410 731 326 731 c 0,20,21
 268 731 268 731 229 635 c 0,22,23
 192 547 192 547 192 442 c 0,24,25
 192 297 192 297 262 205 c 0,26,27
 340 102 340 102 487 102 c 0,28,29
 534 102 534 102 597.5 167.5 c 128,-1,30
 661 233 661 233 670 233 c 0,31,32
 682 233 682 233 696 217 c 0,33,34
 713 199 713 199 713 190 c 0,35,36
 713 164 713 164 606 80 c 0,37,38
 481 -20 481 -20 364 -20 c 0,0,1
EndSplineSet
EndChar

StartChar: d
Encoding: 100 100 71
Width: 1016
Flags: W
LayerCount: 2
Fore
SplineSet
875 96 m 0,0,1
 850 84 850 84 793 51 c 2,2,-1
 770 37 l 1,3,-1
 723 6 l 2,4,5
 651 -41 651 -41 643 -41 c 0,6,7
 592 -41 592 -41 590 123 c 1,8,9
 576 119 576 119 488 43 c 0,10,11
 385 -45 385 -45 289 -45 c 0,12,13
 191 -45 191 -45 107 53 c 0,14,15
 0 178 0 178 0 399 c 2,16,-1
 0 416 l 1,17,18
 8 829 8 829 387 829 c 1,19,-1
 584 745 l 1,20,21
 582 748 582 748 580 840 c 0,22,23
 576 1198 576 1198 549 1235 c 0,24,25
 533 1257 533 1257 475 1300 c 0,26,27
 418 1343 418 1343 418 1362 c 0,28,29
 418 1374 418 1374 526 1401 c 0,30,31
 643 1430 643 1430 723 1430 c 0,32,33
 778 1430 778 1430 778 1372 c 0,34,35
 778 1360 778 1360 776 1341 c 0,36,37
 772 1321 772 1321 772 1315 c 2,38,-1
 772 170 l 2,39,40
 772 141 772 141 787 135 c 1,41,42
 864 184 864 184 875 184 c 0,43,44
 916 184 916 184 916 139 c 0,45,46
 916 115 916 115 875 96 c 0,0,1
580 524 m 2,47,48
 580 596 580 596 498 672 c 0,49,50
 430 735 430 735 404 735 c 0,51,52
 295 735 295 735 236 649 c 0,53,54
 184 575 184 575 184 457 c 0,55,56
 184 322 184 322 246 217 c 0,57,58
 311 102 311 102 408 102 c 0,59,60
 445 102 445 102 510 162 c 0,61,62
 580 227 580 227 580 287 c 2,63,-1
 580 524 l 2,47,48
EndSplineSet
EndChar

StartChar: e
Encoding: 101 101 72
Width: 817
Flags: W
LayerCount: 2
Fore
SplineSet
666 645 m 0,0,1
 641 633 641 633 609 616 c 0,2,3
 525 575 525 575 353 485 c 0,4,5
 197 399 197 399 197 360 c 0,6,7
 197 250 197 250 262 176 c 0,8,9
 330 94 330 94 447 94 c 0,10,11
 500 94 500 94 567.5 146.5 c 128,-1,12
 635 199 635 199 654 199 c 0,13,14
 670 199 670 199 693 158 c 1,15,16
 660 119 660 119 582 41 c 1,17,18
 416 -41 416 -41 322 -41 c 0,19,20
 197 -41 197 -41 107 53 c 0,21,22
 0 162 0 162 0 352 c 0,23,24
 0 358 0 358 2 393 c 0,25,26
 27 803 27 803 394 803 c 0,27,28
 475 803 475 803 543 748 c 0,29,30
 602 698 602 698 615 698 c 0,31,32
 621 698 621 698 647.5 712.5 c 128,-1,33
 674 727 674 727 686 727 c 0,34,35
 717 727 717 727 717 688 c 0,36,37
 717 674 717 674 666 645 c 0,0,1
322 711 m 0,38,39
 246 711 246 711 203 492 c 1,40,41
 250 510 250 510 334 551 c 0,42,43
 426 594 426 594 426 602 c 0,44,45
 426 614 426 614 379 662 c 0,46,47
 330 711 330 711 322 711 c 0,38,39
EndSplineSet
EndChar

StartChar: f
Encoding: 102 102 73
Width: 550
Flags: W
LayerCount: 2
Fore
SplineSet
609 1167 m 0,0,1
 601 1167 601 1167 576 1192 c 0,2,3
 457 1311 457 1311 406 1311 c 0,4,5
 310 1311 310 1311 310 1116 c 2,6,-1
 310 817 l 2,7,8
 310 799 310 799 332 795 c 1,9,10
 355 795 355 795 377 793 c 2,11,-1
 390 793 l 2,12,13
 465 793 465 793 465 750 c 0,14,15
 465 686 465 686 404 686 c 0,16,17
 396 686 396 686 379 688 c 2,18,-1
 355 688 l 2,19,20
 297 688 297 688 297 616 c 2,21,-1
 297 193 l 2,22,23
 297 74 297 74 267 4 c 0,24,25
 226 -84 226 -84 115 -147 c 1,26,-1
 115 592 l 2,27,28
 115 664 115 664 56 664 c 2,29,-1
 33 664 l 2,30,31
 0 664 0 664 0 688 c 0,32,33
 0 711 0 711 54 745 c 0,34,35
 105 780 105 780 105 793 c 2,36,-1
 105 965 l 2,37,38
 105 1192 105 1192 236 1309 c 0,39,40
 351 1413 351 1413 541 1413 c 0,41,42
 584 1413 584 1413 646 1378 c 0,43,44
 713 1341 713 1341 713 1307 c 0,45,46
 713 1290 713 1290 674 1231 c 0,47,48
 631 1167 631 1167 609 1167 c 0,0,1
EndSplineSet
EndChar

StartChar: g
Encoding: 103 103 74
Width: 1146
Flags: W
LayerCount: 2
Fore
SplineSet
485 -651 m 0,0,1
 481 -651 481 -651 432 -649 c 0,2,3
 239 -641 239 -641 147 -608 c 0,4,5
 0 -555 0 -555 0 -420 c 0,6,7
 0 -328 0 -328 241 -133 c 1,8,9
 194 -123 194 -123 147 -111 c 1,10,11
 92 -90 92 -90 92 -45 c 0,12,13
 92 23 92 23 196 102 c 2,14,-1
 301 180 l 1,15,16
 288 182 288 182 272 188 c 0,17,18
 221 199 221 199 174 223 c 1,19,20
 63 291 63 291 63 451 c 0,21,22
 63 602 63 602 182 711 c 0,23,24
 299 821 299 821 467 821 c 0,25,26
 555 821 555 821 653 776 c 0,27,28
 747 733 747 733 757 733 c 2,29,-1
 1017 733 l 1,30,-1
 1017 684 l 1,31,32
 997 639 997 639 995 639 c 0,33,34
 981 614 981 614 952 614 c 0,35,36
 936 614 936 614 907 621 c 1,37,-1
 790 621 l 1,38,-1
 790 543 l 2,39,40
 790 324 790 324 628 238 c 0,41,42
 620 233 620 233 604 227 c 2,43,-1
 559 211 l 2,44,45
 268 104 268 104 268 37 c 0,46,47
 268 -12 268 -12 381 -12 c 2,48,-1
 729 -12 l 2,49,50
 886 -12 886 -12 972 -90 c 0,51,52
 1046 -158 1046 -158 1046 -262 c 0,53,54
 1046 -432 1046 -432 893 -541 c 0,55,56
 737 -651 737 -651 485 -651 c 0,0,1
608 471 m 0,57,58
 583 586 583 586 520 662 c 0,59,60
 458 735 458 735 397 735 c 0,61,62
 329 735 329 735 286 672 c 0,63,64
 245 612 245 612 245 532 c 0,65,66
 245 406 245 406 333 328 c 0,67,68
 403 264 403 264 479 264 c 0,69,70
 538 264 538 264 577 309 c 0,71,72
 614 354 614 354 614 422 c 0,73,74
 614 442 614 442 608 471 c 0,57,58
573 -147 m 0,75,76
 536 -145 536 -145 532 -145 c 0,77,78
 378 -145 378 -145 260 -219 c 0,79,80
 153 -285 153 -285 153 -354 c 0,81,82
 153 -457 153 -457 284 -516 c 0,83,84
 397 -567 397 -567 561 -567 c 0,85,86
 700 -567 700 -567 784 -483 c 0,87,88
 852 -414 852 -414 852 -328 c 0,89,90
 852 -250 852 -250 804 -211 c 0,91,92
 741 -158 741 -158 573 -147 c 0,75,76
EndSplineSet
EndChar

StartChar: h
Encoding: 104 104 75
Width: 1120
Flags: W
LayerCount: 2
Fore
SplineSet
875 143 m 1,0,1
 893 145 893 145 983 215 c 1,2,3
 1020 186 1020 186 1020 166 c 0,4,5
 1020 141 1020 141 975 117 c 0,6,7
 946 102 946 102 885 68 c 1,8,9
 850 43 850 43 815 20 c 0,10,11
 768 -10 768 -10 742 -10 c 0,12,13
 721 -10 721 -10 711 8 c 0,14,15
 703 23 703 23 703 94 c 0,16,17
 703 125 703 125 705 176 c 2,18,-1
 705 238 l 2,19,20
 705 451 705 451 676 545 c 0,21,22
 633 694 633 694 506 707 c 0,23,24
 488 707 488 707 420 674 c 0,25,26
 353 641 353 641 344 629 c 0,27,28
 340 625 340 625 340 532 c 0,29,30
 340 477 340 477 344 334 c 0,31,32
 346 190 346 190 346 133 c 0,33,34
 346 66 346 66 344 41 c 1,35,36
 291 12 291 12 146 -43 c 1,37,38
 137 -27 137 -27 137 84 c 0,39,40
 137 150 137 150 142 446 c 0,41,42
 146 743 146 743 146 926 c 2,43,-1
 146 993 l 2,44,45
 146 1157 146 1157 125 1202 c 0,46,47
 111 1235 111 1235 21 1296 c 0,48,49
 0 1311 0 1311 0 1321 c 0,50,51
 0 1335 0 1335 25 1337 c 0,52,53
 54 1341 54 1341 156 1368 c 0,54,55
 248 1393 248 1393 283 1393 c 0,56,57
 312 1393 312 1393 326 1376 c 1,58,59
 322 1180 322 1180 322 1018 c 0,60,61
 322 721 322 721 326 717 c 1,62,63
 328 719 328 719 346 733 c 0,64,65
 463 823 463 823 566 823 c 0,66,67
 670 823 670 823 774 745 c 0,68,69
 875 670 875 670 875 236 c 2,70,-1
 875 143 l 1,0,1
EndSplineSet
EndChar

StartChar: i
Encoding: 105 105 76
Width: 627
Flags: W
LayerCount: 2
Fore
SplineSet
252 1040 m 1,0,1
 209 1059 209 1059 209 1081 c 0,2,3
 209 1090 209 1090 224 1114 c 0,4,5
 238 1141 238 1141 275 1231 c 0,6,7
 281 1249 281 1249 297 1276 c 1,8,9
 318 1300 318 1300 414 1309 c 1,10,11
 484 1309 484 1309 484 1262 c 0,12,13
 484 1204 484 1204 406 1126 c 0,14,15
 324 1047 324 1047 252 1040 c 1,0,1
486 141 m 0,16,17
 465 129 465 129 437 113 c 0,18,19
 377 68 377 68 248 -8 c 0,20,21
 215 -29 215 -29 205 -29 c 0,22,23
 187 -29 187 -29 172 -8 c 0,24,25
 166 4 166 4 166 434 c 2,26,-1
 166 510 l 2,27,28
 166 641 166 641 144 680 c 0,29,30
 123 717 123 717 39 754 c 0,31,32
 0 772 0 772 0 797 c 0,33,34
 0 809 0 809 11 825 c 1,35,36
 136 858 136 858 322 899 c 1,37,38
 377 899 377 899 377 836 c 0,39,40
 377 823 377 823 375 798.5 c 128,-1,41
 373 774 373 774 373 764 c 2,42,-1
 373 168 l 1,43,44
 396 172 396 172 439 199 c 0,45,46
 480 223 480 223 494 223 c 0,47,48
 504 223 504 223 510 217 c 0,49,50
 527 207 527 207 527 190 c 0,51,52
 527 168 527 168 486 141 c 0,16,17
EndSplineSet
EndChar

StartChar: j
Encoding: 106 106 77
Width: 717
Flags: W
LayerCount: 2
Fore
SplineSet
483 993 m 0,0,1
 440 965 440 965 416 965 c 0,2,3
 389 965 389 965 381 987 c 1,4,5
 381 999 381 999 393 1020 c 0,6,7
 406 1038 406 1038 424 1083 c 0,8,9
 440 1124 440 1124 457 1155 c 0,10,11
 467 1176 467 1176 490 1180 c 1,12,13
 602 1180 602 1180 617 1155 c 1,14,15
 617 1133 617 1133 559 1067 c 0,16,17
 508 1010 508 1010 483 993 c 0,0,1
479 571 m 0,18,19
 465 487 465 487 465 352 c 2,20,-1
 465 131 l 1,21,22
 455 -279 455 -279 420 -389 c 0,23,24
 397 -463 397 -463 365 -500 c 0,25,26
 311 -565 311 -565 201 -592 c 0,27,28
 176 -598 176 -598 152 -598 c 0,29,30
 92 -598 92 -598 47 -567 c 0,31,32
 0 -537 0 -537 0 -489 c 0,33,34
 0 -481 0 -481 4 -461 c 1,35,36
 39 -410 39 -410 59 -410 c 0,37,38
 74 -410 74 -410 105 -451 c 0,39,40
 135 -489 135 -489 174 -502 c 0,41,42
 195 -506 195 -506 209 -506 c 0,43,44
 252 -506 252 -506 266 -473 c 0,45,46
 313 -365 313 -365 313 -184 c 0,47,48
 313 -127 313 -127 305 102 c 0,49,50
 295 332 295 332 295 518 c 0,51,52
 295 688 295 688 227 731 c 0,53,54
 188 756 188 756 188 774 c 1,55,56
 209 788 209 788 418 823 c 1,57,58
 492 823 492 823 492 707 c 0,59,60
 492 641 492 641 479 571 c 0,18,19
EndSplineSet
EndChar

StartChar: k
Encoding: 107 107 78
Width: 1065
Flags: W
LayerCount: 2
Fore
SplineSet
717 -10 m 0,0,1
 690 -10 690 -10 666 0 c 0,2,3
 645 8 645 8 531 211 c 0,4,5
 477 307 477 307 416 406 c 1,6,7
 400 410 400 410 393 410 c 0,8,9
 324 410 324 410 324 225 c 0,10,11
 324 203 324 203 326 166 c 2,12,-1
 326 111 l 2,13,14
 326 63 326 63 322 49 c 1,15,-1
 322 53 l 1,16,17
 322 41 322 41 262 10 c 0,18,19
 195 -25 195 -25 144 -25 c 1,20,-1
 144 1118 l 1,21,-1
 142 1188 l 2,22,23
 142 1221 142 1221 70 1257 c 0,24,25
 0 1296 0 1296 0 1307 c 0,26,27
 0 1317 0 1317 19 1321 c 0,28,29
 74 1329 74 1329 160 1362 c 1,30,31
 281 1397 281 1397 301 1397 c 0,32,33
 322 1397 322 1397 326 1382 c 0,34,35
 330 1354 330 1354 330 1229 c 0,36,37
 330 1087 330 1087 322 506 c 1,38,-1
 322 479 l 1,39,40
 477 580 477 580 680 711 c 0,41,42
 819 797 819 797 842 797 c 0,43,44
 871 797 871 797 907 748 c 1,45,46
 744 641 744 641 555 506 c 1,47,48
 627 442 627 442 654 352 c 0,49,50
 662 324 662 324 713 238 c 0,51,52
 770 139 770 139 799 121 c 0,53,54
 815 111 815 111 824 111 c 0,55,56
 834 111 834 111 860 141 c 0,57,58
 887 174 887 174 916 182 c 1,59,60
 965 182 965 182 965 141 c 1,61,62
 959 96 959 96 875 43 c 0,63,64
 789 -10 789 -10 717 -10 c 0,0,1
EndSplineSet
EndChar

StartChar: l
Encoding: 108 108 79
Width: 567
Flags: W
LayerCount: 2
Fore
SplineSet
436 125 m 0,0,1
 311 27 311 27 127 -8 c 1,2,3
 116 2 116 2 116 299 c 0,4,5
 116 610 116 610 120 1133 c 0,6,7
 120 1180 120 1180 22 1274 c 0,8,9
 0 1296 0 1296 0 1311 c 1,10,11
 32 1333 32 1333 143 1370 c 0,12,13
 256 1409 256 1409 294 1409 c 0,14,15
 317 1409 317 1409 317 1395 c 0,16,17
 325 1339 325 1339 325 1100 c 2,18,-1
 325 995 l 1,19,-1
 321 141 l 1,20,21
 415 193 415 193 434 193 c 0,22,23
 467 188 467 188 467 166 c 0,24,25
 467 150 467 150 436 125 c 0,0,1
EndSplineSet
EndChar

StartChar: m
Encoding: 109 109 80
Width: 1696
Flags: W
LayerCount: 2
Fore
SplineSet
1438 55 m 0,0,1
 1420 45 1420 45 1362 18 c 0,2,3
 1284 -16 1284 -16 1252 -16 c 1,4,5
 1229 -6 1229 -6 1229 39 c 0,6,7
 1229 61 1229 61 1248 199 c 0,8,9
 1252 213 1252 213 1252 268 c 0,10,11
 1252 406 1252 406 1221 524 c 0,12,13
 1182 666 1182 666 1119 668 c 1,14,15
 1051 657 1051 657 985 610 c 0,16,17
 918 559 918 559 918 508 c 2,18,-1
 920 131 l 2,19,20
 920 53 920 53 906 23 c 1,21,22
 871 4 871 4 840 -10 c 0,23,24
 766 -41 766 -41 717 -43 c 1,25,26
 717 47 717 47 719 168 c 0,27,28
 721 287 721 287 721 319 c 0,29,30
 721 434 721 434 707 465 c 1,31,32
 707 504 707 504 680 573 c 0,33,34
 641 676 641 676 570 678 c 1,35,36
 465 651 465 651 408 582 c 0,37,38
 377 543 377 543 371 508 c 1,39,-1
 373 453 l 1,40,-1
 373 340 l 2,41,42
 373 78 373 78 361 47 c 1,43,-1
 361 49 l 1,44,45
 357 35 357 35 287 -4 c 0,46,47
 211 -45 211 -45 170 -45 c 1,48,49
 156 -20 156 -20 156 18 c 0,50,51
 156 27 156 27 158 68 c 2,52,-1
 158 260 l 2,53,54
 158 473 158 473 135 539 c 0,55,56
 109 612 109 612 0 680 c 1,57,58
 19 700 19 700 82 741 c 0,59,60
 152 788 152 788 181 788 c 0,61,62
 224 784 224 784 332 696 c 0,63,64
 344 684 344 684 353 680 c 0,65,66
 357 682 357 682 488 750 c 0,67,68
 625 821 625 821 688 821 c 0,69,70
 758 821 758 821 838 735 c 0,71,72
 856 715 856 715 901 688 c 1,73,-1
 934 709 l 2,74,75
 1121 825 1121 825 1223 825 c 0,76,77
 1299 825 1299 825 1346 770 c 0,78,79
 1467 629 1467 629 1467 430 c 0,80,81
 1467 356 1467 356 1436 188 c 0,82,83
 1430 156 1430 156 1430 141 c 0,84,85
 1430 131 1430 131 1432 129 c 0,86,87
 1452 133 1452 133 1497 166 c 0,88,89
 1540 197 1540 197 1559 197 c 0,90,91
 1577 197 1577 197 1590 180 c 0,92,93
 1596 168 1596 168 1596 164 c 0,94,95
 1596 125 1596 125 1438 55 c 0,0,1
EndSplineSet
EndChar

StartChar: n
Encoding: 110 110 81
Width: 1077
Flags: W
LayerCount: 2
Fore
SplineSet
799 119 m 1,0,1
 811 119 811 119 866 164 c 0,2,3
 922 207 922 207 944 207 c 0,4,5
 967 207 967 207 977 172 c 1,6,7
 909 121 909 121 856 84 c 0,8,9
 725 -4 725 -4 682 -12 c 1,10,11
 633 -12 633 -12 633 27 c 0,12,13
 633 41 633 41 637 66 c 0,14,15
 643 92 643 92 643 104 c 0,16,17
 647 172 647 172 647 227 c 0,18,19
 647 674 647 674 488 674 c 0,20,21
 451 674 451 674 381 633 c 0,22,23
 344 612 344 612 336 586 c 0,24,25
 326 557 326 557 326 459 c 0,26,27
 326 453 326 453 328 408 c 0,28,29
 330 362 330 362 330 328 c 0,30,31
 330 -23 330 -23 135 -37 c 1,32,33
 131 -8 131 -8 131 49 c 0,34,35
 131 78 131 78 133 156 c 2,36,-1
 133 279 l 2,37,38
 133 559 133 559 88 612 c 0,39,40
 59 645 59 645 29 664 c 0,41,42
 0 680 0 680 0 709 c 1,43,44
 113 788 113 788 156 788 c 1,45,46
 195 780 195 780 240 727 c 0,47,48
 285 672 285 672 295 670 c 1,49,50
 344 696 344 696 402 727 c 0,51,52
 518 791 518 791 569 797 c 1,53,54
 830 797 830 797 832 434 c 0,55,56
 832 383 832 383 815 268 c 0,57,58
 799 147 799 147 799 119 c 1,0,1
EndSplineSet
EndChar

StartChar: o
Encoding: 111 111 82
Width: 889
Flags: W
LayerCount: 2
Fore
SplineSet
756 262 m 0,0,1
 721 164 721 164 590 70 c 0,2,3
 463 -23 463 -23 361 -23 c 2,4,-1
 353 -23 l 1,5,6
 127 -14 127 -14 27 184 c 0,7,8
 0 238 0 238 0 354 c 0,9,10
 0 418 0 418 9 508 c 0,11,12
 21 645 21 645 160 727 c 0,13,14
 234 770 234 770 422 827 c 0,15,16
 443 834 443 834 463 834 c 0,17,18
 574 834 574 834 674 733 c 0,19,20
 789 616 789 616 789 446 c 0,21,22
 789 358 789 358 756 262 c 0,0,1
336 715 m 0,23,24
 322 715 322 715 310 709 c 0,25,26
 242 682 242 682 203 612 c 0,27,28
 166 549 166 549 166 475 c 0,29,30
 166 362 166 362 224 270 c 0,31,32
 301 147 301 147 461 104 c 1,33,34
 549 104 549 104 572 186 c 0,35,36
 584 231 584 231 584 410 c 0,37,38
 584 535 584 535 496 631 c 0,39,40
 416 715 416 715 336 715 c 0,23,24
EndSplineSet
EndChar

StartChar: p
Encoding: 112 112 83
Width: 1017
Flags: W
LayerCount: 2
Fore
SplineSet
852 178 m 0,0,1
 825 129 825 129 741 74 c 0,2,3
 655 16 655 16 586 8 c 1,4,5
 528 8 528 8 459 23 c 1,6,7
 383 35 383 35 348 37 c 1,8,9
 348 -45 348 -45 346 -256 c 256,10,11
 344 -467 344 -467 344 -516 c 0,12,13
 344 -571 344 -571 426 -571 c 0,14,15
 453 -571 453 -571 502 -565 c 128,-1,16
 551 -559 551 -559 565 -559 c 0,17,18
 604 -559 604 -559 604 -584 c 0,19,20
 604 -596 604 -596 594 -610 c 0,21,22
 586 -621 586 -621 551 -621 c 0,23,24
 514 -621 514 -621 455 -627 c 0,25,26
 317 -641 317 -641 266 -641 c 0,27,28
 264 -641 264 -641 233 -649 c 0,29,30
 203 -655 203 -655 96 -680 c 1,31,32
 86 -651 86 -651 86 -637 c 0,33,34
 86 -610 86 -610 113 -604 c 0,35,36
 131 -600 131 -600 149 -596 c 1,37,38
 166 -584 166 -584 166 -512 c 2,39,-1
 166 139 l 1,40,-1
 168 279 l 1,41,-1
 168 348 l 2,42,43
 168 416 168 416 166 465 c 0,44,45
 164 565 164 565 151 598 c 0,46,47
 115 705 115 705 57 721 c 0,48,49
 0 737 0 737 0 778 c 1,50,51
 6 797 6 797 33 797 c 0,52,53
 39 797 39 797 68 793 c 0,54,55
 94 786 94 786 115 786 c 0,56,57
 180 795 180 795 227 813 c 0,58,59
 272 831 272 831 291 831 c 0,60,61
 350 831 350 831 350 780 c 0,62,63
 350 766 350 766 344 739 c 0,64,65
 338 713 338 713 338 700 c 0,66,67
 338 690 338 690 348 690 c 0,68,69
 362 692 362 692 448 764 c 0,70,71
 537 836 537 836 631 836 c 0,72,73
 672 836 672 836 723 823 c 1,74,75
 766 801 766 801 799 772 c 0,76,77
 881 705 881 705 895 610 c 0,78,79
 917 471 917 471 917 410 c 0,80,81
 917 297 917 297 852 178 c 0,0,1
727 410 m 0,82,83
 711 532 711 532 668 596 c 0,84,85
 598 700 598 700 528 700 c 0,86,87
 516 700 516 700 502 696 c 0,88,89
 397 666 397 666 364 575 c 0,90,91
 344 520 344 520 344 389 c 0,92,93
 344 240 344 240 360 215 c 0,94,95
 385 176 385 176 448 147 c 0,96,97
 518 117 518 117 600 117 c 2,98,-1
 610 117 l 1,99,100
 737 121 737 121 737 303 c 0,101,102
 737 334 737 334 727 410 c 0,82,83
EndSplineSet
EndChar

StartChar: q
Encoding: 113 113 84
Width: 900
Flags: W
LayerCount: 2
Fore
SplineSet
795 -484 m 0,0,1
 797 -487 797 -487 800 -487 c 0,2,3
 804 -487 804 -487 808 -484 c 0,4,5
 870 -442 870 -442 950 -442 c 1,6,7
 950 -487 950 -487 827 -561 c 0,8,9
 711 -631 711 -631 655 -631 c 0,10,11
 631 -631 631 -631 625 -614 c 1,12,-1
 625 57 l 2,13,14
 625 127 625 127 600 127 c 0,15,16
 590 127 590 127 506 76 c 0,17,18
 412 18 412 18 317 6 c 1,19,20
 223 6 223 6 123 84 c 0,21,22
 20 168 20 168 6 268 c 0,23,24
 0 315 0 315 0 360 c 0,25,26
 0 719 0 719 340 827 c 0,27,28
 373 838 373 838 414 838 c 0,29,30
 473 838 473 838 598 782 c 0,31,32
 618 774 618 774 635 770 c 1,33,34
 655 770 655 770 747 807 c 0,35,36
 760 811 760 811 799 821 c 1,37,-1
 799 -356 l 2,38,39
 797 -424 797 -424 797 -438 c 0,40,41
 796 -475 796 -475 795 -484 c 0,0,1
602 600 m 0,42,43
 586 621 586 621 500 694 c 0,44,45
 436 750 436 750 367 750 c 1,46,47
 276 739 276 739 223 655 c 0,48,49
 174 575 174 575 174 465 c 0,50,51
 174 334 174 334 240 242 c 0,52,53
 315 141 315 141 442 141 c 1,54,55
 547 164 547 164 602 219 c 1,56,57
 608 236 608 236 612 260 c 0,58,59
 618 305 618 305 618 432 c 0,60,61
 618 463 618 463 620 500 c 0,62,63
 623 537 623 537 623 545 c 0,64,65
 623 575 623 575 602 600 c 0,42,43
EndSplineSet
EndChar

StartChar: r
Encoding: 114 114 85
Width: 850
Flags: W
LayerCount: 2
Fore
SplineSet
660 612 m 0,0,1
 631 612 631 612 592 641 c 0,2,3
 549 674 549 674 517 678 c 1,4,5
 500 676 500 676 431 627 c 0,6,7
 359 575 359 575 359 569 c 2,8,-1
 359 78 l 1,9,10
 353 55 353 55 285 14 c 0,11,12
 211 -31 211 -31 164 -31 c 1,13,14
 134 -25 134 -25 134 158 c 0,15,16
 134 217 134 217 138 340 c 0,17,18
 140 463 140 463 140 508 c 0,19,20
 140 565 140 565 136 592 c 0,21,22
 125 664 125 664 45 690 c 0,23,24
 0 705 0 705 0 735 c 0,25,26
 2 752 2 752 39 758 c 0,27,28
 60 760 60 760 111 766 c 0,29,30
 170 774 170 774 250 797 c 0,31,32
 301 811 301 811 318 811 c 0,33,34
 355 803 355 803 355 766 c 0,35,36
 355 756 355 756 353 735 c 0,37,38
 349 713 349 713 349 705 c 0,39,40
 349 686 349 686 365 680 c 0,41,42
 369 680 369 680 467 748 c 0,43,44
 572 819 572 819 603 819 c 0,45,46
 625 819 625 819 680 799 c 0,47,48
 744 778 744 778 750 756 c 1,49,50
 730 715 730 715 713 686 c 0,51,52
 672 614 672 614 660 612 c 0,0,1
EndSplineSet
EndChar

StartChar: s
Encoding: 115 115 86
Width: 779
Flags: W
LayerCount: 2
Fore
SplineSet
649 195 m 0,0,1
 616 115 616 115 503 47 c 0,2,3
 380 -27 380 -27 253 -27 c 0,4,5
 215 -27 215 -27 170 -16 c 0,6,7
 20 18 20 18 20 137 c 0,8,9
 20 233 20 233 139 268 c 1,10,11
 262 80 262 80 393 80 c 0,12,13
 444 80 444 80 477 121 c 0,14,15
 507 158 507 158 507 209 c 0,16,17
 507 266 507 266 460 322 c 0,18,19
 419 369 419 369 378 379 c 0,20,21
 339 387 339 387 276 389 c 0,22,23
 190 391 190 391 172 393 c 0,24,25
 55 403 55 403 22 481 c 0,26,27
 0 535 0 535 0 584 c 0,28,29
 0 715 0 715 153 793 c 0,30,31
 278 856 278 856 454 864 c 1,32,-1
 471 864 l 2,33,34
 522 864 522 864 559 840 c 0,35,36
 598 811 598 811 598 768 c 0,37,38
 598 711 598 711 530 678 c 0,39,40
 497 662 497 662 483 662 c 0,41,42
 452 662 452 662 426 713 c 0,43,44
 395 772 395 772 356 782 c 0,45,46
 342 786 342 786 319 786 c 0,47,48
 200 786 200 786 182 688 c 0,49,50
 178 676 178 676 178 664 c 0,51,52
 178 584 178 584 311 563 c 0,53,54
 374 557 374 557 440 549 c 0,55,56
 516 541 516 541 565 522 c 0,57,58
 602 508 602 508 632 471 c 0,59,60
 679 414 679 414 679 334 c 0,61,62
 679 268 679 268 649 195 c 0,0,1
EndSplineSet
EndChar

StartChar: t
Encoding: 116 116 87
Width: 854
Flags: W
LayerCount: 2
Fore
SplineSet
678 686 m 0,0,1
 532 682 532 682 367 682 c 1,2,3
 354 659 354 659 354 580 c 0,4,5
 354 561 354 561 356 494 c 2,6,-1
 356 311 l 2,7,8
 356 215 356 215 377 168 c 0,9,10
 406 102 406 102 487 78 c 0,11,12
 526 66 526 66 565 66 c 0,13,14
 608 66 608 66 690 100 c 1,15,-1
 719 106 l 1,16,17
 739 106 739 106 750 80 c 1,18,19
 750 53 750 53 651 8 c 0,20,21
 567 -31 567 -31 518 -41 c 128,-1,22
 469 -51 469 -51 426 -51 c 0,23,24
 225 -51 225 -51 150 117 c 1,25,26
 150 600 150 600 141 627 c 0,27,28
 135 645 135 645 92 670 c 0,29,30
 31 702 31 702 0 745 c 1,31,-1
 344 971 l 1,32,33
 371 938 371 938 371 879 c 2,34,-1
 371 842 l 2,35,36
 371 817 371 817 375 815 c 0,37,38
 397 809 397 809 426 809 c 0,39,40
 442 809 442 809 506 813 c 0,41,42
 567 817 567 817 616 817 c 0,43,44
 633 817 633 817 735 813 c 1,45,46
 735 799 735 799 743 778 c 0,47,48
 754 752 754 752 754 737 c 0,49,50
 754 688 754 688 678 686 c 0,0,1
EndSplineSet
EndChar

StartChar: u
Encoding: 117 117 88
Width: 1005
Flags: W
LayerCount: 2
Fore
SplineSet
834 -10 m 0,0,1
 823 -18 823 -18 805 -18 c 0,2,3
 764 -18 764 -18 694 41 c 0,4,5
 627 100 627 100 623 100 c 0,6,7
 594 94 594 94 547 43 c 0,8,9
 463 -51 463 -51 367 -51 c 0,10,11
 207 -51 207 -51 135 68 c 0,12,13
 68 180 68 180 68 340 c 0,14,15
 68 391 68 391 76 479 c 128,-1,16
 84 567 84 567 84 598 c 0,17,18
 84 664 84 664 59 686 c 0,19,20
 0 741 0 741 0 758 c 1,21,22
 176 819 176 819 254 819 c 0,23,24
 279 819 279 819 287 805 c 1,25,-1
 266 506 l 1,26,-1
 258 387 l 1,27,28
 258 119 258 119 447 84 c 1,29,30
 516 86 516 86 569 209 c 0,31,32
 623 332 623 332 623 489 c 0,33,34
 623 657 623 657 557 715 c 0,35,36
 545 725 545 725 522 739 c 0,37,38
 502 752 502 752 502 766 c 0,39,40
 502 776 502 776 508 782 c 0,41,42
 512 795 512 795 574 805 c 0,43,44
 621 811 621 811 741 829 c 1,45,46
 799 829 799 829 799 702 c 0,47,48
 799 678 799 678 797 608 c 0,49,50
 795 539 795 539 795 496 c 0,51,52
 795 219 795 219 799 188 c 1,53,54
 819 125 819 125 854 109 c 1,55,56
 877 104 877 104 905 76 c 1,57,58
 905 33 905 33 834 -10 c 0,0,1
EndSplineSet
EndChar

StartChar: v
Encoding: 118 118 89
Width: 1028
Flags: W
LayerCount: 2
Fore
SplineSet
867 410 m 0,0,1
 826 268 826 268 680 100 c 0,2,3
 551 -49 551 -49 512 -49 c 0,4,5
 486 -49 486 -49 437 12 c 0,6,7
 342 125 342 125 226 399 c 0,8,9
 133 616 133 616 43 676 c 0,10,11
 31 684 31 684 17 692 c 0,12,13
 2 702 2 702 0 717 c 0,14,15
 0 737 0 737 43 770 c 0,16,17
 95 807 95 807 146 807 c 0,18,19
 213 807 213 807 265 745 c 0,20,21
 291 717 291 717 338 627 c 0,22,23
 381 545 381 545 435 432 c 0,24,25
 555 178 555 178 580 160 c 1,26,27
 615 166 615 166 699 299 c 0,28,29
 785 436 785 436 803 530 c 0,30,31
 811 573 811 573 811 606 c 0,32,33
 811 657 811 657 791 700 c 0,34,35
 768 748 768 748 768 762 c 0,36,37
 772 793 772 793 877 803 c 1,38,39
 928 803 928 803 928 719 c 0,40,41
 928 621 928 621 867 410 c 0,0,1
EndSplineSet
EndChar

StartChar: w
Encoding: 119 119 90
Width: 1634
Flags: W
LayerCount: 2
Fore
SplineSet
1499 645 m 0,0,1
 1462 537 1462 537 1351 295 c 0,2,3
 1208 -14 1208 -14 1155 -25 c 1,4,5
 1062 -25 1062 -25 960 168 c 0,6,7
 936 217 936 217 888 309 c 0,8,9
 856 373 856 373 843 387 c 1,10,11
 829 367 829 367 809 332 c 0,12,13
 723 199 723 199 671 125 c 0,14,15
 563 -27 563 -27 526 -31 c 1,16,17
 481 -31 481 -31 413 72 c 0,18,19
 389 109 389 109 208 430 c 0,20,21
 163 512 163 512 75 596 c 0,22,23
 0 670 0 670 0 694 c 0,24,25
 0 711 0 711 18 725 c 0,26,27
 81 772 81 772 135 772 c 0,28,29
 258 772 258 772 372 522 c 0,30,31
 374 516 374 516 424 406 c 0,32,33
 452 342 452 342 516 240 c 0,34,35
 577 147 577 147 583 147 c 0,36,37
 602 147 602 147 696 297 c 0,38,39
 792 453 792 453 794 506 c 1,40,41
 766 598 766 598 706 637 c 0,42,43
 684 651 684 651 659 668 c 0,44,45
 636 684 636 684 626 711 c 1,46,47
 626 795 626 795 735 811 c 1,48,49
 858 811 858 811 1003 489 c 0,50,51
 1038 410 1038 410 1108 270 c 1,52,53
 1161 176 1161 176 1196 174 c 0,54,55
 1247 174 1247 174 1421 608 c 1,56,57
 1421 645 1421 645 1382 694 c 128,-1,58
 1343 743 1343 743 1343 768 c 1,59,60
 1349 782 1349 782 1394 795 c 0,61,62
 1437 809 1437 809 1468 809 c 0,63,64
 1493 809 1493 809 1503 801 c 0,65,66
 1505 797 1505 797 1523 793 c 0,67,68
 1534 788 1534 788 1534 772 c 0,69,70
 1534 748 1534 748 1499 645 c 0,0,1
EndSplineSet
EndChar

StartChar: x
Encoding: 120 120 91
Width: 936
Flags: W
LayerCount: 2
Fore
SplineSet
617 -27 m 0,0,1
 565 -27 565 -27 490 63 c 0,2,3
 484 70 484 70 389 203 c 0,4,5
 381 215 381 215 367 236 c 1,6,7
 340 113 340 113 281 41 c 0,8,9
 223 -29 223 -29 139 -29 c 0,10,11
 39 -29 39 -29 0 55 c 1,12,13
 0 78 0 78 35 131 c 0,14,15
 66 180 66 180 76 180 c 0,16,17
 98 180 98 180 125 158 c 2,18,-1
 137 147 l 2,19,20
 164 121 164 121 199 119 c 1,21,22
 293 260 293 260 316 326 c 1,23,24
 289 403 289 403 238 487 c 0,25,26
 144 635 144 635 25 682 c 1,27,28
 45 791 45 791 131 791 c 0,29,30
 182 791 182 791 240 748 c 0,31,32
 316 692 316 692 359 614 c 0,33,34
 375 582 375 582 414 518 c 1,35,36
 449 600 449 600 516 684 c 0,37,38
 604 795 604 795 680 797 c 0,39,40
 707 797 707 797 740 774 c 0,41,42
 783 743 783 743 783 707 c 0,43,44
 783 684 783 684 766 662 c 0,45,46
 721 602 721 602 690 602 c 0,47,48
 672 602 672 602 658 621 c 2,49,-1
 651 629 l 2,50,51
 641 637 641 637 621 647 c 1,52,53
 574 590 574 590 545 553 c 0,54,55
 484 469 484 469 471 424 c 1,56,57
 473 395 473 395 563 262 c 0,58,59
 651 127 651 127 674 113 c 0,60,61
 676 111 676 111 686 111 c 0,62,63
 707 111 707 111 748 152 c 0,64,65
 789 190 789 190 807 190 c 0,66,67
 823 190 823 190 836 164 c 1,68,69
 793 109 793 109 756 70 c 0,70,71
 666 -27 666 -27 617 -27 c 0,0,1
EndSplineSet
EndChar

StartChar: y
Encoding: 121 121 92
Width: 932
Flags: W
LayerCount: 2
Fore
SplineSet
697 270 m 0,0,1
 633 129 633 129 342 -430 c 1,2,-1
 445 -520 l 1,3,4
 445 -543 445 -543 396 -584 c 0,5,6
 344 -625 344 -625 326 -625 c 1,7,8
 287 -606 287 -606 256 -588 c 0,9,10
 187 -545 187 -545 174 -510 c 1,11,-1
 461 27 l 1,12,13
 451 82 451 82 359 291 c 0,14,15
 263 502 263 502 220 557 c 0,16,17
 152 641 152 641 70 672 c 0,18,19
 52 678 52 678 23 688 c 0,20,21
 0 696 0 696 0 723 c 1,22,23
 93 811 93 811 154 811 c 1,24,25
 340 768 340 768 441 545 c 0,26,27
 463 487 463 487 508 373 c 0,28,29
 541 289 541 289 574 252 c 1,30,31
 629 319 629 319 666 457 c 0,32,33
 707 604 707 604 707 764 c 0,34,35
 707 782 707 782 734 803 c 0,36,37
 760 825 760 825 787 825 c 0,38,39
 832 825 832 825 832 758 c 2,40,-1
 832 752 l 1,41,42
 826 561 826 561 697 270 c 0,0,1
EndSplineSet
EndChar

StartChar: z
Encoding: 122 122 93
Width: 1028
Flags: W
LayerCount: 2
Fore
SplineSet
897 -133 m 1,0,1
 834 -133 834 -133 834 -106 c 0,2,3
 834 -98 834 -98 842 -82 c 128,-1,4
 850 -66 850 -66 850 -59 c 0,5,6
 850 -51 850 -51 838 -43 c 1,7,8
 635 -6 635 -6 373 -6 c 0,9,10
 246 -6 246 -6 150 -18 c 2,11,-1
 60 -29 l 2,12,13
 39 -29 39 -29 33 -10 c 1,14,15
 33 47 33 47 301 334 c 0,16,17
 428 467 428 467 563 621 c 1,18,19
 547 633 547 633 348 676 c 0,20,21
 162 715 162 715 123 719 c 0,22,23
 96 719 96 719 67.5 691.5 c 128,-1,24
 39 664 39 664 27 664 c 256,25,26
 15 664 15 664 0 690 c 1,27,28
 0 711 0 711 39 766 c 0,29,30
 55 793 55 793 92 836 c 1,31,32
 121 860 121 860 162 860 c 0,33,34
 197 860 197 860 299 836 c 0,35,36
 373 817 373 817 565 770 c 0,37,38
 567 770 567 770 600 768 c 0,39,40
 633 764 633 764 654 764 c 0,41,42
 690 764 690 764 699 768 c 0,43,44
 735 788 735 788 774 846 c 0,45,46
 791 870 791 870 815 870 c 1,47,48
 846 862 846 862 846 842 c 0,49,50
 846 815 846 815 772 741 c 0,51,52
 723 694 723 694 621 588 c 0,53,54
 535 494 535 494 375 309 c 0,55,56
 264 176 264 176 250 135 c 1,57,58
 367 135 367 135 504 137 c 0,59,60
 639 139 639 139 668 139 c 0,61,62
 811 139 811 139 899 96 c 0,63,64
 928 82 928 82 928 35 c 0,65,66
 928 -10 928 -10 897 -133 c 1,0,1
EndSplineSet
EndChar

StartChar: braceleft
Encoding: 123 123 94
Width: 800
Flags: W
LayerCount: 2
Fore
SplineSet
42 696 m 2,0,-1
 25 696 l 1,1,2
 7 709 7 709 1 721 c 1,3,4
 1 740 1 740 46 755 c 0,5,6
 73 763 73 763 130 790 c 1,7,8
 253 859 253 859 263 1070 c 0,9,10
 272 1215 272 1215 329 1299 c 1,11,12
 461 1477 461 1477 635 1545 c 0,13,14
 650 1550 650 1550 656 1550 c 0,15,16
 690 1550 690 1550 690 1503 c 0,17,18
 690 1491 690 1491 688 1477 c 1,19,20
 482 1269 482 1269 475 1067 c 1,21,22
 475 933 475 933 367 750 c 0,23,24
 366 750 366 750 365 749 c 1,25,-1
 366 749 l 1,26,27
 352 733 352 733 338 724 c 1,28,29
 363 703 363 703 377 695 c 1,30,31
 485 512 485 512 485 378 c 1,32,33
 492 176 492 176 698 -32 c 1,34,35
 700 -46 700 -46 700 -58 c 0,36,37
 700 -105 700 -105 667 -105 c 0,38,39
 660 -105 660 -105 645 -100 c 0,40,41
 471 -32 471 -32 339 146 c 1,42,43
 282 230 282 230 274 375 c 0,44,45
 263 586 263 586 140 655 c 0,46,47
 84 682 84 682 57 690 c 0,48,49
 49 693 49 693 42 696 c 2,0,-1
EndSplineSet
EndChar

StartChar: bar
Encoding: 124 124 95
Width: 567
Flags: W
LayerCount: 2
Fore
SplineSet
436 14 m 0,0,1
 311 -103 311 -103 127 -145 c 1,2,3
 116 -133 116 -133 116 222 c 0,4,5
 116 594 116 594 120 1220 c 0,6,7
 120 1276 120 1276 22 1389 c 0,8,9
 0 1415 0 1415 0 1433 c 1,10,11
 32 1459 32 1459 143 1503 c 0,12,13
 256 1550 256 1550 294 1550 c 0,14,15
 317 1550 317 1550 317 1533 c 0,16,17
 325 1466 325 1466 325 1180 c 2,18,-1
 325 1055 l 1,19,-1
 321 33 l 1,20,21
 415 95 415 95 434 95 c 0,22,23
 467 89 467 89 467 63 c 0,24,25
 467 44 467 44 436 14 c 0,0,1
EndSplineSet
EndChar

StartChar: braceright
Encoding: 125 125 96
Width: 800
Flags: W
LayerCount: 2
Fore
SplineSet
644 690 m 0,1,2
 617 682 617 682 561 655 c 0,3,4
 438 586 438 586 427 375 c 0,5,6
 419 230 419 230 362 146 c 1,7,8
 230 -32 230 -32 56 -100 c 0,9,10
 41 -105 41 -105 34 -105 c 0,11,12
 1 -105 1 -105 1 -58 c 0,13,14
 1 -46 1 -46 3 -32 c 1,15,16
 209 176 209 176 216 378 c 1,17,18
 216 512 216 512 324 695 c 1,19,20
 338 703 338 703 363 724 c 1,21,22
 349 733 349 733 335 749 c 1,23,-1
 336 749 l 1,24,25
 335 750 335 750 334 750 c 0,26,27
 226 933 226 933 226 1067 c 1,28,29
 219 1269 219 1269 13 1477 c 1,30,31
 11 1491 11 1491 11 1503 c 0,32,33
 11 1550 11 1550 45 1550 c 0,34,35
 51 1550 51 1550 66 1545 c 0,36,37
 240 1477 240 1477 372 1299 c 1,38,39
 429 1215 429 1215 438 1070 c 0,40,41
 448 859 448 859 571 790 c 1,42,43
 628 763 628 763 655 755 c 0,44,45
 700 740 700 740 700 721 c 1,46,47
 694 709 694 709 676 696 c 1,48,-1
 659 696 l 2,49,0
 652 693 652 693 644 690 c 0,1,2
EndSplineSet
EndChar

StartChar: asciitilde
Encoding: 126 126 97
Width: 894
Flags: W
LayerCount: 2
Fore
SplineSet
612 1519 m 1,0,1
 588 1502 588 1502 555 1502 c 0,2,3
 516 1502 516 1502 442 1531 c 0,4,5
 335 1572 335 1572 290 1572 c 0,6,7
 276 1572 276 1572 264 1570 c 0,8,9
 200 1557 200 1557 0 1426 c 1,10,-1
 243 1669 l 1,11,12
 357 1744 357 1744 428 1744 c 0,13,14
 469 1744 469 1744 556.5 1715.5 c 128,-1,15
 644 1687 644 1687 687 1687 c 0,16,17
 741 1687 741 1687 794 1700 c 1,18,-1
 612 1519 l 1,0,1
EndSplineSet
EndChar

StartChar: exclamdown
Encoding: 161 161 98
Width: 348
Flags: W
LayerCount: 2
Fore
SplineSet
166 -23 m 2,0,-1
 78 -23 l 2,1,2
 10 -23 10 -23 10 47 c 2,3,-1
 10 61 l 1,4,-1
 80 952 l 2,5,6
 84 995 84 995 111 995 c 2,7,-1
 142 995 l 2,8,9
 164 995 164 995 166 956 c 2,10,-1
 236 51 l 1,11,12
 236 -23 236 -23 166 -23 c 2,0,-1
248 1266 m 0,13,14
 248 1214 248 1214 211 1178 c 0,15,16
 176 1143 176 1143 125 1143 c 256,17,18
 74 1143 74 1143 37 1178.5 c 128,-1,19
 0 1214 0 1214 0 1266 c 0,20,21
 0 1317 0 1317 37 1352 c 0,22,23
 74 1389 74 1389 125 1389 c 256,24,25
 176 1389 176 1389 211 1352 c 0,26,27
 248 1317 248 1317 248 1266 c 0,13,14
EndSplineSet
EndChar

StartChar: cent
Encoding: 162 162 99
Width: 813
Flags: W
LayerCount: 2
Fore
SplineSet
350 -20 m 1,0,1
 169 -16 169 -16 78 90 c 0,2,3
 0 180 0 180 0 330 c 0,4,5
 0 524 0 524 94 662 c 0,6,7
 190 799 190 799 350 818 c 1,8,-1
 350 900 l 1,9,-1
 450 900 l 1,10,-1
 450 817 l 1,11,12
 500 808 500 808 565 782 c 0,13,14
 686 735 686 735 686 672 c 0,15,16
 686 641 686 641 579 563 c 1,17,18
 571 563 571 563 559 575 c 0,19,20
 551 584 551 584 543 592 c 0,21,22
 493 644 493 644 450 677 c 1,23,-1
 450 104 l 1,24,25
 468 102 468 102 487 102 c 0,26,27
 534 102 534 102 597.5 167.5 c 128,-1,28
 661 233 661 233 670 233 c 0,29,30
 682 233 682 233 696 217 c 0,31,32
 713 199 713 199 713 190 c 0,33,34
 713 164 713 164 606 80 c 0,35,36
 526 16 526 16 450 -7 c 1,37,-1
 450 -100 l 1,38,-1
 350 -100 l 1,39,-1
 350 -20 l 1,0,1
350 728 m 1,40,41
 338 731 338 731 326 731 c 0,42,43
 268 731 268 731 229 635 c 0,44,45
 192 547 192 547 192 442 c 0,46,47
 192 297 192 297 262 205 c 0,48,49
 298 157 298 157 350 131 c 1,50,-1
 350 728 l 1,40,41
EndSplineSet
EndChar

StartChar: sterling
Encoding: 163 163 100
Width: 1431
Flags: W
LayerCount: 2
Fore
SplineSet
271 887 m 1,0,1
 300 1108 300 1108 399 1245 c 0,2,3
 532 1430 532 1430 745 1430 c 2,4,-1
 753 1430 l 2,5,6
 841 1427 841 1427 993 1311 c 0,7,8
 1144 1196 1144 1196 1146 1196 c 0,9,10
 1150 1196 1150 1196 1201 1280 c 0,11,12
 1255 1364 1255 1364 1281 1364 c 0,13,14
 1298 1364 1298 1364 1314 1348 c 0,15,16
 1331 1331 1331 1331 1331 1309 c 1,17,18
 1306 1284 1306 1284 1226 1153 c 0,19,20
 1126 985 1126 985 1116 923 c 1,21,-1
 1090 860 l 1,22,-1
 1047 900 l 1,23,24
 753 1298 753 1298 646 1298 c 0,25,26
 584 1298 584 1298 535 1216 c 1,27,28
 513 1121 513 1121 505 900 c 1,29,30
 600 899 600 899 833 899 c 1,31,-1
 909 901 l 1,32,33
 909 891 909 891 911 860 c 2,34,-1
 911 813 l 1,35,36
 901 757 901 757 831 721 c 1,37,-1
 817 731 l 2,38,39
 792 750 792 750 764 750 c 2,40,-1
 504 750 l 1,41,-1
 511 279 l 2,42,43
 511 154 511 154 532 106 c 0,44,45
 542 84 542 84 589 84 c 0,46,47
 603 84 603 84 683 92 c 0,48,49
 1087 133 1087 133 1177 197 c 0,50,51
 1183 201 1183 201 1201 219 c 2,52,-1
 1210 229 l 2,53,54
 1236 262 1236 262 1320 270 c 1,55,-1
 1320 -305 l 1,56,-1
 1242 -305 l 1,57,58
 1242 -233 1242 -233 1245 -160 c 2,59,-1
 1245 -74 l 2,60,61
 1245 -18 1245 -18 1228 -4 c 1,62,63
 1216 0 1216 0 1165 0 c 2,64,-1
 1097 0 l 2,65,66
 1052 -2 1052 -2 1029 -2 c 2,67,-1
 530 -2 l 1,68,-1
 347 -16 l 2,69,70
 309 -20 309 -20 163 -29 c 0,71,72
 85 -33 85 -33 79 -33 c 0,73,74
 14 -33 14 -33 5 -12 c 0,75,76
 1 4 1 4 1 10 c 0,77,78
 1 43 1 43 48 51 c 0,79,80
 65 53 65 53 137 57 c 0,81,82
 196 59 196 59 218 66 c 0,83,84
 259 76 259 76 266 104 c 1,85,-1
 260 742 l 1,86,87
 247 742 247 742 233 741 c 2,88,-1
 32 751 l 1,89,90
 17 778 17 778 5 880 c 1,91,92
 141 880 141 880 271 887 c 1,0,1
EndSplineSet
EndChar

StartChar: currency
Encoding: 164 164 101
Width: 936
Flags: W
LayerCount: 2
Fore
SplineSet
283 878 m 0,0,1
 269 837 269 837 269 788 c 0,2,3
 269 680 269 680 313 590 c 128,-1,4
 357 500 357 500 418 500 c 0,5,6
 442 500 442 500 467 517 c 0,7,8
 491 529 491 529 517 543 c 1,9,10
 536 562 536 562 542.5 598 c 128,-1,11
 549 634 549 634 549 652 c 0,12,13
 549 751 549 751 505.5 866 c 128,-1,14
 462 981 462 981 380 981 c 0,15,16
 369 981 369 981 353 976 c 1,17,18
 336 964 336 964 315.5 942 c 128,-1,19
 295 920 295 920 283 878 c 0,0,1
636 526 m 1,20,21
 663 490 663 490 674 483 c 0,22,23
 676 481 676 481 686 481 c 0,24,25
 707 481 707 481 748 522 c 0,26,27
 789 560 789 560 807 560 c 0,28,29
 823 560 823 560 836 534 c 1,30,31
 793 479 793 479 756 440 c 0,32,33
 666 343 666 343 617 343 c 0,34,35
 569 343 569 343 501 420 c 1,36,37
 465 406 465 406 422 400 c 1,38,39
 343 400 343 400 285 417 c 0,40,41
 283 414 283 414 281 411 c 0,42,43
 223 341 223 341 139 341 c 0,44,45
 39 341 39 341 0 425 c 1,46,47
 0 448 0 448 35 501 c 0,48,49
 66 550 66 550 76 550 c 0,50,51
 98 550 98 550 125 528 c 2,52,-1
 137 517 l 2,53,54
 150 504 150 504 165 497 c 1,55,56
 164 500 164 500 162 503 c 0,57,58
 99 605 99 605 99 785 c 0,59,60
 99 887 99 887 155 963 c 1,61,62
 94 1025 94 1025 25 1052 c 1,63,64
 45 1161 45 1161 131 1161 c 0,65,66
 182 1161 182 1161 240 1118 c 0,67,68
 270 1096 270 1096 294 1071 c 1,69,70
 341 1091 341 1091 395 1099 c 0,71,72
 407 1101 407 1101 432 1101 c 0,73,74
 487 1101 487 1101 537 1079 c 1,75,76
 613 1165 613 1165 680 1167 c 0,77,78
 707 1167 707 1167 740 1144 c 0,79,80
 783 1113 783 1113 783 1077 c 0,81,82
 783 1054 783 1054 766 1032 c 0,83,84
 721 972 721 972 690 972 c 0,85,86
 672 972 672 972 658 991 c 2,87,-1
 651 999 l 2,88,89
 643 1005 643 1005 629 1013 c 1,90,91
 665 974 665 974 679 925 c 0,92,93
 700 850 700 850 700 757 c 0,94,95
 700 619 700 619 636 526 c 1,20,21
EndSplineSet
EndChar

StartChar: yen
Encoding: 165 165 102
Width: 1203
Flags: W
LayerCount: 2
Fore
SplineSet
690 306 m 1,0,1
 688 205 688 205 688 190 c 0,2,3
 688 129 688 129 706 109 c 0,4,5
 723 90 723 90 766 90 c 0,6,7
 776 90 776 90 802 92 c 0,8,9
 831 94 831 94 847 94 c 0,10,11
 895 94 895 94 925 86 c 0,12,13
 950 80 950 80 950 47 c 256,14,15
 950 14 950 14 925 6 c 1,16,17
 897 6 897 6 835 10 c 0,18,19
 776 12 776 12 745 12 c 0,20,21
 655 12 655 12 544 -4 c 0,22,23
 454 -18 454 -18 338 -43 c 0,24,25
 262 -59 262 -59 256 -59 c 0,26,27
 239 -59 239 -59 225 -45 c 0,28,29
 211 -27 211 -27 211 -12 c 0,30,31
 211 31 211 31 356 66 c 1,32,-1
 395 74 l 2,33,34
 436 84 436 84 442 88 c 0,35,36
 475 110 475 110 481 306 c 1,37,-1
 125 306 l 1,38,-1
 125 402 l 1,39,-1
 483 402 l 1,40,-1
 483 410 l 2,41,42
 483 571 483 571 479 586 c 0,43,44
 477 592 477 592 475 599 c 1,45,-1
 125 599 l 1,46,-1
 125 695 l 1,47,-1
 429 695 l 1,48,49
 405 738 405 738 370 791 c 0,50,51
 243 983 243 983 133 1198 c 0,52,53
 102 1260 102 1260 36 1278 c 0,54,55
 4 1288 4 1288 0 1317 c 0,56,57
 0 1339 0 1339 92 1389 c 0,58,59
 186 1436 186 1436 229 1436 c 1,60,61
 252 1432 252 1432 313 1317 c 0,62,63
 358 1233 358 1233 438 1073 c 0,64,65
 612 729 612 729 641 717 c 1,66,67
 655 729 655 729 743 893 c 0,68,69
 837 1069 837 1069 856 1139 c 0,70,71
 870 1188 870 1188 888 1354 c 0,72,73
 897 1421 897 1421 960 1421 c 0,74,75
 979 1421 979 1421 1056 1411 c 1,76,77
 1056 1354 1056 1354 1034 1303 c 0,78,79
 1022 1274 1022 1274 993 1208 c 0,80,81
 897 971 897 971 764 752 c 0,82,83
 746 723 746 723 733 695 c 1,84,-1
 1103 695 l 1,85,-1
 1103 599 l 1,86,-1
 700 599 l 1,87,88
 692 559 692 559 692 520 c 0,89,90
 692 462 692 462 691 402 c 1,91,-1
 1103 402 l 1,92,-1
 1103 306 l 1,93,-1
 690 306 l 1,0,1
EndSplineSet
EndChar

StartChar: brokenbar
Encoding: 166 166 103
Width: 627
Flags: W
LayerCount: 2
Fore
SplineSet
486 901 m 0,0,1
 465 890 465 890 437 877 c 1,2,3
 377 838 377 838 248 773 c 0,4,5
 215 755 215 755 205 755 c 0,6,7
 187 755 187 755 172 773 c 0,8,9
 166 783 166 783 166 1152 c 2,10,-1
 166 1217 l 2,11,12
 166 1329 166 1329 144 1362 c 0,13,14
 123 1394 123 1394 39 1426 c 0,15,16
 0 1441 0 1441 0 1463 c 0,17,18
 0 1473 0 1473 11 1487 c 1,19,20
 136 1515 136 1515 322 1550 c 1,21,22
 377 1550 377 1550 377 1496 c 0,23,24
 377 1485 377 1485 375 1464 c 128,-1,25
 373 1443 373 1443 373 1434 c 2,26,-1
 373 924 l 1,27,28
 396 927 396 927 439 950 c 0,29,30
 480 971 480 971 494 971 c 0,31,32
 504 971 504 971 510 966 c 0,33,34
 527 957 527 957 527 943 c 0,35,36
 527 924 527 924 486 901 c 0,0,1
486 -4 m 0,37,38
 465 -14 465 -14 437 -28 c 0,39,40
 377 -67 377 -67 248 -132 c 0,41,42
 215 -150 215 -150 205 -150 c 0,43,44
 187 -150 187 -150 172 -132 c 0,45,46
 166 -122 166 -122 166 247 c 2,47,-1
 166 312 l 2,48,49
 166 425 166 425 144 458 c 0,50,51
 123 490 123 490 39 522 c 0,52,53
 0 537 0 537 0 559 c 0,54,55
 0 569 0 569 11 583 c 1,56,57
 136 611 136 611 322 646 c 1,58,59
 377 646 377 646 377 592 c 0,60,61
 377 581 377 581 375 560 c 128,-1,62
 373 539 373 539 373 530 c 2,63,-1
 373 19 l 1,64,65
 396 22 396 22 439 46 c 0,66,67
 480 66 480 66 494 66 c 0,68,69
 504 66 504 66 510 61 c 0,70,71
 527 52 527 52 527 38 c 0,72,73
 527 19 527 19 486 -4 c 0,37,38
EndSplineSet
EndChar

StartChar: section
Encoding: 167 167 104
Width: 1349
Flags: W
LayerCount: 2
Fore
SplineSet
583 878 m 0,0,1
 569 837 569 837 569 788 c 0,2,3
 569 680 569 680 613 590 c 128,-1,4
 657 500 657 500 718 500 c 0,5,6
 742 500 742 500 767 517 c 0,7,8
 791 529 791 529 817 543 c 1,9,10
 836 562 836 562 842.5 598 c 128,-1,11
 849 634 849 634 849 652 c 0,12,13
 849 751 849 751 805.5 866 c 128,-1,14
 762 981 762 981 680 981 c 0,15,16
 669 981 669 981 653 976 c 1,17,18
 636 964 636 964 615.5 942 c 128,-1,19
 595 920 595 920 583 878 c 0,0,1
441 543 m 1,20,21
 329 513 329 513 285 513 c 0,22,23
 180 513 180 513 121 611 c 0,24,25
 70 698 70 698 70 833 c 0,26,27
 70 1131 70 1131 199 1335 c 0,28,29
 332 1547 332 1547 545 1547 c 2,30,-1
 553 1547 l 2,31,32
 641 1544 641 1544 793 1411 c 0,33,34
 944 1279 944 1279 946 1279 c 0,35,36
 950 1279 950 1279 1001 1375 c 0,37,38
 1055 1471 1055 1471 1081 1471 c 0,39,40
 1098 1471 1098 1471 1114 1453 c 0,41,42
 1131 1433 1131 1433 1131 1408 c 1,43,44
 1106 1380 1106 1380 1026 1229 c 0,45,46
 954 1090 954 1090 934 1008 c 1,47,48
 960 977 960 977 974 940 c 1,49,50
 1122 893 1122 893 1186 806 c 0,51,52
 1249 716 1249 716 1249 541 c 0,53,54
 1249 250 1249 250 1112 41 c 0,55,56
 956 -198 956 -198 690 -205 c 1,57,-1
 670 -205 l 2,58,59
 514 -205 514 -205 242 -135 c 0,60,61
 186 -121 186 -121 178 -121 c 0,62,63
 158 -121 158 -121 117 -279 c 0,64,65
 107 -321 107 -321 86 -393 c 0,66,67
 66 -454 66 -454 49 -454 c 0,68,69
 39 -454 39 -454 21 -436 c 0,70,71
 0 -417 0 -417 0 -400 c 1,72,73
 39 -295 39 -295 119 -1 c 1,74,75
 143 224 143 224 182 224 c 1,76,77
 219 182 219 182 397 69 c 0,78,79
 641 -84 641 -84 782 -84 c 0,80,81
 836 -84 836 -84 868 -64 c 0,82,83
 965 -10 965 -10 1018 170 c 0,84,85
 1055 293 1055 293 1055 387 c 0,86,87
 1055 515 1055 515 1010 591 c 0,88,89
 998 611 998 611 983 626 c 1,90,91
 964 564 964 564 927 515 c 0,92,93
 854 419 854 419 722 400 c 1,94,95
 525 400 525 400 462 503 c 0,96,97
 450 522 450 522 441 543 c 1,20,21
399 791 m 1,98,99
 401 911 401 911 483 995 c 0,100,101
 566 1080 566 1080 695 1099 c 0,102,103
 707 1101 707 1101 732 1101 c 2,104,-1
 739 1101 l 1,105,106
 532 1396 532 1396 446 1396 c 0,107,108
 354 1396 354 1396 305 1279 c 0,109,110
 262 1173 262 1173 262 1014 c 0,111,112
 262 920 262 920 299 858 c 0,113,114
 336 797 336 797 399 791 c 1,98,99
EndSplineSet
EndChar

StartChar: dieresis
Encoding: 168 168 105
Width: 850
Flags: W
LayerCount: 2
Fore
SplineSet
0 1650 m 1,0,1
 31 1687 31 1687 86 1744 c 0,2,3
 139 1799 139 1799 160 1801 c 1,4,5
 207 1773 207 1773 279 1721 c 0,6,7
 346 1672 346 1672 346 1644 c 0,8,9
 346 1635 346 1635 293 1582 c 0,10,11
 238 1527 238 1527 201 1496 c 1,12,13
 180 1496 180 1496 94 1566 c 0,14,15
 4 1635 4 1635 0 1650 c 1,0,1
404 1649 m 0,16,17
 404 1665 404 1665 482 1741 c 0,18,19
 564 1821 564 1821 574 1821 c 0,20,21
 580 1821 580 1821 629 1780 c 0,22,23
 679 1737 679 1737 715 1694 c 0,24,25
 750 1651 750 1651 750 1639 c 1,26,27
 740 1620 740 1620 595 1497 c 1,28,29
 584 1497 584 1497 539 1528 c 0,30,31
 492 1557 492 1557 451 1596 c 0,32,33
 408 1632 408 1632 404 1649 c 0,16,17
EndSplineSet
EndChar

StartChar: copyright
Encoding: 169 169 106
Width: 950
Flags: W
LayerCount: 2
Fore
SplineSet
703 790 m 1,0,1
 800 910 800 910 800 1075 c 0,2,3
 800 1234 800 1234 710 1351 c 1,4,-1
 567 1230 l 1,5,6
 560 1233 560 1233 539 1256 c 0,7,8
 430 1369 430 1369 356 1369 c 0,9,10
 302 1369 302 1369 254 1264 c 0,11,12
 209 1168 209 1168 209 1085 c 1,13,14
 228 946 228 946 311 852 c 0,15,16
 395 758 395 758 505 758 c 0,17,18
 516 758 516 758 599 802 c 0,19,20
 686 848 686 848 703 848 c 1,21,-1
 703 790 l 1,0,1
651 736 m 1,22,-1
 593 723 l 2,23,24
 522 710 522 710 439 710 c 0,25,26
 297 710 297 710 210 781 c 0,27,28
 156 825 156 825 125 935 c 0,29,30
 100 1026 100 1026 100 1110 c 0,31,32
 100 1225 100 1225 170 1308 c 0,33,34
 222 1371 222 1371 309 1406 c 0,35,36
 374 1434 374 1434 416 1434 c 0,37,38
 487 1434 487 1434 550 1384 c 0,39,40
 564 1372 564 1372 590 1351 c 0,41,42
 608 1337 608 1337 619 1337 c 0,43,44
 620 1337 620 1337 652 1358 c 0,45,46
 681 1378 681 1378 685 1382 c 1,47,48
 576 1500 576 1500 425 1500 c 0,49,50
 270 1500 270 1500 160 1375.5 c 128,-1,51
 50 1251 50 1251 50 1075 c 256,52,53
 50 899 50 899 160 774.5 c 128,-1,54
 270 650 270 650 425 650 c 0,55,56
 554 650 554 650 651 736 c 1,22,-1
703 715 m 1,57,58
 701 552 701 552 687 552 c 2,59,-1
 655 552 l 1,60,61
 656 599 656 599 656 639 c 2,62,-1
 656 675 l 1,63,64
 554 600 554 600 425 600 c 0,65,66
 249 600 249 600 124.5 739 c 128,-1,67
 0 878 0 878 0 1075 c 256,68,69
 0 1272 0 1272 124.5 1411 c 128,-1,70
 249 1550 249 1550 425 1550 c 256,71,72
 601 1550 601 1550 725.5 1411 c 128,-1,73
 850 1272 850 1272 850 1075 c 256,74,75
 850 878 850 878 726 739 c 0,76,77
 714 727 714 727 703 715 c 1,57,58
EndSplineSet
EndChar

StartChar: ordfeminine
Encoding: 170 170 107
Width: 1650
Flags: W
LayerCount: 2
Fore
SplineSet
0 200 m 2,1,-1
 0 1300 l 2,2,3
 0 1500 0 1500 200 1500 c 2,4,-1
 1300 1500 l 2,5,6
 1500 1500 1500 1500 1500 1300 c 2,7,-1
 1500 200 l 2,8,9
 1500 0 1500 0 1300 0 c 2,10,-1
 200 0 l 2,11,0
 0 0 0 0 0 200 c 2,1,-1
1475 201 m 2,13,-1
 1475 1300 l 2,14,15
 1475 1475 1475 1475 1300 1475 c 2,16,-1
 200 1475 l 2,17,18
 26 1475 26 1475 25 1300 c 2,19,-1
 25 200 l 2,20,21
 26 25 26 25 200 25 c 2,22,-1
 1301 25 l 2,23,12
 1475 25 1475 25 1475 201 c 2,13,-1
EndSplineSet
EndChar

StartChar: guillemotleft
Encoding: 171 171 108
Width: 1602
Flags: W
LayerCount: 2
Fore
SplineSet
748 1160 m 1,1,2
 882 1160 882 1160 882 1109 c 1,3,4
 842 1004 842 1004 811 1000 c 0,5,6
 797 1000 797 1000 729 1053 c 1,7,-1
 655 1033 l 1,8,9
 622 1033 622 1033 579 995 c 1,10,11
 485 977 485 977 348 891 c 1,12,13
 215 837 215 837 209 802 c 1,14,15
 227 777 227 777 481 657 c 0,16,17
 594 603 594 603 676 560 c 0,18,19
 766 513 766 513 794 487 c 0,20,21
 856 435 856 435 856 368 c 0,22,23
 856 317 856 317 819 265 c 0,24,25
 786 222 786 222 766 222 c 0,26,27
 751 224 751 224 741 239 c 0,28,29
 733 253 733 253 725 265 c 0,30,31
 665 355 665 355 448 448 c 0,32,33
 174 564 174 564 61 659 c 0,34,35
 0 708 0 708 0 734 c 0,36,37
 0 773 0 773 149 902 c 1,38,39
 307 998 307 998 459 1059 c 1,40,0
 650 1150 650 1150 748 1160 c 1,1,2
1368 1160 m 1,42,43
 1502 1160 1502 1160 1502 1109 c 1,44,45
 1462 1004 1462 1004 1431 1000 c 0,46,47
 1417 1000 1417 1000 1349 1053 c 1,48,-1
 1275 1033 l 1,49,50
 1242 1033 1242 1033 1199 995 c 1,51,52
 1105 977 1105 977 968 891 c 1,53,54
 835 837 835 837 829 802 c 1,55,56
 847 777 847 777 1101 657 c 0,57,58
 1214 603 1214 603 1296 560 c 0,59,60
 1386 513 1386 513 1414 487 c 0,61,62
 1476 435 1476 435 1476 368 c 0,63,64
 1476 317 1476 317 1439 265 c 0,65,66
 1406 222 1406 222 1386 222 c 0,67,68
 1371 224 1371 224 1361 239 c 0,69,70
 1353 253 1353 253 1345 265 c 0,71,72
 1285 355 1285 355 1068 448 c 0,73,74
 794 564 794 564 681 659 c 0,75,76
 620 708 620 708 620 734 c 0,77,78
 620 773 620 773 769 902 c 1,79,80
 927 998 927 998 1079 1059 c 1,81,41
 1270 1150 1270 1150 1368 1160 c 1,42,43
EndSplineSet
EndChar

StartChar: logicalnot
Encoding: 172 172 109
Width: 1650
Flags: W
LayerCount: 2
Fore
SplineSet
0 200 m 2,1,-1
 0 1300 l 2,2,3
 0 1500 0 1500 200 1500 c 2,4,-1
 1300 1500 l 2,5,6
 1500 1500 1500 1500 1500 1300 c 2,7,-1
 1500 200 l 2,8,9
 1500 0 1500 0 1300 0 c 2,10,-1
 200 0 l 2,11,0
 0 0 0 0 0 200 c 2,1,-1
1475 201 m 2,13,-1
 1475 1300 l 2,14,15
 1475 1475 1475 1475 1300 1475 c 2,16,-1
 200 1475 l 2,17,18
 26 1475 26 1475 25 1300 c 2,19,-1
 25 200 l 2,20,21
 26 25 26 25 200 25 c 2,22,-1
 1301 25 l 2,23,12
 1475 25 1475 25 1475 201 c 2,13,-1
EndSplineSet
EndChar

StartChar: registered
Encoding: 174 174 110
Width: 950
Flags: W
LayerCount: 2
Fore
SplineSet
388 1362 m 0,0,1
 287 1362 287 1362 287 1262 c 2,2,-1
 287 1182 l 2,3,4
 287 1072 287 1072 411 1072 c 0,5,6
 466 1072 466 1072 502 1105 c 0,7,8
 541 1140 541 1140 541 1200 c 0,9,10
 541 1270 541 1270 504 1314 c 0,11,12
 463 1362 463 1362 388 1362 c 0,0,1
125 1331 m 1,13,14
 50 1221 50 1221 50 1075 c 0,15,16
 50 899 50 899 160 775 c 0,17,18
 162 772 162 772 165 769 c 1,19,20
 173 800 173 800 173 878 c 2,21,-1
 173 1147 l 2,22,23
 173 1171 173 1171 167 1229 c 0,24,25
 158 1310 158 1310 146 1323 c 0,26,27
 142 1327 142 1327 125 1331 c 1,13,14
623 713 m 1,28,29
 594 721 594 721 542 803 c 0,30,31
 456 938 456 938 417 977 c 0,32,33
 363 1032 363 1032 293 1032 c 1,34,35
 292 919 292 919 290 800 c 2,36,-1
 290 796 l 2,37,38
 290 763 290 763 309 753 c 0,39,40
 322 746 322 746 361 746 c 2,41,-1
 440 746 l 2,42,43
 460 746 460 746 460 727 c 0,44,45
 460 701 460 701 426 701 c 2,46,-1
 337 709 l 1,47,-1
 233 709 l 1,48,49
 318 650 318 650 425 650 c 0,50,51
 535 650 535 650 623 713 c 1,28,29
700 787 m 1,52,53
 800 907 800 907 800 1075 c 0,54,55
 800 1251 800 1251 690 1375.5 c 128,-1,56
 580 1500 580 1500 425 1500 c 256,57,58
 270 1500 270 1500 160 1376 c 0,59,60
 156 1371 156 1371 152 1367 c 1,61,62
 183 1363 183 1363 202 1363 c 2,63,-1
 261 1363 l 2,64,65
 267 1363 267 1363 280 1374 c 0,66,67
 289 1382 289 1382 313 1399 c 0,68,69
 367 1436 367 1436 448 1436 c 0,70,71
 543 1436 543 1436 606 1380 c 0,72,73
 671 1322 671 1322 671 1232 c 0,74,75
 671 1173 671 1173 648 1134 c 0,76,77
 627 1099 627 1099 578 1066 c 0,78,79
 561 1056 561 1056 530 1035 c 1,80,81
 564 971 564 971 624 890 c 0,82,83
 653 853 653 853 698 790 c 0,84,85
 699 788 699 788 700 787 c 1,52,53
740 756 m 1,86,87
 748 754 748 754 757 753 c 0,88,89
 781 751 781 751 782 751 c 0,90,91
 794 747 794 747 794 733 c 0,92,93
 794 725 794 725 791 722 c 2,94,-1
 785 712 l 1,95,-1
 699 712 l 1,96,97
 583 600 583 600 425 600 c 0,98,99
 271 600 271 600 156 706 c 1,100,-1
 63 698 l 2,101,102
 39 698 39 698 39 722 c 0,103,104
 39 742 39 742 119 746 c 1,105,106
 0 883 0 883 0 1075 c 0,107,108
 0 1223 0 1223 71 1339 c 1,109,-1
 66 1339 l 1,110,111
 0 1345 0 1345 0 1364 c 0,112,113
 0 1388 0 1388 21 1388 c 0,114,115
 23 1388 23 1388 28 1387 c 0,116,117
 59 1381 59 1381 90 1376 c 0,118,119
 93 1376 93 1376 95 1375 c 0,120,121
 109 1394 109 1394 125 1411 c 0,122,123
 249 1550 249 1550 425 1550 c 256,124,125
 601 1550 601 1550 725.5 1411 c 128,-1,126
 850 1272 850 1272 850 1075 c 0,127,128
 850 890 850 890 740 756 c 1,86,87
EndSplineSet
EndChar

StartChar: macron
Encoding: 175 175 111
Width: 1650
Flags: W
LayerCount: 2
Fore
SplineSet
0 200 m 2,1,-1
 0 1300 l 2,2,3
 0 1500 0 1500 200 1500 c 2,4,-1
 1300 1500 l 2,5,6
 1500 1500 1500 1500 1500 1300 c 2,7,-1
 1500 200 l 2,8,9
 1500 0 1500 0 1300 0 c 2,10,-1
 200 0 l 2,11,0
 0 0 0 0 0 200 c 2,1,-1
1475 201 m 2,13,-1
 1475 1300 l 2,14,15
 1475 1475 1475 1475 1300 1475 c 2,16,-1
 200 1475 l 2,17,18
 26 1475 26 1475 25 1300 c 2,19,-1
 25 200 l 2,20,21
 26 25 26 25 200 25 c 2,22,-1
 1301 25 l 2,23,12
 1475 25 1475 25 1475 201 c 2,13,-1
EndSplineSet
EndChar

StartChar: degree
Encoding: 176 176 112
Width: 1650
Flags: W
LayerCount: 2
Fore
SplineSet
0 200 m 2,1,-1
 0 1300 l 2,2,3
 0 1500 0 1500 200 1500 c 2,4,-1
 1300 1500 l 2,5,6
 1500 1500 1500 1500 1500 1300 c 2,7,-1
 1500 200 l 2,8,9
 1500 0 1500 0 1300 0 c 2,10,-1
 200 0 l 2,11,0
 0 0 0 0 0 200 c 2,1,-1
1475 201 m 2,13,-1
 1475 1300 l 2,14,15
 1475 1475 1475 1475 1300 1475 c 2,16,-1
 200 1475 l 2,17,18
 26 1475 26 1475 25 1300 c 2,19,-1
 25 200 l 2,20,21
 26 25 26 25 200 25 c 2,22,-1
 1301 25 l 2,23,12
 1475 25 1475 25 1475 201 c 2,13,-1
EndSplineSet
EndChar

StartChar: plusminus
Encoding: 177 177 113
Width: 1650
Flags: W
LayerCount: 2
Fore
SplineSet
0 200 m 2,1,-1
 0 1300 l 2,2,3
 0 1500 0 1500 200 1500 c 2,4,-1
 1300 1500 l 2,5,6
 1500 1500 1500 1500 1500 1300 c 2,7,-1
 1500 200 l 2,8,9
 1500 0 1500 0 1300 0 c 2,10,-1
 200 0 l 2,11,0
 0 0 0 0 0 200 c 2,1,-1
1475 201 m 2,13,-1
 1475 1300 l 2,14,15
 1475 1475 1475 1475 1300 1475 c 2,16,-1
 200 1475 l 2,17,18
 26 1475 26 1475 25 1300 c 2,19,-1
 25 200 l 2,20,21
 26 25 26 25 200 25 c 2,22,-1
 1301 25 l 2,23,12
 1475 25 1475 25 1475 201 c 2,13,-1
EndSplineSet
EndChar

StartChar: uni00B2
Encoding: 178 178 114
Width: 1650
Flags: W
LayerCount: 2
Fore
SplineSet
0 200 m 2,1,-1
 0 1300 l 2,2,3
 0 1500 0 1500 200 1500 c 2,4,-1
 1300 1500 l 2,5,6
 1500 1500 1500 1500 1500 1300 c 2,7,-1
 1500 200 l 2,8,9
 1500 0 1500 0 1300 0 c 2,10,-1
 200 0 l 2,11,0
 0 0 0 0 0 200 c 2,1,-1
1475 201 m 2,13,-1
 1475 1300 l 2,14,15
 1475 1475 1475 1475 1300 1475 c 2,16,-1
 200 1475 l 2,17,18
 26 1475 26 1475 25 1300 c 2,19,-1
 25 200 l 2,20,21
 26 25 26 25 200 25 c 2,22,-1
 1301 25 l 2,23,12
 1475 25 1475 25 1475 201 c 2,13,-1
EndSplineSet
EndChar

StartChar: uni00B3
Encoding: 179 179 115
Width: 1650
Flags: W
LayerCount: 2
Fore
SplineSet
0 200 m 2,1,-1
 0 1300 l 2,2,3
 0 1500 0 1500 200 1500 c 2,4,-1
 1300 1500 l 2,5,6
 1500 1500 1500 1500 1500 1300 c 2,7,-1
 1500 200 l 2,8,9
 1500 0 1500 0 1300 0 c 2,10,-1
 200 0 l 2,11,0
 0 0 0 0 0 200 c 2,1,-1
1475 201 m 2,13,-1
 1475 1300 l 2,14,15
 1475 1475 1475 1475 1300 1475 c 2,16,-1
 200 1475 l 2,17,18
 26 1475 26 1475 25 1300 c 2,19,-1
 25 200 l 2,20,21
 26 25 26 25 200 25 c 2,22,-1
 1301 25 l 2,23,12
 1475 25 1475 25 1475 201 c 2,13,-1
EndSplineSet
EndChar

StartChar: acute
Encoding: 180 180 116
Width: 750
Flags: W
LayerCount: 2
Fore
SplineSet
0 1513 m 1,1,2
 0 1555 0 1555 76 1625 c 0,3,4
 145 1687 145 1687 180 1697 c 128,-1,5
 215 1707 215 1707 239 1716 c 0,6,7
 489 1801 489 1801 570 1801 c 0,8,9
 611 1801 611 1801 650 1780 c 1,10,11
 455 1590 455 1590 399 1567 c 1,12,13
 298 1499 298 1499 124 1499 c 0,14,0
 64 1499 64 1499 0 1513 c 1,1,2
EndSplineSet
EndChar

StartChar: mu
Encoding: 181 181 117
Width: 1054
Flags: W
LayerCount: 2
Fore
SplineSet
348 -22 m 1,0,1
 347 -107 347 -107 346 -256 c 0,2,3
 344 -467 344 -467 344 -516 c 0,4,5
 344 -571 344 -571 426 -571 c 0,6,7
 453 -571 453 -571 502 -565 c 128,-1,8
 551 -559 551 -559 565 -559 c 0,9,10
 604 -559 604 -559 604 -584 c 0,11,12
 604 -596 604 -596 594 -610 c 0,13,14
 586 -621 586 -621 551 -621 c 0,15,16
 514 -621 514 -621 455 -627 c 0,17,18
 317 -641 317 -641 266 -641 c 0,19,20
 264 -641 264 -641 233 -649 c 0,21,22
 203 -655 203 -655 96 -680 c 1,23,24
 86 -651 86 -651 86 -637 c 0,25,26
 86 -610 86 -610 113 -604 c 0,27,28
 131 -600 131 -600 149 -596 c 1,29,30
 166 -584 166 -584 166 -512 c 2,31,-1
 166 139 l 1,32,-1
 168 279 l 1,33,-1
 168 348 l 2,34,35
 168 416 168 416 166 465 c 0,36,37
 164 565 164 565 151 598 c 0,38,39
 115 705 115 705 57 721 c 0,40,41
 0 737 0 737 0 778 c 1,42,43
 6 797 6 797 33 797 c 0,44,45
 39 797 39 797 68 793 c 0,46,47
 94 786 94 786 115 786 c 0,48,49
 180 795 180 795 227 813 c 0,50,51
 272 831 272 831 291 831 c 0,52,53
 350 831 350 831 350 780 c 0,54,55
 350 766 350 766 344 739 c 1,56,-1
 348 690 l 1,57,-1
 348 169 l 1,58,59
 398 75 398 75 495 75 c 1,60,61
 565 86 565 86 618 209 c 0,62,63
 672 332 672 332 672 489 c 0,64,65
 672 657 672 657 606 715 c 0,66,67
 594 725 594 725 571 739 c 0,68,69
 551 752 551 752 551 766 c 0,70,71
 551 776 551 776 557 782 c 0,72,73
 561 795 561 795 623 805 c 0,74,75
 670 811 670 811 790 829 c 1,76,77
 848 829 848 829 848 702 c 0,78,79
 848 678 848 678 846 608 c 0,80,81
 844 539 844 539 844 496 c 0,82,83
 844 219 844 219 848 188 c 1,84,85
 868 125 868 125 903 109 c 1,86,87
 926 104 926 104 954 76 c 1,88,89
 954 33 954 33 883 -10 c 0,90,91
 872 -18 872 -18 854 -18 c 0,92,93
 813 -18 813 -18 743 41 c 0,94,95
 676 100 676 100 672 100 c 0,96,97
 643 94 643 94 596 43 c 0,98,99
 512 -41 512 -41 420 -50 c 1,100,101
 380 -40 380 -40 348 -22 c 1,0,1
EndSplineSet
EndChar

StartChar: paragraph
Encoding: 182 182 118
Width: 936
Flags: W
LayerCount: 2
Fore
SplineSet
836 1435 m 1,0,-1
 836 1365 l 1,1,-1
 709 1365 l 1,2,-1
 709 0 l 1,3,-1
 627 0 l 1,4,-1
 627 1365 l 1,5,-1
 461 1365 l 1,6,-1
 461 0 l 1,7,-1
 377 0 l 1,8,-1
 377 738 l 1,9,10
 203 746 203 746 101.5 840.5 c 128,-1,11
 0 935 0 935 0 1086 c 0,12,13
 0 1243 0 1243 107.5 1339 c 128,-1,14
 215 1435 215 1435 393 1435 c 2,15,-1
 836 1435 l 1,0,-1
EndSplineSet
EndChar

StartChar: periodcentered
Encoding: 183 183 119
AltUni2: 002219.ffffffff.0
Width: 446
Flags: W
LayerCount: 2
Fore
SplineSet
0 658 m 1,0,1
 31 695 31 695 86 752 c 0,2,3
 139 807 139 807 160 809 c 1,4,5
 207 781 207 781 279 729 c 0,6,7
 346 680 346 680 346 652 c 0,8,9
 346 643 346 643 293 590 c 0,10,11
 238 535 238 535 201 504 c 1,12,13
 180 504 180 504 94 574 c 0,14,15
 4 643 4 643 0 658 c 1,0,1
EndSplineSet
EndChar

StartChar: cedilla
Encoding: 184 184 120
Width: 700
Flags: W
LayerCount: 2
Fore
SplineSet
387 -106 m 1,1,2
 371 -57 371 -57 336 -22 c 0,3,4
 289 23 289 23 197 23 c 1,5,-1
 371 104 l 1,6,7
 371 102 371 102 391 97 c 0,8,9
 541 35 541 35 573 -48 c 0,10,11
 592 -91 592 -91 600 -168 c 1,12,13
 599 -207 599 -207 596 -228.5 c 128,-1,14
 593 -250 593 -250 583 -305 c 0,15,16
 563 -400 563 -400 514 -447 c 0,17,18
 448 -505 448 -505 315 -505 c 0,19,20
 98 -505 98 -505 4 -320 c 1,21,22
 49 -298 49 -298 55 -298 c 0,23,24
 78 -298 78 -298 112 -354 c 0,25,26
 149 -414 149 -414 205 -414 c 0,27,28
 340 -414 340 -414 385 -308 c 1,29,30
 388 -265 388 -265 393 -204 c 0,31,0
 393 -173 393 -173 387 -106 c 1,1,2
EndSplineSet
EndChar

StartChar: uni00B9
Encoding: 185 185 121
Width: 1650
Flags: W
LayerCount: 2
Fore
SplineSet
0 200 m 2,1,-1
 0 1300 l 2,2,3
 0 1500 0 1500 200 1500 c 2,4,-1
 1300 1500 l 2,5,6
 1500 1500 1500 1500 1500 1300 c 2,7,-1
 1500 200 l 2,8,9
 1500 0 1500 0 1300 0 c 2,10,-1
 200 0 l 2,11,0
 0 0 0 0 0 200 c 2,1,-1
1475 201 m 2,13,-1
 1475 1300 l 2,14,15
 1475 1475 1475 1475 1300 1475 c 2,16,-1
 200 1475 l 2,17,18
 26 1475 26 1475 25 1300 c 2,19,-1
 25 200 l 2,20,21
 26 25 26 25 200 25 c 2,22,-1
 1301 25 l 2,23,12
 1475 25 1475 25 1475 201 c 2,13,-1
EndSplineSet
EndChar

StartChar: ordmasculine
Encoding: 186 186 122
Width: 1650
Flags: W
LayerCount: 2
Fore
SplineSet
0 200 m 2,1,-1
 0 1300 l 2,2,3
 0 1500 0 1500 200 1500 c 2,4,-1
 1300 1500 l 2,5,6
 1500 1500 1500 1500 1500 1300 c 2,7,-1
 1500 200 l 2,8,9
 1500 0 1500 0 1300 0 c 2,10,-1
 200 0 l 2,11,0
 0 0 0 0 0 200 c 2,1,-1
1475 201 m 2,13,-1
 1475 1300 l 2,14,15
 1475 1475 1475 1475 1300 1475 c 2,16,-1
 200 1475 l 2,17,18
 26 1475 26 1475 25 1300 c 2,19,-1
 25 200 l 2,20,21
 26 25 26 25 200 25 c 2,22,-1
 1301 25 l 2,23,12
 1475 25 1475 25 1475 201 c 2,13,-1
EndSplineSet
EndChar

StartChar: guillemotright
Encoding: 187 187 123
Width: 1602
Flags: W
LayerCount: 2
Fore
SplineSet
754 222 m 1,1,2
 620 222 620 222 620 273 c 1,3,4
 660 378 660 378 691 382 c 0,5,6
 705 382 705 382 773 329 c 1,7,-1
 847 349 l 1,8,9
 880 349 880 349 923 387 c 1,10,11
 1017 405 1017 405 1154 491 c 1,12,13
 1287 545 1287 545 1293 580 c 1,14,15
 1275 605 1275 605 1021 725 c 0,16,17
 908 779 908 779 826 822 c 0,18,19
 736 869 736 869 708 895 c 0,20,21
 646 947 646 947 646 1014 c 0,22,23
 646 1065 646 1065 683 1117 c 0,24,25
 716 1160 716 1160 736 1160 c 0,26,27
 751 1158 751 1158 761 1143 c 0,28,29
 769 1129 769 1129 777 1117 c 0,30,31
 837 1027 837 1027 1054 934 c 0,32,33
 1328 818 1328 818 1441 723 c 0,34,35
 1502 674 1502 674 1502 648 c 0,36,37
 1502 609 1502 609 1353 480 c 1,38,39
 1195 384 1195 384 1043 323 c 1,40,0
 852 232 852 232 754 222 c 1,1,2
134 222 m 1,42,43
 0 222 0 222 0 273 c 1,44,45
 40 378 40 378 71 382 c 0,46,47
 85 382 85 382 153 329 c 1,48,-1
 227 349 l 1,49,50
 260 349 260 349 303 387 c 1,51,52
 397 405 397 405 534 491 c 1,53,54
 667 545 667 545 673 580 c 1,55,56
 655 605 655 605 401 725 c 0,57,58
 288 779 288 779 206 822 c 0,59,60
 116 869 116 869 88 895 c 0,61,62
 26 947 26 947 26 1014 c 0,63,64
 26 1065 26 1065 63 1117 c 0,65,66
 96 1160 96 1160 116 1160 c 0,67,68
 131 1158 131 1158 141 1143 c 0,69,70
 149 1129 149 1129 157 1117 c 0,71,72
 217 1027 217 1027 434 934 c 0,73,74
 708 818 708 818 821 723 c 0,75,76
 882 674 882 674 882 648 c 0,77,78
 882 609 882 609 733 480 c 1,79,80
 575 384 575 384 423 323 c 1,81,41
 232 232 232 232 134 222 c 1,42,43
EndSplineSet
EndChar

StartChar: onequarter
Encoding: 188 188 124
Width: 1650
Flags: W
LayerCount: 2
Fore
SplineSet
0 200 m 2,1,-1
 0 1300 l 2,2,3
 0 1500 0 1500 200 1500 c 2,4,-1
 1300 1500 l 2,5,6
 1500 1500 1500 1500 1500 1300 c 2,7,-1
 1500 200 l 2,8,9
 1500 0 1500 0 1300 0 c 2,10,-1
 200 0 l 2,11,0
 0 0 0 0 0 200 c 2,1,-1
1475 201 m 2,13,-1
 1475 1300 l 2,14,15
 1475 1475 1475 1475 1300 1475 c 2,16,-1
 200 1475 l 2,17,18
 26 1475 26 1475 25 1300 c 2,19,-1
 25 200 l 2,20,21
 26 25 26 25 200 25 c 2,22,-1
 1301 25 l 2,23,12
 1475 25 1475 25 1475 201 c 2,13,-1
EndSplineSet
Ligature2: "'frac' Diagonal Fractions in Latin lookup 1 subtable" one fraction four
EndChar

StartChar: onehalf
Encoding: 189 189 125
Width: 1650
Flags: W
LayerCount: 2
Fore
SplineSet
0 200 m 2,1,-1
 0 1300 l 2,2,3
 0 1500 0 1500 200 1500 c 2,4,-1
 1300 1500 l 2,5,6
 1500 1500 1500 1500 1500 1300 c 2,7,-1
 1500 200 l 2,8,9
 1500 0 1500 0 1300 0 c 2,10,-1
 200 0 l 2,11,0
 0 0 0 0 0 200 c 2,1,-1
1475 201 m 2,13,-1
 1475 1300 l 2,14,15
 1475 1475 1475 1475 1300 1475 c 2,16,-1
 200 1475 l 2,17,18
 26 1475 26 1475 25 1300 c 2,19,-1
 25 200 l 2,20,21
 26 25 26 25 200 25 c 2,22,-1
 1301 25 l 2,23,12
 1475 25 1475 25 1475 201 c 2,13,-1
EndSplineSet
Ligature2: "'frac' Diagonal Fractions in Latin lookup 1 subtable" one fraction two
EndChar

StartChar: threequarters
Encoding: 190 190 126
Width: 1650
Flags: W
LayerCount: 2
Fore
SplineSet
0 200 m 2,1,-1
 0 1300 l 2,2,3
 0 1500 0 1500 200 1500 c 2,4,-1
 1300 1500 l 2,5,6
 1500 1500 1500 1500 1500 1300 c 2,7,-1
 1500 200 l 2,8,9
 1500 0 1500 0 1300 0 c 2,10,-1
 200 0 l 2,11,0
 0 0 0 0 0 200 c 2,1,-1
1475 201 m 2,13,-1
 1475 1300 l 2,14,15
 1475 1475 1475 1475 1300 1475 c 2,16,-1
 200 1475 l 2,17,18
 26 1475 26 1475 25 1300 c 2,19,-1
 25 200 l 2,20,21
 26 25 26 25 200 25 c 2,22,-1
 1301 25 l 2,23,12
 1475 25 1475 25 1475 201 c 2,13,-1
EndSplineSet
Ligature2: "'frac' Diagonal Fractions in Latin lookup 1 subtable" three fraction four
EndChar

StartChar: questiondown
Encoding: 191 191 127
Width: 739
Flags: W
LayerCount: 2
Fore
SplineSet
416 1026 m 1,0,-1
 488 1026 l 1,1,-1
 488 977 l 2,2,3
 488 907 488 907 504 813 c 2,4,-1
 519 729 l 1,5,6
 519 696 519 696 486 682 c 0,7,8
 476 678 476 678 426 668 c 0,9,10
 125 608 125 608 125 432 c 0,11,12
 125 332 125 332 209 238 c 0,13,14
 295 143 295 143 394 143 c 0,15,16
 422 143 422 143 457 154 c 2,17,-1
 506 174 l 2,18,19
 527 182 527 182 551 182 c 0,20,21
 639 182 639 182 639 98 c 0,22,23
 639 37 639 37 578 4 c 0,24,25
 529 -23 529 -23 461 -23 c 0,26,27
 301 -23 301 -23 160 154 c 0,28,29
 99 231 99 231 54 328 c 0,30,31
 0 442 0 442 0 524 c 0,32,33
 0 647 0 647 86 723 c 0,34,35
 148 780 148 780 285 829 c 0,36,37
 365 858 365 858 390 901 c 0,38,39
 412 936 412 936 416 1026 c 1,0,-1
570 1266 m 0,40,41
 570 1214 570 1214 533 1178.5 c 128,-1,42
 496 1143 496 1143 445 1143 c 256,43,44
 394 1143 394 1143 357 1178 c 0,45,46
 322 1214 322 1214 322 1266 c 0,47,48
 322 1317 322 1317 357 1352 c 0,49,50
 394 1389 394 1389 445 1389 c 0,51,52
 498 1389 498 1389 533 1354 c 0,53,54
 570 1319 570 1319 570 1266 c 0,40,41
EndSplineSet
EndChar

StartChar: Agrave
Encoding: 192 192 128
Width: 1527
Flags: W
LayerCount: 2
Fore
SplineSet
248 598 m 1,0,1
 291 784 291 784 428 1292 c 1,2,3
 426 1311 426 1311 372 1319 c 0,4,5
 268 1327 268 1327 161 1333 c 1,6,7
 18 1356 18 1356 18 1427 c 1,8,9
 260 1413 260 1413 628 1399 c 1,10,11
 753 1399 753 1399 913 1417 c 0,12,13
 1073 1436 1073 1436 1102 1436 c 0,14,15
 1175 1436 1175 1436 1196 1384 c 1,16,17
 1159 1358 1159 1358 1085 1348 c 0,18,19
 1044 1341 1044 1341 1040 1339 c 0,20,21
 1026 1331 1026 1331 1026 1296 c 0,22,23
 1026 1202 1026 1202 1075 944 c 0,24,25
 1122 709 1122 709 1136 676 c 1,26,-1
 1138 666 l 2,27,28
 1167 508 1167 508 1196 350 c 0,29,30
 1243 121 1243 121 1284 92 c 0,31,32
 1296 84 1296 84 1339 82 c 0,33,34
 1380 82 1380 82 1398 70 c 0,35,36
 1427 51 1427 51 1427 -4 c 1,37,38
 1378 -14 1378 -14 1353 -14 c 2,39,-1
 1282 -4 l 2,40,41
 1208 4 1208 4 1077 4 c 0,42,43
 983 4 983 4 923 -4 c 2,44,-1
 870 -12 l 1,45,46
 846 12 846 12 846 33 c 0,47,48
 846 61 846 61 919 78 c 0,49,50
 1001 98 1001 98 1018 119 c 1,51,52
 950 639 950 639 923 668 c 1,53,54
 835 666 835 666 616 635 c 0,55,56
 360 600 360 600 336 573 c 1,57,58
 317 516 317 516 291 397 c 0,59,60
 252 217 252 217 252 100 c 1,61,62
 256 59 256 59 286 59 c 0,63,64
 295 59 295 59 327 63 c 0,65,66
 358 68 358 68 385 68 c 1,67,68
 413 59 413 59 413 -10 c 1,69,70
 389 -14 389 -14 2 -39 c 1,71,72
 0 -4 0 -4 0 23 c 0,73,74
 0 53 0 53 14 53 c 2,75,-1
 24 51 l 1,76,-1
 30 47 l 2,77,78
 39 43 39 43 47 43 c 0,79,80
 63 43 63 43 86 59 c 0,81,82
 104 72 104 72 233 575 c 0,83,84
 239 598 239 598 248 598 c 1,0,1
780 1313 m 1,85,-1
 735 1313 l 2,86,87
 704 1313 704 1313 630 1311 c 0,88,89
 555 1309 555 1309 528 1309 c 1,90,91
 407 852 407 852 389 776 c 1,92,93
 397 774 397 774 440 774 c 0,94,95
 630 774 630 774 905 803 c 1,96,97
 903 907 903 907 848 1112 c 0,98,99
 796 1300 796 1300 780 1313 c 1,85,-1
857 1499 m 0,100,101
 682 1499 682 1499 582 1567 c 1,102,103
 525 1590 525 1590 330 1780 c 1,104,105
 369 1801 369 1801 410 1801 c 0,106,107
 491 1801 491 1801 742 1716 c 0,108,109
 765 1707 765 1707 800 1697 c 128,-1,110
 835 1687 835 1687 905 1625 c 0,111,112
 980 1555 980 1555 980 1513 c 1,113,114
 916 1499 916 1499 857 1499 c 0,100,101
EndSplineSet
EndChar

StartChar: Aacute
Encoding: 193 193 129
Width: 1527
Flags: W
LayerCount: 2
Fore
SplineSet
248 598 m 1,0,1
 291 784 291 784 428 1292 c 1,2,3
 426 1311 426 1311 372 1319 c 0,4,5
 268 1327 268 1327 161 1333 c 1,6,7
 18 1356 18 1356 18 1427 c 1,8,9
 260 1413 260 1413 628 1399 c 1,10,11
 753 1399 753 1399 913 1417 c 0,12,13
 1073 1436 1073 1436 1102 1436 c 0,14,15
 1175 1436 1175 1436 1196 1384 c 1,16,17
 1159 1358 1159 1358 1085 1348 c 0,18,19
 1044 1341 1044 1341 1040 1339 c 0,20,21
 1026 1331 1026 1331 1026 1296 c 0,22,23
 1026 1202 1026 1202 1075 944 c 0,24,25
 1122 709 1122 709 1136 676 c 1,26,-1
 1138 666 l 2,27,28
 1167 508 1167 508 1196 350 c 0,29,30
 1243 121 1243 121 1284 92 c 0,31,32
 1296 84 1296 84 1339 82 c 0,33,34
 1380 82 1380 82 1398 70 c 0,35,36
 1427 51 1427 51 1427 -4 c 1,37,38
 1378 -14 1378 -14 1353 -14 c 2,39,-1
 1282 -4 l 2,40,41
 1208 4 1208 4 1077 4 c 0,42,43
 983 4 983 4 923 -4 c 2,44,-1
 870 -12 l 1,45,46
 846 12 846 12 846 33 c 0,47,48
 846 61 846 61 919 78 c 0,49,50
 1001 98 1001 98 1018 119 c 1,51,52
 950 639 950 639 923 668 c 1,53,54
 835 666 835 666 616 635 c 0,55,56
 360 600 360 600 336 573 c 1,57,58
 317 516 317 516 291 397 c 0,59,60
 252 217 252 217 252 100 c 1,61,62
 256 59 256 59 286 59 c 0,63,64
 295 59 295 59 327 63 c 0,65,66
 358 68 358 68 385 68 c 1,67,68
 413 59 413 59 413 -10 c 1,69,70
 389 -14 389 -14 2 -39 c 1,71,72
 0 -4 0 -4 0 23 c 0,73,74
 0 53 0 53 14 53 c 2,75,-1
 24 51 l 1,76,-1
 30 47 l 2,77,78
 39 43 39 43 47 43 c 0,79,80
 63 43 63 43 86 59 c 0,81,82
 104 72 104 72 233 575 c 0,83,84
 239 598 239 598 248 598 c 1,0,1
780 1313 m 1,85,-1
 735 1313 l 2,86,87
 704 1313 704 1313 630 1311 c 0,88,89
 555 1309 555 1309 528 1309 c 1,90,91
 407 852 407 852 389 776 c 1,92,93
 397 774 397 774 440 774 c 0,94,95
 630 774 630 774 905 803 c 1,96,97
 903 907 903 907 848 1112 c 0,98,99
 796 1300 796 1300 780 1313 c 1,85,-1
330 1513 m 1,101,102
 330 1555 330 1555 405 1625 c 0,103,104
 475 1687 475 1687 510 1697 c 128,-1,105
 545 1707 545 1707 568 1716 c 0,106,107
 819 1801 819 1801 900 1801 c 0,108,109
 941 1801 941 1801 980 1780 c 1,110,111
 785 1590 785 1590 728 1567 c 1,112,113
 628 1499 628 1499 453 1499 c 0,114,100
 394 1499 394 1499 330 1513 c 1,101,102
EndSplineSet
EndChar

StartChar: Acircumflex
Encoding: 194 194 130
Width: 1527
Flags: W
LayerCount: 2
Fore
SplineSet
248 598 m 1,0,1
 291 784 291 784 428 1292 c 1,2,3
 426 1311 426 1311 372 1319 c 0,4,5
 268 1327 268 1327 161 1333 c 1,6,7
 18 1356 18 1356 18 1427 c 1,8,9
 260 1413 260 1413 628 1399 c 1,10,11
 753 1399 753 1399 913 1417 c 0,12,13
 1073 1436 1073 1436 1102 1436 c 0,14,15
 1175 1436 1175 1436 1196 1384 c 1,16,17
 1159 1358 1159 1358 1085 1348 c 0,18,19
 1044 1341 1044 1341 1040 1339 c 0,20,21
 1026 1331 1026 1331 1026 1296 c 0,22,23
 1026 1202 1026 1202 1075 944 c 0,24,25
 1122 709 1122 709 1136 676 c 1,26,-1
 1138 666 l 2,27,28
 1167 508 1167 508 1196 350 c 0,29,30
 1243 121 1243 121 1284 92 c 0,31,32
 1296 84 1296 84 1339 82 c 0,33,34
 1380 82 1380 82 1398 70 c 0,35,36
 1427 51 1427 51 1427 -4 c 1,37,38
 1378 -14 1378 -14 1353 -14 c 2,39,-1
 1282 -4 l 2,40,41
 1208 4 1208 4 1077 4 c 0,42,43
 983 4 983 4 923 -4 c 2,44,-1
 870 -12 l 1,45,46
 846 12 846 12 846 33 c 0,47,48
 846 61 846 61 919 78 c 0,49,50
 1001 98 1001 98 1018 119 c 1,51,52
 950 639 950 639 923 668 c 1,53,54
 835 666 835 666 616 635 c 0,55,56
 360 600 360 600 336 573 c 1,57,58
 317 516 317 516 291 397 c 0,59,60
 252 217 252 217 252 100 c 1,61,62
 256 59 256 59 286 59 c 0,63,64
 295 59 295 59 327 63 c 0,65,66
 358 68 358 68 385 68 c 1,67,68
 413 59 413 59 413 -10 c 1,69,70
 389 -14 389 -14 2 -39 c 1,71,72
 0 -4 0 -4 0 23 c 0,73,74
 0 53 0 53 14 53 c 2,75,-1
 24 51 l 1,76,-1
 30 47 l 2,77,78
 39 43 39 43 47 43 c 0,79,80
 63 43 63 43 86 59 c 0,81,82
 104 72 104 72 233 575 c 0,83,84
 239 598 239 598 248 598 c 1,0,1
780 1313 m 1,85,-1
 735 1313 l 2,86,87
 704 1313 704 1313 630 1311 c 0,88,89
 555 1309 555 1309 528 1309 c 1,90,91
 407 852 407 852 389 776 c 1,92,93
 397 774 397 774 440 774 c 0,94,95
 630 774 630 774 905 803 c 1,96,97
 903 907 903 907 848 1112 c 0,98,99
 796 1300 796 1300 780 1313 c 1,85,-1
808 1539 m 0,100,101
 664 1702 664 1702 633 1702 c 0,102,103
 612 1702 612 1702 564 1646 c 0,104,105
 532 1609 532 1609 450 1521 c 1,106,107
 423 1500 423 1500 403 1500 c 0,108,109
 366 1500 366 1500 360 1560 c 1,110,111
 411 1677 411 1677 534 1795 c 0,112,113
 647 1903 647 1903 695 1903 c 0,114,115
 701 1903 701 1903 705 1900 c 0,116,117
 763 1851 763 1851 823 1785 c 0,118,119
 855 1748 855 1748 926 1670 c 0,120,121
 929 1661 929 1661 931 1651 c 2,122,-1
 940 1601 l 1,123,124
 888 1523 888 1523 850 1523 c 0,125,126
 827 1523 827 1523 808 1539 c 0,100,101
EndSplineSet
EndChar

StartChar: Atilde
Encoding: 195 195 131
Width: 1527
Flags: W
LayerCount: 2
Fore
SplineSet
248 598 m 1,0,1
 291 784 291 784 428 1292 c 1,2,3
 426 1311 426 1311 372 1319 c 0,4,5
 268 1327 268 1327 161 1333 c 1,6,7
 18 1356 18 1356 18 1427 c 1,8,9
 260 1413 260 1413 628 1399 c 1,10,11
 753 1399 753 1399 913 1417 c 0,12,13
 1073 1436 1073 1436 1102 1436 c 0,14,15
 1175 1436 1175 1436 1196 1384 c 1,16,17
 1159 1358 1159 1358 1085 1348 c 0,18,19
 1044 1341 1044 1341 1040 1339 c 0,20,21
 1026 1331 1026 1331 1026 1296 c 0,22,23
 1026 1202 1026 1202 1075 944 c 0,24,25
 1122 709 1122 709 1136 676 c 1,26,-1
 1138 666 l 2,27,28
 1167 508 1167 508 1196 350 c 0,29,30
 1243 121 1243 121 1284 92 c 0,31,32
 1296 84 1296 84 1339 82 c 0,33,34
 1380 82 1380 82 1398 70 c 0,35,36
 1427 51 1427 51 1427 -4 c 1,37,38
 1378 -14 1378 -14 1353 -14 c 2,39,-1
 1282 -4 l 2,40,41
 1208 4 1208 4 1077 4 c 0,42,43
 983 4 983 4 923 -4 c 2,44,-1
 870 -12 l 1,45,46
 846 12 846 12 846 33 c 0,47,48
 846 61 846 61 919 78 c 0,49,50
 1001 98 1001 98 1018 119 c 1,51,52
 950 639 950 639 923 668 c 1,53,54
 835 666 835 666 616 635 c 0,55,56
 360 600 360 600 336 573 c 1,57,58
 317 516 317 516 291 397 c 0,59,60
 252 217 252 217 252 100 c 1,61,62
 256 59 256 59 286 59 c 0,63,64
 295 59 295 59 327 63 c 0,65,66
 358 68 358 68 385 68 c 1,67,68
 413 59 413 59 413 -10 c 1,69,70
 389 -14 389 -14 2 -39 c 1,71,72
 0 -4 0 -4 0 23 c 0,73,74
 0 53 0 53 14 53 c 2,75,-1
 24 51 l 1,76,-1
 30 47 l 2,77,78
 39 43 39 43 47 43 c 0,79,80
 63 43 63 43 86 59 c 0,81,82
 104 72 104 72 233 575 c 0,83,84
 239 598 239 598 248 598 c 1,0,1
780 1313 m 1,85,-1
 735 1313 l 2,86,87
 704 1313 704 1313 630 1311 c 0,88,89
 555 1309 555 1309 528 1309 c 1,90,91
 407 852 407 852 389 776 c 1,92,93
 397 774 397 774 440 774 c 0,94,95
 630 774 630 774 905 803 c 1,96,97
 903 907 903 907 848 1112 c 0,98,99
 796 1300 796 1300 780 1313 c 1,85,-1
892 1519 m 1,100,101
 868 1502 868 1502 835 1502 c 0,102,103
 796 1502 796 1502 722 1531 c 0,104,105
 615 1572 615 1572 570 1572 c 0,106,107
 556 1572 556 1572 544 1570 c 0,108,109
 480 1557 480 1557 280 1426 c 1,110,-1
 523 1669 l 1,111,112
 637 1744 637 1744 708 1744 c 0,113,114
 749 1744 749 1744 836.5 1715.5 c 128,-1,115
 924 1687 924 1687 967 1687 c 0,116,117
 1021 1687 1021 1687 1074 1700 c 1,118,-1
 892 1519 l 1,100,101
EndSplineSet
EndChar

StartChar: Adieresis
Encoding: 196 196 132
Width: 1527
Flags: W
LayerCount: 2
Fore
SplineSet
248 598 m 1,0,1
 291 784 291 784 428 1292 c 1,2,3
 426 1311 426 1311 372 1319 c 0,4,5
 268 1327 268 1327 161 1333 c 1,6,7
 18 1356 18 1356 18 1427 c 1,8,9
 260 1413 260 1413 628 1399 c 1,10,11
 753 1399 753 1399 913 1417 c 0,12,13
 1073 1436 1073 1436 1102 1436 c 0,14,15
 1175 1436 1175 1436 1196 1384 c 1,16,17
 1159 1358 1159 1358 1085 1348 c 0,18,19
 1044 1341 1044 1341 1040 1339 c 0,20,21
 1026 1331 1026 1331 1026 1296 c 0,22,23
 1026 1202 1026 1202 1075 944 c 0,24,25
 1122 709 1122 709 1136 676 c 1,26,-1
 1138 666 l 2,27,28
 1167 508 1167 508 1196 350 c 0,29,30
 1243 121 1243 121 1284 92 c 0,31,32
 1296 84 1296 84 1339 82 c 0,33,34
 1380 82 1380 82 1398 70 c 0,35,36
 1427 51 1427 51 1427 -4 c 1,37,38
 1378 -14 1378 -14 1353 -14 c 2,39,-1
 1282 -4 l 2,40,41
 1208 4 1208 4 1077 4 c 0,42,43
 983 4 983 4 923 -4 c 2,44,-1
 870 -12 l 1,45,46
 846 12 846 12 846 33 c 0,47,48
 846 61 846 61 919 78 c 0,49,50
 1001 98 1001 98 1018 119 c 1,51,52
 950 639 950 639 923 668 c 1,53,54
 835 666 835 666 616 635 c 0,55,56
 360 600 360 600 336 573 c 1,57,58
 317 516 317 516 291 397 c 0,59,60
 252 217 252 217 252 100 c 1,61,62
 256 59 256 59 286 59 c 0,63,64
 295 59 295 59 327 63 c 0,65,66
 358 68 358 68 385 68 c 1,67,68
 413 59 413 59 413 -10 c 1,69,70
 389 -14 389 -14 2 -39 c 1,71,72
 0 -4 0 -4 0 23 c 0,73,74
 0 53 0 53 14 53 c 2,75,-1
 24 51 l 1,76,-1
 30 47 l 2,77,78
 39 43 39 43 47 43 c 0,79,80
 63 43 63 43 86 59 c 0,81,82
 104 72 104 72 233 575 c 0,83,84
 239 598 239 598 248 598 c 1,0,1
780 1313 m 1,85,-1
 735 1313 l 2,86,87
 704 1313 704 1313 630 1311 c 0,88,89
 555 1309 555 1309 528 1309 c 1,90,91
 407 852 407 852 389 776 c 1,92,93
 397 774 397 774 440 774 c 0,94,95
 630 774 630 774 905 803 c 1,96,97
 903 907 903 907 848 1112 c 0,98,99
 796 1300 796 1300 780 1313 c 1,85,-1
270 1650 m 1,100,101
 301 1687 301 1687 356 1744 c 0,102,103
 409 1799 409 1799 430 1801 c 1,104,105
 477 1773 477 1773 549 1721 c 0,106,107
 616 1672 616 1672 616 1644 c 0,108,109
 616 1635 616 1635 563 1582 c 0,110,111
 508 1527 508 1527 471 1496 c 1,112,113
 450 1496 450 1496 364 1566 c 0,114,115
 274 1635 274 1635 270 1650 c 1,100,101
674 1649 m 0,116,117
 674 1665 674 1665 752 1741 c 0,118,119
 834 1821 834 1821 844 1821 c 0,120,121
 850 1821 850 1821 899 1780 c 0,122,123
 949 1737 949 1737 985 1694 c 0,124,125
 1020 1651 1020 1651 1020 1639 c 1,126,127
 1010 1620 1010 1620 865 1497 c 1,128,129
 854 1497 854 1497 809 1528 c 0,130,131
 762 1557 762 1557 721 1596 c 0,132,133
 678 1632 678 1632 674 1649 c 0,116,117
EndSplineSet
EndChar

StartChar: Aring
Encoding: 197 197 133
Width: 1527
Flags: W
LayerCount: 2
Fore
SplineSet
248 598 m 1,0,1
 291 784 291 784 428 1292 c 1,2,3
 426 1311 426 1311 372 1319 c 0,4,5
 268 1327 268 1327 161 1333 c 1,6,7
 18 1356 18 1356 18 1427 c 1,8,9
 260 1413 260 1413 628 1399 c 1,10,11
 753 1399 753 1399 913 1417 c 0,12,13
 1073 1436 1073 1436 1102 1436 c 0,14,15
 1175 1436 1175 1436 1196 1384 c 1,16,17
 1159 1358 1159 1358 1085 1348 c 0,18,19
 1044 1341 1044 1341 1040 1339 c 0,20,21
 1026 1331 1026 1331 1026 1296 c 0,22,23
 1026 1202 1026 1202 1075 944 c 0,24,25
 1122 709 1122 709 1136 676 c 1,26,-1
 1138 666 l 2,27,28
 1167 508 1167 508 1196 350 c 0,29,30
 1243 121 1243 121 1284 92 c 0,31,32
 1296 84 1296 84 1339 82 c 0,33,34
 1380 82 1380 82 1398 70 c 0,35,36
 1427 51 1427 51 1427 -4 c 1,37,38
 1378 -14 1378 -14 1353 -14 c 2,39,-1
 1282 -4 l 2,40,41
 1208 4 1208 4 1077 4 c 0,42,43
 983 4 983 4 923 -4 c 2,44,-1
 870 -12 l 1,45,46
 846 12 846 12 846 33 c 0,47,48
 846 61 846 61 919 78 c 0,49,50
 1001 98 1001 98 1018 119 c 1,51,52
 950 639 950 639 923 668 c 1,53,54
 835 666 835 666 616 635 c 0,55,56
 360 600 360 600 336 573 c 1,57,58
 317 516 317 516 291 397 c 0,59,60
 252 217 252 217 252 100 c 1,61,62
 256 59 256 59 286 59 c 0,63,64
 295 59 295 59 327 63 c 0,65,66
 358 68 358 68 385 68 c 1,67,68
 413 59 413 59 413 -10 c 1,69,70
 389 -14 389 -14 2 -39 c 1,71,72
 0 -4 0 -4 0 23 c 0,73,74
 0 53 0 53 14 53 c 2,75,-1
 24 51 l 1,76,-1
 30 47 l 2,77,78
 39 43 39 43 47 43 c 0,79,80
 63 43 63 43 86 59 c 0,81,82
 104 72 104 72 233 575 c 0,83,84
 239 598 239 598 248 598 c 1,0,1
780 1313 m 1,85,-1
 735 1313 l 2,86,87
 704 1313 704 1313 630 1311 c 0,88,89
 555 1309 555 1309 528 1309 c 1,90,91
 407 852 407 852 389 776 c 1,92,93
 397 774 397 774 440 774 c 0,94,95
 630 774 630 774 905 803 c 1,96,97
 903 907 903 907 848 1112 c 0,98,99
 796 1300 796 1300 780 1313 c 1,85,-1
672 1500 m 1,100,101
 517 1500 517 1500 460 1561 c 0,102,103
 419 1603 419 1603 419 1693 c 0,104,105
 419 1755 419 1755 485 1798 c 0,106,107
 550 1841 550 1841 650 1850 c 0,108,109
 669 1852 669 1852 678 1852 c 0,110,111
 745 1852 745 1852 805 1824 c 0,112,113
 858 1800 858 1800 869 1774 c 0,114,115
 890 1726 890 1726 890 1679 c 0,116,117
 890 1605 890 1605 835 1558 c 0,118,119
 777 1510 777 1510 672 1500 c 1,100,101
641 1768 m 0,120,121
 630 1768 630 1768 626 1767 c 0,122,123
 598 1759 598 1759 583 1731 c 0,124,125
 575 1715 575 1715 575 1696 c 0,126,127
 575 1656 575 1656 602 1622 c 0,128,129
 630 1587 630 1587 667 1587 c 0,130,131
 674 1587 674 1587 706 1597 c 0,132,133
 714 1599 714 1599 727 1604 c 0,134,135
 739 1610 739 1610 746 1634 c 1,136,137
 746 1679 746 1679 721 1719 c 0,138,139
 691 1768 691 1768 641 1768 c 0,120,121
EndSplineSet
EndChar

StartChar: AE
Encoding: 198 198 134
Width: 2274
Flags: W
LayerCount: 2
Fore
SplineSet
780 1313 m 1,0,-1
 735 1313 l 2,1,2
 704 1313 704 1313 630 1311 c 0,3,4
 555 1309 555 1309 528 1309 c 1,5,6
 407 852 407 852 389 776 c 1,7,8
 397 774 397 774 440 774 c 0,9,10
 630 774 630 774 905 803 c 1,11,12
 903 907 903 907 848 1112 c 0,13,14
 796 1300 796 1300 780 1313 c 1,0,-1
1453 1270 m 2,15,16
 1369 1268 1369 1268 1277 1149 c 0,17,18
 1181 1026 1181 1026 1181 905 c 1,19,20
 1187 866 1187 866 1205 856 c 0,21,22
 1219 848 1219 848 1264 848 c 0,23,24
 1742 848 1742 848 1871 877 c 1,25,26
 1830 983 1830 983 1701 1118 c 0,27,28
 1559 1270 1559 1270 1457 1270 c 2,29,-1
 1453 1270 l 2,15,16
1863 698 m 2,30,31
 1185 698 1185 698 1181 631 c 1,32,33
 1230 403 1230 403 1389 270 c 0,34,35
 1547 141 1547 141 1764 141 c 0,36,37
 1908 141 1908 141 2032 197 c 1,38,39
 2039 221 2039 221 2047 430 c 0,40,41
 2049 541 2049 541 2055 696 c 1,42,43
 2049 696 2049 696 1983 698 c 2,44,-1
 1863 698 l 2,30,31
1415 -6 m 1,45,46
 1375 -14 1375 -14 1353 -14 c 2,47,-1
 1282 -4 l 2,48,49
 1208 4 1208 4 1077 4 c 0,50,51
 983 4 983 4 923 -4 c 2,52,-1
 870 -12 l 1,53,54
 846 12 846 12 846 33 c 0,55,56
 846 61 846 61 919 78 c 0,57,58
 1001 98 1001 98 1018 119 c 1,59,60
 950 639 950 639 923 668 c 1,61,62
 835 666 835 666 616 635 c 0,63,64
 360 600 360 600 336 573 c 1,65,66
 317 516 317 516 291 397 c 0,67,68
 252 217 252 217 252 100 c 1,69,70
 256 59 256 59 286 59 c 0,71,72
 295 59 295 59 327 63 c 0,73,74
 358 68 358 68 385 68 c 1,75,76
 413 59 413 59 413 -10 c 1,77,78
 389 -14 389 -14 2 -39 c 1,79,80
 0 -4 0 -4 0 23 c 0,81,82
 0 53 0 53 14 53 c 2,83,-1
 24 51 l 1,84,-1
 30 47 l 2,85,86
 39 43 39 43 47 43 c 0,87,88
 63 43 63 43 86 59 c 0,89,90
 104 72 104 72 233 575 c 0,91,92
 239 598 239 598 248 598 c 1,93,94
 291 784 291 784 428 1292 c 1,95,96
 426 1311 426 1311 372 1319 c 0,97,98
 268 1327 268 1327 161 1333 c 1,99,100
 18 1356 18 1356 18 1427 c 1,101,102
 260 1413 260 1413 628 1399 c 1,103,104
 753 1399 753 1399 913 1417 c 0,105,106
 1073 1436 1073 1436 1102 1436 c 0,107,108
 1175 1436 1175 1436 1196 1384 c 1,109,110
 1159 1358 1159 1358 1085 1348 c 0,111,112
 1044 1341 1044 1341 1040 1339 c 0,113,114
 1026 1331 1026 1331 1026 1296 c 0,115,116
 1026 1231 1026 1231 1050 1087 c 1,117,118
 1100 1200 1100 1200 1142 1241 c 0,119,120
 1197 1296 1197 1296 1328 1352 c 0,121,122
 1482 1415 1482 1415 1607 1415 c 0,123,124
 1690 1415 1690 1415 1916 1237 c 0,125,126
 1951 1210 1951 1210 1963 1202 c 1,127,128
 2061 1368 2061 1368 2086 1368 c 0,129,130
 2094 1368 2094 1368 2114 1356 c 0,131,132
 2116 1356 2116 1356 2129 1350 c 1,133,134
 2123 1325 2123 1325 2090 1260 c 0,135,136
 1940 954 1940 954 1940 891 c 0,137,138
 1940 885 1940 885 1992 885 c 0,139,140
 2055 885 2055 885 2174 903 c 1,141,142
 2174 887 2174 887 2149 551 c 0,143,144
 2123 213 2123 213 2123 205 c 2,145,-1
 2123 -195 l 1,146,147
 2108 -199 2108 -199 2102 -203 c 2,148,-1
 2088 -211 l 2,149,150
 2078 -217 2078 -217 2039 -225 c 1,151,-1
 2039 104 l 1,152,153
 1736 -27 1736 -27 1561 -27 c 0,154,155
 1527 -27 1527 -27 1512 -25 c 0,156,157
 1461 -18 1461 -18 1415 -6 c 1,45,46
EndSplineSet
EndChar

StartChar: Ccedilla
Encoding: 199 199 135
Width: 1327
Flags: W
LayerCount: 2
Fore
SplineSet
615 -12 m 1,0,1
 373 2 373 2 219 127 c 0,2,3
 111 215 111 215 49 436 c 0,4,5
 0 618 0 618 0 786 c 0,6,7
 0 1016 0 1016 139 1182 c 0,8,9
 244 1307 244 1307 418 1378 c 0,10,11
 547 1434 547 1434 631 1434 c 0,12,13
 774 1434 774 1434 899 1333 c 0,14,15
 928 1309 928 1309 979 1268 c 0,16,17
 1016 1239 1016 1239 1038 1239 c 0,18,19
 1040 1239 1040 1239 1104 1282 c 0,20,21
 1165 1325 1165 1325 1170 1329 c 1,22,23
 1208 1329 1208 1329 1227 1274 c 1,24,-1
 934 1026 l 1,25,26
 920 1032 920 1032 877 1077 c 0,27,28
 660 1303 660 1303 512 1303 c 0,29,30
 404 1303 404 1303 307 1094 c 0,31,32
 217 901 217 901 217 735 c 1,33,34
 256 457 256 457 422 270 c 0,35,36
 590 82 590 82 809 82 c 0,37,38
 832 82 832 82 997 170 c 0,39,40
 1172 262 1172 262 1206 262 c 1,41,-1
 1206 92 l 2,42,43
 1206 -330 1206 -330 1174 -330 c 2,44,-1
 1110 -330 l 1,45,46
 1112 -236 1112 -236 1112 -156 c 2,47,-1
 1112 29 l 1,48,-1
 1114 39 l 1,49,-1
 985 12 l 2,50,51
 915 -1 915 -1 839 -7 c 1,52,53
 855 -27 855 -27 863 -48 c 0,54,55
 882 -91 882 -91 890 -168 c 1,56,57
 889 -207 889 -207 886 -228.5 c 128,-1,58
 883 -250 883 -250 873 -305 c 0,59,60
 853 -400 853 -400 804 -447 c 0,61,62
 738 -505 738 -505 605 -505 c 0,63,64
 388 -505 388 -505 294 -320 c 1,65,66
 339 -298 339 -298 345 -298 c 0,67,68
 368 -298 368 -298 402 -354 c 0,69,70
 439 -414 439 -414 495 -414 c 0,71,72
 630 -414 630 -414 675 -308 c 1,73,74
 678 -265 678 -265 683 -204 c 0,75,76
 683 -173 683 -173 677 -106 c 1,77,78
 661 -57 661 -57 626 -22 c 0,79,80
 621 -17 621 -17 615 -12 c 1,0,1
EndSplineSet
EndChar

StartChar: Egrave
Encoding: 200 200 136
Width: 1325
Flags: W
LayerCount: 2
Fore
SplineSet
1174 205 m 2,0,-1
 1174 -195 l 1,1,2
 1159 -199 1159 -199 1153 -203 c 2,3,-1
 1139 -211 l 2,4,5
 1129 -217 1129 -217 1090 -225 c 1,6,-1
 1090 104 l 1,7,8
 787 -27 787 -27 612 -27 c 0,9,10
 578 -27 578 -27 563 -25 c 0,11,12
 295 12 295 12 164 176 c 0,13,14
 64 301 64 301 10 565 c 0,15,16
 0 616 0 616 0 672 c 0,17,18
 0 834 0 834 76 1028 c 0,19,20
 141 1190 141 1190 193 1241 c 0,21,22
 248 1296 248 1296 379 1352 c 0,23,24
 533 1415 533 1415 658 1415 c 0,25,26
 741 1415 741 1415 967 1237 c 0,27,28
 1002 1210 1002 1210 1014 1202 c 1,29,30
 1112 1368 1112 1368 1137 1368 c 0,31,32
 1145 1368 1145 1368 1165 1356 c 0,33,34
 1167 1356 1167 1356 1180 1350 c 1,35,36
 1174 1325 1174 1325 1141 1260 c 0,37,38
 991 954 991 954 991 891 c 0,39,40
 991 885 991 885 1043 885 c 0,41,42
 1106 885 1106 885 1225 903 c 1,43,44
 1225 887 1225 887 1200 551 c 0,45,46
 1174 213 1174 213 1174 205 c 2,0,-1
504 1270 m 2,47,48
 420 1268 420 1268 328 1149 c 0,49,50
 232 1026 232 1026 232 905 c 1,51,52
 238 866 238 866 256 856 c 0,53,54
 270 848 270 848 315 848 c 0,55,56
 793 848 793 848 922 877 c 1,57,58
 881 983 881 983 752 1118 c 0,59,60
 610 1270 610 1270 508 1270 c 2,61,-1
 504 1270 l 2,47,48
914 698 m 2,62,63
 236 698 236 698 232 631 c 1,64,65
 281 403 281 403 440 270 c 0,66,67
 598 141 598 141 815 141 c 0,68,69
 959 141 959 141 1083 197 c 1,70,71
 1090 221 1090 221 1098 430 c 0,72,73
 1100 541 1100 541 1106 696 c 1,74,75
 1100 696 1100 696 1034 698 c 2,76,-1
 914 698 l 2,62,63
797 1499 m 0,77,78
 622 1499 622 1499 522 1567 c 1,79,80
 465 1590 465 1590 270 1780 c 1,81,82
 309 1801 309 1801 350 1801 c 0,83,84
 431 1801 431 1801 682 1716 c 0,85,86
 705 1707 705 1707 740 1697 c 128,-1,87
 775 1687 775 1687 845 1625 c 0,88,89
 920 1555 920 1555 920 1513 c 1,90,91
 856 1499 856 1499 797 1499 c 0,77,78
EndSplineSet
EndChar

StartChar: Eacute
Encoding: 201 201 137
Width: 1325
Flags: W
LayerCount: 2
Fore
SplineSet
1174 205 m 2,0,-1
 1174 -195 l 1,1,2
 1159 -199 1159 -199 1153 -203 c 2,3,-1
 1139 -211 l 2,4,5
 1129 -217 1129 -217 1090 -225 c 1,6,-1
 1090 104 l 1,7,8
 787 -27 787 -27 612 -27 c 0,9,10
 578 -27 578 -27 563 -25 c 0,11,12
 295 12 295 12 164 176 c 0,13,14
 64 301 64 301 10 565 c 0,15,16
 0 616 0 616 0 672 c 0,17,18
 0 834 0 834 76 1028 c 0,19,20
 141 1190 141 1190 193 1241 c 0,21,22
 248 1296 248 1296 379 1352 c 0,23,24
 533 1415 533 1415 658 1415 c 0,25,26
 741 1415 741 1415 967 1237 c 0,27,28
 1002 1210 1002 1210 1014 1202 c 1,29,30
 1112 1368 1112 1368 1137 1368 c 0,31,32
 1145 1368 1145 1368 1165 1356 c 0,33,34
 1167 1356 1167 1356 1180 1350 c 1,35,36
 1174 1325 1174 1325 1141 1260 c 0,37,38
 991 954 991 954 991 891 c 0,39,40
 991 885 991 885 1043 885 c 0,41,42
 1106 885 1106 885 1225 903 c 1,43,44
 1225 887 1225 887 1200 551 c 0,45,46
 1174 213 1174 213 1174 205 c 2,0,-1
504 1270 m 2,47,48
 420 1268 420 1268 328 1149 c 0,49,50
 232 1026 232 1026 232 905 c 1,51,52
 238 866 238 866 256 856 c 0,53,54
 270 848 270 848 315 848 c 0,55,56
 793 848 793 848 922 877 c 1,57,58
 881 983 881 983 752 1118 c 0,59,60
 610 1270 610 1270 508 1270 c 2,61,-1
 504 1270 l 2,47,48
914 698 m 2,62,63
 236 698 236 698 232 631 c 1,64,65
 281 403 281 403 440 270 c 0,66,67
 598 141 598 141 815 141 c 0,68,69
 959 141 959 141 1083 197 c 1,70,71
 1090 221 1090 221 1098 430 c 0,72,73
 1100 541 1100 541 1106 696 c 1,74,75
 1100 696 1100 696 1034 698 c 2,76,-1
 914 698 l 2,62,63
270 1513 m 1,78,79
 270 1555 270 1555 345 1625 c 0,80,81
 415 1687 415 1687 450 1697 c 128,-1,82
 485 1707 485 1707 508 1716 c 0,83,84
 759 1801 759 1801 840 1801 c 0,85,86
 881 1801 881 1801 920 1780 c 1,87,88
 725 1590 725 1590 668 1567 c 1,89,90
 568 1499 568 1499 393 1499 c 0,91,77
 334 1499 334 1499 270 1513 c 1,78,79
EndSplineSet
EndChar

StartChar: Ecircumflex
Encoding: 202 202 138
Width: 1325
Flags: W
LayerCount: 2
Fore
SplineSet
1174 205 m 2,0,-1
 1174 -195 l 1,1,2
 1159 -199 1159 -199 1153 -203 c 2,3,-1
 1139 -211 l 2,4,5
 1129 -217 1129 -217 1090 -225 c 1,6,-1
 1090 104 l 1,7,8
 787 -27 787 -27 612 -27 c 0,9,10
 578 -27 578 -27 563 -25 c 0,11,12
 295 12 295 12 164 176 c 0,13,14
 64 301 64 301 10 565 c 0,15,16
 0 616 0 616 0 672 c 0,17,18
 0 834 0 834 76 1028 c 0,19,20
 141 1190 141 1190 193 1241 c 0,21,22
 248 1296 248 1296 379 1352 c 0,23,24
 533 1415 533 1415 658 1415 c 0,25,26
 741 1415 741 1415 967 1237 c 0,27,28
 1002 1210 1002 1210 1014 1202 c 1,29,30
 1112 1368 1112 1368 1137 1368 c 0,31,32
 1145 1368 1145 1368 1165 1356 c 0,33,34
 1167 1356 1167 1356 1180 1350 c 1,35,36
 1174 1325 1174 1325 1141 1260 c 0,37,38
 991 954 991 954 991 891 c 0,39,40
 991 885 991 885 1043 885 c 0,41,42
 1106 885 1106 885 1225 903 c 1,43,44
 1225 887 1225 887 1200 551 c 0,45,46
 1174 213 1174 213 1174 205 c 2,0,-1
504 1270 m 2,47,48
 420 1268 420 1268 328 1149 c 0,49,50
 232 1026 232 1026 232 905 c 1,51,52
 238 866 238 866 256 856 c 0,53,54
 270 848 270 848 315 848 c 0,55,56
 793 848 793 848 922 877 c 1,57,58
 881 983 881 983 752 1118 c 0,59,60
 610 1270 610 1270 508 1270 c 2,61,-1
 504 1270 l 2,47,48
914 698 m 2,62,63
 236 698 236 698 232 631 c 1,64,65
 281 403 281 403 440 270 c 0,66,67
 598 141 598 141 815 141 c 0,68,69
 959 141 959 141 1083 197 c 1,70,71
 1090 221 1090 221 1098 430 c 0,72,73
 1100 541 1100 541 1106 696 c 1,74,75
 1100 696 1100 696 1034 698 c 2,76,-1
 914 698 l 2,62,63
758 1539 m 0,77,78
 614 1702 614 1702 583 1702 c 0,79,80
 562 1702 562 1702 514 1646 c 0,81,82
 482 1609 482 1609 400 1521 c 1,83,84
 373 1500 373 1500 353 1500 c 0,85,86
 316 1500 316 1500 310 1560 c 1,87,88
 361 1677 361 1677 484 1795 c 0,89,90
 597 1903 597 1903 645 1903 c 0,91,92
 651 1903 651 1903 655 1900 c 0,93,94
 713 1851 713 1851 773 1785 c 0,95,96
 805 1748 805 1748 876 1670 c 0,97,98
 879 1661 879 1661 881 1651 c 2,99,-1
 890 1601 l 1,100,101
 838 1523 838 1523 800 1523 c 0,102,103
 777 1523 777 1523 758 1539 c 0,77,78
EndSplineSet
EndChar

StartChar: Edieresis
Encoding: 203 203 139
Width: 1325
Flags: W
LayerCount: 2
Fore
SplineSet
1174 205 m 2,0,-1
 1174 -195 l 1,1,2
 1159 -199 1159 -199 1153 -203 c 2,3,-1
 1139 -211 l 2,4,5
 1129 -217 1129 -217 1090 -225 c 1,6,-1
 1090 104 l 1,7,8
 787 -27 787 -27 612 -27 c 0,9,10
 578 -27 578 -27 563 -25 c 0,11,12
 295 12 295 12 164 176 c 0,13,14
 64 301 64 301 10 565 c 0,15,16
 0 616 0 616 0 672 c 0,17,18
 0 834 0 834 76 1028 c 0,19,20
 141 1190 141 1190 193 1241 c 0,21,22
 248 1296 248 1296 379 1352 c 0,23,24
 533 1415 533 1415 658 1415 c 0,25,26
 741 1415 741 1415 967 1237 c 0,27,28
 1002 1210 1002 1210 1014 1202 c 1,29,30
 1112 1368 1112 1368 1137 1368 c 0,31,32
 1145 1368 1145 1368 1165 1356 c 0,33,34
 1167 1356 1167 1356 1180 1350 c 1,35,36
 1174 1325 1174 1325 1141 1260 c 0,37,38
 991 954 991 954 991 891 c 0,39,40
 991 885 991 885 1043 885 c 0,41,42
 1106 885 1106 885 1225 903 c 1,43,44
 1225 887 1225 887 1200 551 c 0,45,46
 1174 213 1174 213 1174 205 c 2,0,-1
504 1270 m 2,47,48
 420 1268 420 1268 328 1149 c 0,49,50
 232 1026 232 1026 232 905 c 1,51,52
 238 866 238 866 256 856 c 0,53,54
 270 848 270 848 315 848 c 0,55,56
 793 848 793 848 922 877 c 1,57,58
 881 983 881 983 752 1118 c 0,59,60
 610 1270 610 1270 508 1270 c 2,61,-1
 504 1270 l 2,47,48
914 698 m 2,62,63
 236 698 236 698 232 631 c 1,64,65
 281 403 281 403 440 270 c 0,66,67
 598 141 598 141 815 141 c 0,68,69
 959 141 959 141 1083 197 c 1,70,71
 1090 221 1090 221 1098 430 c 0,72,73
 1100 541 1100 541 1106 696 c 1,74,75
 1100 696 1100 696 1034 698 c 2,76,-1
 914 698 l 2,62,63
210 1650 m 1,77,78
 241 1687 241 1687 296 1744 c 0,79,80
 349 1799 349 1799 370 1801 c 1,81,82
 417 1773 417 1773 489 1721 c 0,83,84
 556 1672 556 1672 556 1644 c 0,85,86
 556 1635 556 1635 503 1582 c 0,87,88
 448 1527 448 1527 411 1496 c 1,89,90
 390 1496 390 1496 304 1566 c 0,91,92
 214 1635 214 1635 210 1650 c 1,77,78
614 1649 m 0,93,94
 614 1665 614 1665 692 1741 c 0,95,96
 774 1821 774 1821 784 1821 c 0,97,98
 790 1821 790 1821 839 1780 c 0,99,100
 889 1737 889 1737 925 1694 c 0,101,102
 960 1651 960 1651 960 1639 c 1,103,104
 950 1620 950 1620 805 1497 c 1,105,106
 794 1497 794 1497 749 1528 c 0,107,108
 702 1557 702 1557 661 1596 c 0,109,110
 618 1632 618 1632 614 1649 c 0,93,94
EndSplineSet
EndChar

StartChar: Igrave
Encoding: 204 204 140
Width: 1046
Flags: W
LayerCount: 2
Fore
SplineSet
912 -8 m 1,0,1
 740 23 740 23 701 23 c 2,2,-1
 580 23 l 1,3,-1
 74 -27 l 1,4,-1
 74 43 l 1,5,6
 180 49 180 49 244 57 c 0,7,8
 340 70 340 70 371 109 c 0,9,10
 404 147 404 147 404 254 c 2,11,-1
 404 1008 l 1,12,-1
 379 1204 l 1,13,14
 365 1255 365 1255 340 1282 c 1,15,16
 326 1288 326 1288 160 1296 c 0,17,18
 0 1305 0 1305 0 1343 c 0,19,20
 0 1358 0 1358 17 1378 c 0,21,22
 35 1397 35 1397 49 1399 c 1,23,24
 137 1386 137 1386 365 1362 c 0,25,26
 418 1358 418 1358 477 1358 c 0,27,28
 635 1358 635 1358 649 1409 c 0,29,30
 651 1423 651 1423 656 1450 c 0,31,32
 658 1479 658 1479 697 1485 c 1,33,34
 729 1485 729 1485 729 1423 c 0,35,36
 729 1376 729 1376 752 1376 c 0,37,38
 774 1376 774 1376 840 1393 c 1,39,-1
 891 1393 l 1,40,-1
 891 1350 l 2,41,42
 891 1309 891 1309 821 1309 c 2,43,-1
 789 1309 l 2,44,45
 725 1309 725 1309 725 1274 c 2,46,-1
 725 127 l 2,47,48
 725 90 725 90 826 80 c 0,49,50
 946 68 946 68 946 27 c 0,51,52
 946 -8 946 -8 912 -8 c 1,0,1
645 1284 m 1,53,54
 611 1266 611 1266 588 1243 c 1,55,-1
 588 123 l 2,56,57
 588 109 588 109 645 104 c 1,58,-1
 645 1284 l 1,53,54
667 1499 m 0,59,60
 492 1499 492 1499 392 1567 c 1,61,62
 335 1590 335 1590 140 1780 c 1,63,64
 179 1801 179 1801 220 1801 c 0,65,66
 301 1801 301 1801 552 1716 c 0,67,68
 575 1707 575 1707 610 1697 c 128,-1,69
 645 1687 645 1687 715 1625 c 0,70,71
 790 1555 790 1555 790 1513 c 1,72,73
 726 1499 726 1499 667 1499 c 0,59,60
EndSplineSet
EndChar

StartChar: Iacute
Encoding: 205 205 141
Width: 1046
Flags: W
LayerCount: 2
Fore
SplineSet
912 -8 m 1,0,1
 740 23 740 23 701 23 c 2,2,-1
 580 23 l 1,3,-1
 74 -27 l 1,4,-1
 74 43 l 1,5,6
 180 49 180 49 244 57 c 0,7,8
 340 70 340 70 371 109 c 0,9,10
 404 147 404 147 404 254 c 2,11,-1
 404 1008 l 1,12,-1
 379 1204 l 1,13,14
 365 1255 365 1255 340 1282 c 1,15,16
 326 1288 326 1288 160 1296 c 0,17,18
 0 1305 0 1305 0 1343 c 0,19,20
 0 1358 0 1358 17 1378 c 0,21,22
 35 1397 35 1397 49 1399 c 1,23,24
 137 1386 137 1386 365 1362 c 0,25,26
 418 1358 418 1358 477 1358 c 0,27,28
 635 1358 635 1358 649 1409 c 0,29,30
 651 1423 651 1423 656 1450 c 0,31,32
 658 1479 658 1479 697 1485 c 1,33,34
 729 1485 729 1485 729 1423 c 0,35,36
 729 1376 729 1376 752 1376 c 0,37,38
 774 1376 774 1376 840 1393 c 1,39,-1
 891 1393 l 1,40,-1
 891 1350 l 2,41,42
 891 1309 891 1309 821 1309 c 2,43,-1
 789 1309 l 2,44,45
 725 1309 725 1309 725 1274 c 2,46,-1
 725 127 l 2,47,48
 725 90 725 90 826 80 c 0,49,50
 946 68 946 68 946 27 c 0,51,52
 946 -8 946 -8 912 -8 c 1,0,1
645 1284 m 1,53,54
 611 1266 611 1266 588 1243 c 1,55,-1
 588 123 l 2,56,57
 588 109 588 109 645 104 c 1,58,-1
 645 1284 l 1,53,54
140 1513 m 1,60,61
 140 1555 140 1555 215 1625 c 0,62,63
 285 1687 285 1687 320 1697 c 128,-1,64
 355 1707 355 1707 378 1716 c 0,65,66
 629 1801 629 1801 710 1801 c 0,67,68
 751 1801 751 1801 790 1780 c 1,69,70
 595 1590 595 1590 538 1567 c 1,71,72
 438 1499 438 1499 263 1499 c 0,73,59
 204 1499 204 1499 140 1513 c 1,60,61
EndSplineSet
EndChar

StartChar: Icircumflex
Encoding: 206 206 142
Width: 1046
Flags: W
LayerCount: 2
Fore
SplineSet
912 -8 m 1,0,1
 740 23 740 23 701 23 c 2,2,-1
 580 23 l 1,3,-1
 74 -27 l 1,4,-1
 74 43 l 1,5,6
 180 49 180 49 244 57 c 0,7,8
 340 70 340 70 371 109 c 0,9,10
 404 147 404 147 404 254 c 2,11,-1
 404 1008 l 1,12,-1
 379 1204 l 1,13,14
 365 1255 365 1255 340 1282 c 1,15,16
 326 1288 326 1288 160 1296 c 0,17,18
 0 1305 0 1305 0 1343 c 0,19,20
 0 1358 0 1358 17 1378 c 0,21,22
 35 1397 35 1397 49 1399 c 1,23,24
 137 1386 137 1386 365 1362 c 0,25,26
 418 1358 418 1358 477 1358 c 0,27,28
 635 1358 635 1358 649 1409 c 0,29,30
 651 1423 651 1423 656 1450 c 0,31,32
 658 1479 658 1479 697 1485 c 1,33,34
 729 1485 729 1485 729 1423 c 0,35,36
 729 1376 729 1376 752 1376 c 0,37,38
 774 1376 774 1376 840 1393 c 1,39,-1
 891 1393 l 1,40,-1
 891 1350 l 2,41,42
 891 1309 891 1309 821 1309 c 2,43,-1
 789 1309 l 2,44,45
 725 1309 725 1309 725 1274 c 2,46,-1
 725 127 l 2,47,48
 725 90 725 90 826 80 c 0,49,50
 946 68 946 68 946 27 c 0,51,52
 946 -8 946 -8 912 -8 c 1,0,1
645 1284 m 1,53,54
 611 1266 611 1266 588 1243 c 1,55,-1
 588 123 l 2,56,57
 588 109 588 109 645 104 c 1,58,-1
 645 1284 l 1,53,54
648 1539 m 0,59,60
 504 1702 504 1702 473 1702 c 0,61,62
 452 1702 452 1702 404 1646 c 0,63,64
 372 1609 372 1609 290 1521 c 1,65,66
 263 1500 263 1500 243 1500 c 0,67,68
 206 1500 206 1500 200 1560 c 1,69,70
 251 1677 251 1677 374 1795 c 0,71,72
 487 1903 487 1903 535 1903 c 0,73,74
 541 1903 541 1903 545 1900 c 0,75,76
 603 1851 603 1851 663 1785 c 0,77,78
 695 1748 695 1748 766 1670 c 0,79,80
 769 1661 769 1661 771 1651 c 2,81,-1
 780 1601 l 1,82,83
 728 1523 728 1523 690 1523 c 0,84,85
 667 1523 667 1523 648 1539 c 0,59,60
EndSplineSet
EndChar

StartChar: Idieresis
Encoding: 207 207 143
Width: 1046
Flags: W
LayerCount: 2
Fore
SplineSet
912 -8 m 1,0,1
 740 23 740 23 701 23 c 2,2,-1
 580 23 l 1,3,-1
 74 -27 l 1,4,-1
 74 43 l 1,5,6
 180 49 180 49 244 57 c 0,7,8
 340 70 340 70 371 109 c 0,9,10
 404 147 404 147 404 254 c 2,11,-1
 404 1008 l 1,12,-1
 379 1204 l 1,13,14
 365 1255 365 1255 340 1282 c 1,15,16
 326 1288 326 1288 160 1296 c 0,17,18
 0 1305 0 1305 0 1343 c 0,19,20
 0 1358 0 1358 17 1378 c 0,21,22
 35 1397 35 1397 49 1399 c 1,23,24
 137 1386 137 1386 365 1362 c 0,25,26
 418 1358 418 1358 477 1358 c 0,27,28
 635 1358 635 1358 649 1409 c 0,29,30
 651 1423 651 1423 656 1450 c 0,31,32
 658 1479 658 1479 697 1485 c 1,33,34
 729 1485 729 1485 729 1423 c 0,35,36
 729 1376 729 1376 752 1376 c 0,37,38
 774 1376 774 1376 840 1393 c 1,39,-1
 891 1393 l 1,40,-1
 891 1350 l 2,41,42
 891 1309 891 1309 821 1309 c 2,43,-1
 789 1309 l 2,44,45
 725 1309 725 1309 725 1274 c 2,46,-1
 725 127 l 2,47,48
 725 90 725 90 826 80 c 0,49,50
 946 68 946 68 946 27 c 0,51,52
 946 -8 946 -8 912 -8 c 1,0,1
645 1284 m 1,53,54
 611 1266 611 1266 588 1243 c 1,55,-1
 588 123 l 2,56,57
 588 109 588 109 645 104 c 1,58,-1
 645 1284 l 1,53,54
110 1650 m 1,59,60
 141 1687 141 1687 196 1744 c 0,61,62
 249 1799 249 1799 270 1801 c 1,63,64
 317 1773 317 1773 389 1721 c 0,65,66
 456 1672 456 1672 456 1644 c 0,67,68
 456 1635 456 1635 403 1582 c 0,69,70
 348 1527 348 1527 311 1496 c 1,71,72
 290 1496 290 1496 204 1566 c 0,73,74
 114 1635 114 1635 110 1650 c 1,59,60
514 1649 m 0,75,76
 514 1665 514 1665 592 1741 c 0,77,78
 674 1821 674 1821 684 1821 c 0,79,80
 690 1821 690 1821 739 1780 c 0,81,82
 789 1737 789 1737 825 1694 c 0,83,84
 860 1651 860 1651 860 1639 c 1,85,86
 850 1620 850 1620 705 1497 c 1,87,88
 694 1497 694 1497 649 1528 c 0,89,90
 602 1557 602 1557 561 1596 c 0,91,92
 518 1632 518 1632 514 1649 c 0,75,76
EndSplineSet
EndChar

StartChar: Eth
Encoding: 208 208 144
Width: 1394
Flags: W
LayerCount: 2
Fore
SplineSet
469 749 m 1,0,1
 473 659 473 659 477 551 c 0,2,3
 491 145 491 145 495 145 c 2,4,-1
 944 104 l 1,5,6
 997 104 997 104 1048 211 c 0,7,8
 1130 383 1130 383 1130 612 c 0,9,10
 1130 885 1130 885 993 1083 c 0,11,12
 854 1286 854 1286 651 1286 c 0,13,14
 460 1286 460 1286 460 1122 c 0,15,16
 460 1046 460 1046 464 901 c 1,17,18
 536 899 536 899 833 899 c 1,19,-1
 909 901 l 1,20,21
 909 891 909 891 911 860 c 2,22,-1
 911 813 l 1,23,24
 901 757 901 757 831 721 c 1,25,-1
 817 731 l 2,26,27
 792 750 792 750 764 750 c 2,28,-1
 508 750 l 2,29,30
 495 750 495 750 469 749 c 1,0,1
292 889 m 1,31,32
 289 1161 289 1161 280 1180 c 0,33,34
 268 1204 268 1204 149 1229 c 0,35,36
 118 1235 118 1235 63 1247 c 1,37,38
 20 1264 20 1264 20 1286 c 0,39,40
 20 1333 20 1333 57 1333 c 1,41,42
 329 1266 329 1266 397 1266 c 2,43,-1
 409 1266 l 1,44,45
 546 1419 546 1419 733 1423 c 1,46,-1
 745 1423 l 2,47,48
 979 1423 979 1423 1126 1255 c 0,49,50
 1294 1065 1294 1065 1294 709 c 0,51,52
 1294 420 1294 420 1173 209 c 0,53,54
 1040 -20 1040 -20 829 -20 c 0,55,56
 811 -20 811 -20 598 5.5 c 128,-1,57
 385 31 385 31 323 31 c 0,58,59
 223 31 223 31 170 -8 c 0,60,61
 88 -68 88 -68 49 -233 c 1,62,63
 34 -233 34 -233 16 -174 c 0,64,65
 0 -123 0 -123 0 -106 c 0,66,67
 0 -55 0 -55 32 12 c 0,68,69
 69 88 69 88 125 123 c 0,70,71
 161 145 161 145 268 160 c 0,72,73
 274 160 274 160 290 166 c 1,74,-1
 290 164 l 1,75,-1
 293 313 l 1,76,-1
 293 743 l 1,77,78
 265 742 265 742 233 741 c 2,79,-1
 32 751 l 1,80,81
 17 778 17 778 5 880 c 1,82,83
 152 880 152 880 292 889 c 1,31,32
EndSplineSet
EndChar

StartChar: Ntilde
Encoding: 209 209 145
Width: 1780
Flags: W
LayerCount: 2
Fore
SplineSet
1661 1341 m 0,0,1
 1657 1339 1657 1339 1622 1333 c 0,2,3
 1507 1313 1507 1313 1507 1268 c 2,4,-1
 1507 -57 l 1,5,6
 1421 -57 1421 -57 1395 57 c 1,7,8
 1161 291 1161 291 936 483 c 0,9,10
 926 492 926 492 830 590 c 0,11,12
 672 750 672 750 619 801 c 0,13,14
 459 954 459 954 412 971 c 1,15,16
 397 713 397 713 397 645 c 2,17,-1
 397 406 l 2,18,19
 395 281 395 281 395 260 c 0,20,21
 395 154 395 154 416 123 c 0,22,23
 445 78 445 78 547 78 c 0,24,25
 570 78 570 78 608 80 c 0,26,27
 647 82 647 82 662 82 c 0,28,29
 711 82 711 82 721 66 c 0,30,31
 729 51 729 51 729 45 c 0,32,33
 729 0 729 0 565 0 c 0,34,35
 543 0 543 0 500 2 c 2,36,-1
 445 2 l 1,37,-1
 393 0 l 2,38,39
 371 0 371 0 295 -10 c 0,40,41
 223 -18 223 -18 187 -18 c 0,42,43
 96 -18 96 -18 96 20 c 0,44,45
 96 27 96 27 98 31 c 2,46,-1
 101 39 l 1,47,48
 121 80 121 80 150 80 c 0,49,50
 162 80 162 80 187 74 c 0,51,52
 209 66 209 66 221 66 c 0,53,54
 236 66 236 66 262 76 c 1,55,56
 301 98 301 98 301 623 c 0,57,58
 301 995 301 995 293 1047 c 0,59,60
 287 1114 287 1114 258 1268 c 0,61,62
 252 1294 252 1294 244 1333 c 0,63,64
 240 1364 240 1364 203 1364 c 0,65,66
 176 1364 176 1364 121 1352 c 0,67,68
 66 1337 66 1337 41 1337 c 0,69,70
 0 1337 0 1337 0 1368 c 0,71,72
 0 1386 0 1386 10 1401 c 0,73,74
 19 1419 19 1419 197 1444 c 0,75,76
 320 1460 320 1460 344 1460 c 0,77,78
 383 1460 383 1460 383 1434 c 0,79,80
 383 1430 383 1430 381 1413 c 0,81,82
 377 1397 377 1397 377 1384 c 0,83,84
 377 1307 377 1307 488 1206 c 0,85,86
 619 1083 619 1083 967 764 c 0,87,88
 1338 426 1338 426 1393 385 c 1,89,90
 1407 442 1407 442 1407 854 c 0,91,92
 1407 1284 1407 1284 1393 1313 c 1,93,94
 1374 1337 1374 1337 1299 1337 c 2,95,-1
 1256 1337 l 2,96,97
 1190 1337 1190 1337 1190 1386 c 1,98,99
 1198 1413 1198 1413 1256 1413 c 2,100,-1
 1297 1413 l 2,101,102
 1327 1411 1327 1411 1350 1411 c 0,103,104
 1471 1411 1471 1411 1555 1419 c 2,105,-1
 1630 1425 l 2,106,107
 1680 1425 1680 1425 1680 1380 c 0,108,109
 1680 1352 1680 1352 1661 1341 c 0,0,1
1092 1519 m 1,110,111
 1068 1502 1068 1502 1035 1502 c 0,112,113
 996 1502 996 1502 922 1531 c 0,114,115
 815 1572 815 1572 770 1572 c 0,116,117
 756 1572 756 1572 744 1570 c 0,118,119
 680 1557 680 1557 480 1426 c 1,120,-1
 723 1669 l 1,121,122
 837 1744 837 1744 908 1744 c 0,123,124
 949 1744 949 1744 1036.5 1715.5 c 128,-1,125
 1124 1687 1124 1687 1167 1687 c 0,126,127
 1221 1687 1221 1687 1274 1700 c 1,128,-1
 1092 1519 l 1,110,111
EndSplineSet
EndChar

StartChar: Ograve
Encoding: 210 210 146
Width: 1466
Flags: W
LayerCount: 2
Fore
SplineSet
756 -29 m 2,0,-1
 611 -29 l 2,1,2
 361 -29 361 -29 181 164 c 0,3,4
 0 358 0 358 0 633 c 2,5,-1
 0 801 l 2,6,7
 0 924 0 924 70 1067 c 0,8,9
 156 1247 156 1247 310 1327 c 0,10,11
 363 1358 363 1358 453 1401 c 0,12,13
 508 1423 508 1423 576 1423 c 2,14,-1
 760 1423 l 2,15,16
 1012 1423 1012 1423 1192 1221 c 0,17,18
 1366 1026 1366 1026 1366 768 c 2,19,-1
 1366 606 l 2,20,21
 1366 326 1366 326 1145 135 c 0,22,23
 957 -29 957 -29 756 -29 c 2,0,-1
590 1313 m 0,24,25
 383 1313 383 1313 285 1122 c 0,26,27
 226 1006 226 1006 226 895 c 2,28,-1
 226 725 l 2,29,30
 226 582 226 582 320 408 c 1,31,32
 353 299 353 299 488 197 c 0,33,34
 623 96 623 96 732 96 c 2,35,-1
 850 96 l 2,36,37
 975 96 975 96 1055 250 c 0,38,39
 1127 391 1127 391 1127 586 c 0,40,41
 1127 913 1127 913 983 1110 c 0,42,43
 838 1313 838 1313 590 1313 c 0,24,25
857 1499 m 0,44,45
 682 1499 682 1499 582 1567 c 1,46,47
 525 1590 525 1590 330 1780 c 1,48,49
 369 1801 369 1801 410 1801 c 0,50,51
 491 1801 491 1801 742 1716 c 0,52,53
 765 1707 765 1707 800 1697 c 128,-1,54
 835 1687 835 1687 905 1625 c 0,55,56
 980 1555 980 1555 980 1513 c 1,57,58
 916 1499 916 1499 857 1499 c 0,44,45
EndSplineSet
EndChar

StartChar: Oacute
Encoding: 211 211 147
Width: 1466
Flags: W
LayerCount: 2
Fore
SplineSet
756 -29 m 2,0,-1
 611 -29 l 2,1,2
 361 -29 361 -29 181 164 c 0,3,4
 0 358 0 358 0 633 c 2,5,-1
 0 801 l 2,6,7
 0 924 0 924 70 1067 c 0,8,9
 156 1247 156 1247 310 1327 c 0,10,11
 363 1358 363 1358 453 1401 c 0,12,13
 508 1423 508 1423 576 1423 c 2,14,-1
 760 1423 l 2,15,16
 1012 1423 1012 1423 1192 1221 c 0,17,18
 1366 1026 1366 1026 1366 768 c 2,19,-1
 1366 606 l 2,20,21
 1366 326 1366 326 1145 135 c 0,22,23
 957 -29 957 -29 756 -29 c 2,0,-1
590 1313 m 0,24,25
 383 1313 383 1313 285 1122 c 0,26,27
 226 1006 226 1006 226 895 c 2,28,-1
 226 725 l 2,29,30
 226 582 226 582 320 408 c 1,31,32
 353 299 353 299 488 197 c 0,33,34
 623 96 623 96 732 96 c 2,35,-1
 850 96 l 2,36,37
 975 96 975 96 1055 250 c 0,38,39
 1127 391 1127 391 1127 586 c 0,40,41
 1127 913 1127 913 983 1110 c 0,42,43
 838 1313 838 1313 590 1313 c 0,24,25
330 1513 m 1,45,46
 330 1555 330 1555 405 1625 c 0,47,48
 475 1687 475 1687 510 1697 c 128,-1,49
 545 1707 545 1707 568 1716 c 0,50,51
 819 1801 819 1801 900 1801 c 0,52,53
 941 1801 941 1801 980 1780 c 1,54,55
 785 1590 785 1590 728 1567 c 1,56,57
 628 1499 628 1499 453 1499 c 0,58,44
 394 1499 394 1499 330 1513 c 1,45,46
EndSplineSet
EndChar

StartChar: Ocircumflex
Encoding: 212 212 148
Width: 1466
Flags: W
LayerCount: 2
Fore
SplineSet
756 -29 m 2,0,-1
 611 -29 l 2,1,2
 361 -29 361 -29 181 164 c 0,3,4
 0 358 0 358 0 633 c 2,5,-1
 0 801 l 2,6,7
 0 924 0 924 70 1067 c 0,8,9
 156 1247 156 1247 310 1327 c 0,10,11
 363 1358 363 1358 453 1401 c 0,12,13
 508 1423 508 1423 576 1423 c 2,14,-1
 760 1423 l 2,15,16
 1012 1423 1012 1423 1192 1221 c 0,17,18
 1366 1026 1366 1026 1366 768 c 2,19,-1
 1366 606 l 2,20,21
 1366 326 1366 326 1145 135 c 0,22,23
 957 -29 957 -29 756 -29 c 2,0,-1
590 1313 m 0,24,25
 383 1313 383 1313 285 1122 c 0,26,27
 226 1006 226 1006 226 895 c 2,28,-1
 226 725 l 2,29,30
 226 582 226 582 320 408 c 1,31,32
 353 299 353 299 488 197 c 0,33,34
 623 96 623 96 732 96 c 2,35,-1
 850 96 l 2,36,37
 975 96 975 96 1055 250 c 0,38,39
 1127 391 1127 391 1127 586 c 0,40,41
 1127 913 1127 913 983 1110 c 0,42,43
 838 1313 838 1313 590 1313 c 0,24,25
808 1539 m 0,44,45
 664 1702 664 1702 633 1702 c 0,46,47
 612 1702 612 1702 564 1646 c 0,48,49
 532 1609 532 1609 450 1521 c 1,50,51
 423 1500 423 1500 403 1500 c 0,52,53
 366 1500 366 1500 360 1560 c 1,54,55
 411 1677 411 1677 534 1795 c 0,56,57
 647 1903 647 1903 695 1903 c 0,58,59
 701 1903 701 1903 705 1900 c 0,60,61
 763 1851 763 1851 823 1785 c 0,62,63
 855 1748 855 1748 926 1670 c 0,64,65
 929 1661 929 1661 931 1651 c 2,66,-1
 940 1601 l 1,67,68
 888 1523 888 1523 850 1523 c 0,69,70
 827 1523 827 1523 808 1539 c 0,44,45
EndSplineSet
EndChar

StartChar: Otilde
Encoding: 213 213 149
Width: 1466
Flags: W
LayerCount: 2
Fore
SplineSet
756 -29 m 2,0,-1
 611 -29 l 2,1,2
 361 -29 361 -29 181 164 c 0,3,4
 0 358 0 358 0 633 c 2,5,-1
 0 801 l 2,6,7
 0 924 0 924 70 1067 c 0,8,9
 156 1247 156 1247 310 1327 c 0,10,11
 363 1358 363 1358 453 1401 c 0,12,13
 508 1423 508 1423 576 1423 c 2,14,-1
 760 1423 l 2,15,16
 1012 1423 1012 1423 1192 1221 c 0,17,18
 1366 1026 1366 1026 1366 768 c 2,19,-1
 1366 606 l 2,20,21
 1366 326 1366 326 1145 135 c 0,22,23
 957 -29 957 -29 756 -29 c 2,0,-1
590 1313 m 0,24,25
 383 1313 383 1313 285 1122 c 0,26,27
 226 1006 226 1006 226 895 c 2,28,-1
 226 725 l 2,29,30
 226 582 226 582 320 408 c 1,31,32
 353 299 353 299 488 197 c 0,33,34
 623 96 623 96 732 96 c 2,35,-1
 850 96 l 2,36,37
 975 96 975 96 1055 250 c 0,38,39
 1127 391 1127 391 1127 586 c 0,40,41
 1127 913 1127 913 983 1110 c 0,42,43
 838 1313 838 1313 590 1313 c 0,24,25
892 1519 m 1,44,45
 868 1502 868 1502 835 1502 c 0,46,47
 796 1502 796 1502 722 1531 c 0,48,49
 615 1572 615 1572 570 1572 c 0,50,51
 556 1572 556 1572 544 1570 c 0,52,53
 480 1557 480 1557 280 1426 c 1,54,-1
 523 1669 l 1,55,56
 637 1744 637 1744 708 1744 c 0,57,58
 749 1744 749 1744 836.5 1715.5 c 128,-1,59
 924 1687 924 1687 967 1687 c 0,60,61
 1021 1687 1021 1687 1074 1700 c 1,62,-1
 892 1519 l 1,44,45
EndSplineSet
EndChar

StartChar: Odieresis
Encoding: 214 214 150
Width: 1466
Flags: W
LayerCount: 2
Fore
SplineSet
756 -29 m 2,0,-1
 611 -29 l 2,1,2
 361 -29 361 -29 181 164 c 0,3,4
 0 358 0 358 0 633 c 2,5,-1
 0 801 l 2,6,7
 0 924 0 924 70 1067 c 0,8,9
 156 1247 156 1247 310 1327 c 0,10,11
 363 1358 363 1358 453 1401 c 0,12,13
 508 1423 508 1423 576 1423 c 2,14,-1
 760 1423 l 2,15,16
 1012 1423 1012 1423 1192 1221 c 0,17,18
 1366 1026 1366 1026 1366 768 c 2,19,-1
 1366 606 l 2,20,21
 1366 326 1366 326 1145 135 c 0,22,23
 957 -29 957 -29 756 -29 c 2,0,-1
590 1313 m 0,24,25
 383 1313 383 1313 285 1122 c 0,26,27
 226 1006 226 1006 226 895 c 2,28,-1
 226 725 l 2,29,30
 226 582 226 582 320 408 c 1,31,32
 353 299 353 299 488 197 c 0,33,34
 623 96 623 96 732 96 c 2,35,-1
 850 96 l 2,36,37
 975 96 975 96 1055 250 c 0,38,39
 1127 391 1127 391 1127 586 c 0,40,41
 1127 913 1127 913 983 1110 c 0,42,43
 838 1313 838 1313 590 1313 c 0,24,25
270 1650 m 1,44,45
 301 1687 301 1687 356 1744 c 0,46,47
 409 1799 409 1799 430 1801 c 1,48,49
 477 1773 477 1773 549 1721 c 0,50,51
 616 1672 616 1672 616 1644 c 0,52,53
 616 1635 616 1635 563 1582 c 0,54,55
 508 1527 508 1527 471 1496 c 1,56,57
 450 1496 450 1496 364 1566 c 0,58,59
 274 1635 274 1635 270 1650 c 1,44,45
674 1649 m 0,60,61
 674 1665 674 1665 752 1741 c 0,62,63
 834 1821 834 1821 844 1821 c 0,64,65
 850 1821 850 1821 899 1780 c 0,66,67
 949 1737 949 1737 985 1694 c 0,68,69
 1020 1651 1020 1651 1020 1639 c 1,70,71
 1010 1620 1010 1620 865 1497 c 1,72,73
 854 1497 854 1497 809 1528 c 0,74,75
 762 1557 762 1557 721 1596 c 0,76,77
 678 1632 678 1632 674 1649 c 0,60,61
EndSplineSet
EndChar

StartChar: multiply
Encoding: 215 215 151
Width: 936
Flags: W
LayerCount: 2
Fore
SplineSet
617 343 m 0,0,1
 565 343 565 343 490 433 c 0,2,3
 484 440 484 440 389 573 c 0,4,5
 381 585 381 585 367 606 c 1,6,7
 340 483 340 483 281 411 c 0,8,9
 223 341 223 341 139 341 c 0,10,11
 39 341 39 341 0 425 c 1,12,13
 0 448 0 448 35 501 c 0,14,15
 66 550 66 550 76 550 c 0,16,17
 98 550 98 550 125 528 c 2,18,-1
 137 517 l 2,19,20
 164 491 164 491 199 489 c 1,21,22
 293 630 293 630 316 696 c 1,23,24
 289 773 289 773 238 857 c 0,25,26
 144 1005 144 1005 25 1052 c 1,27,28
 45 1161 45 1161 131 1161 c 0,29,30
 182 1161 182 1161 240 1118 c 0,31,32
 316 1062 316 1062 359 984 c 0,33,34
 375 952 375 952 414 888 c 1,35,36
 449 970 449 970 516 1054 c 0,37,38
 604 1165 604 1165 680 1167 c 0,39,40
 707 1167 707 1167 740 1144 c 0,41,42
 783 1113 783 1113 783 1077 c 0,43,44
 783 1054 783 1054 766 1032 c 0,45,46
 721 972 721 972 690 972 c 0,47,48
 672 972 672 972 658 991 c 2,49,-1
 651 999 l 2,50,51
 641 1007 641 1007 621 1017 c 1,52,53
 574 960 574 960 545 923 c 0,54,55
 484 839 484 839 471 794 c 1,56,57
 473 765 473 765 563 632 c 0,58,59
 651 497 651 497 674 483 c 0,60,61
 676 481 676 481 686 481 c 0,62,63
 707 481 707 481 748 522 c 0,64,65
 789 560 789 560 807 560 c 0,66,67
 823 560 823 560 836 534 c 1,68,69
 793 479 793 479 756 440 c 0,70,71
 666 343 666 343 617 343 c 0,0,1
EndSplineSet
EndChar

StartChar: Oslash
Encoding: 216 216 152
Width: 1466
Flags: W
LayerCount: 2
Fore
SplineSet
956 1145 m 1,0,1
 816 1313 816 1313 590 1313 c 0,2,3
 383 1313 383 1313 285 1122 c 0,4,5
 226 1006 226 1006 226 895 c 2,6,-1
 226 725 l 2,7,8
 226 582 226 582 320 408 c 1,9,10
 327 385 327 385 339 362 c 1,11,-1
 956 1145 l 1,0,1
427 248 m 1,12,13
 455 222 455 222 488 197 c 0,14,15
 623 96 623 96 732 96 c 2,16,-1
 850 96 l 2,17,18
 975 96 975 96 1055 250 c 0,19,20
 1127 391 1127 391 1127 586 c 0,21,22
 1127 844 1127 844 1037 1021 c 1,23,-1
 427 248 l 1,12,13
756 -29 m 2,24,-1
 611 -29 l 2,25,26
 361 -29 361 -29 181 164 c 0,27,28
 0 358 0 358 0 633 c 2,29,-1
 0 801 l 2,30,31
 0 924 0 924 70 1067 c 0,32,33
 156 1247 156 1247 310 1327 c 0,34,35
 363 1358 363 1358 453 1401 c 0,36,37
 508 1423 508 1423 576 1423 c 2,38,-1
 760 1423 l 2,39,40
 1012 1423 1012 1423 1192 1221 c 0,41,42
 1366 1026 1366 1026 1366 768 c 2,43,-1
 1366 606 l 2,44,45
 1366 326 1366 326 1145 135 c 0,46,47
 957 -29 957 -29 756 -29 c 2,24,-1
EndSplineSet
EndChar

